<?xml version="1.0" encoding="utf-8" standalone="no"?>
<!DOCTYPE svg PUBLIC "-//W3C//DTD SVG 1.1//EN"
  "http://www.w3.org/Graphics/SVG/1.1/DTD/svg11.dtd">
<svg xmlns:xlink="http://www.w3.org/1999/xlink" width="944.221108pt" height="441.449281pt" viewBox="0 0 944.221108 441.449281" xmlns="http://www.w3.org/2000/svg" version="1.1">
 <metadata>
  <rdf:RDF xmlns:dc="http://purl.org/dc/elements/1.1/" xmlns:cc="http://creativecommons.org/ns#" xmlns:rdf="http://www.w3.org/1999/02/22-rdf-syntax-ns#">
   <cc:Work>
    <dc:type rdf:resource="http://purl.org/dc/dcmitype/StillImage"/>
    <dc:date>2025-12-03T14:32:59.687428</dc:date>
    <dc:format>image/svg+xml</dc:format>
    <dc:creator>
     <cc:Agent>
      <dc:title>Matplotlib v3.10.0, https://matplotlib.org/</dc:title>
     </cc:Agent>
    </dc:creator>
   </cc:Work>
  </rdf:RDF>
 </metadata>
 <defs>
  <style type="text/css">*{stroke-linejoin: round; stroke-linecap: butt}</style>
 </defs>
 <g id="figure_1">
  <g id="patch_1">
   <path d="M 0 441.449281
L 944.221108 441.449281
L 944.221108 -0
L 0 -0
z
" style="fill: #ffffff"/>
  </g>
  <g id="axes_1">
   <g id="patch_2">
    <path d="M 47.31 392.172
L 496.956033 392.172
L 496.956033 70.08
L 47.31 70.08
z
" style="fill: #ffffff"/>
   </g>
   <g id="matplotlib.axis_1">
    <g id="xtick_1">
     <g id="line2d_1">
      <path d="M 120.737046 392.172
L 120.737046 70.08
" clip-path="url(#pc28938e75b)" style="fill: none; stroke: #cccccc; stroke-width: 0.8; stroke-linecap: round"/>
     </g>
     <g id="line2d_2"/>
     <g id="text_1">
      <!-- Baseline -->
      <g style="fill: #262626" transform="translate(97.417905 404.030281) scale(0.11 -0.11)">
       <defs>
        <path id="DejaVuSans-42" d="M 1259 2228
L 1259 519
L 2272 519
Q 2781 519 3026 730
Q 3272 941 3272 1375
Q 3272 1813 3026 2020
Q 2781 2228 2272 2228
L 1259 2228
z
M 1259 4147
L 1259 2741
L 2194 2741
Q 2656 2741 2882 2914
Q 3109 3088 3109 3444
Q 3109 3797 2882 3972
Q 2656 4147 2194 4147
L 1259 4147
z
M 628 4666
L 2241 4666
Q 2963 4666 3353 4366
Q 3744 4066 3744 3513
Q 3744 3084 3544 2831
Q 3344 2578 2956 2516
Q 3422 2416 3680 2098
Q 3938 1781 3938 1306
Q 3938 681 3513 340
Q 3088 0 2303 0
L 628 0
L 628 4666
z
" transform="scale(0.015625)"/>
        <path id="DejaVuSans-61" d="M 2194 1759
Q 1497 1759 1228 1600
Q 959 1441 959 1056
Q 959 750 1161 570
Q 1363 391 1709 391
Q 2188 391 2477 730
Q 2766 1069 2766 1631
L 2766 1759
L 2194 1759
z
M 3341 1997
L 3341 0
L 2766 0
L 2766 531
Q 2569 213 2275 61
Q 1981 -91 1556 -91
Q 1019 -91 701 211
Q 384 513 384 1019
Q 384 1609 779 1909
Q 1175 2209 1959 2209
L 2766 2209
L 2766 2266
Q 2766 2663 2505 2880
Q 2244 3097 1772 3097
Q 1472 3097 1187 3025
Q 903 2953 641 2809
L 641 3341
Q 956 3463 1253 3523
Q 1550 3584 1831 3584
Q 2591 3584 2966 3190
Q 3341 2797 3341 1997
z
" transform="scale(0.015625)"/>
        <path id="DejaVuSans-73" d="M 2834 3397
L 2834 2853
Q 2591 2978 2328 3040
Q 2066 3103 1784 3103
Q 1356 3103 1142 2972
Q 928 2841 928 2578
Q 928 2378 1081 2264
Q 1234 2150 1697 2047
L 1894 2003
Q 2506 1872 2764 1633
Q 3022 1394 3022 966
Q 3022 478 2636 193
Q 2250 -91 1575 -91
Q 1294 -91 989 -36
Q 684 19 347 128
L 347 722
Q 666 556 975 473
Q 1284 391 1588 391
Q 1994 391 2212 530
Q 2431 669 2431 922
Q 2431 1156 2273 1281
Q 2116 1406 1581 1522
L 1381 1569
Q 847 1681 609 1914
Q 372 2147 372 2553
Q 372 3047 722 3315
Q 1072 3584 1716 3584
Q 2034 3584 2315 3537
Q 2597 3491 2834 3397
z
" transform="scale(0.015625)"/>
        <path id="DejaVuSans-65" d="M 3597 1894
L 3597 1613
L 953 1613
Q 991 1019 1311 708
Q 1631 397 2203 397
Q 2534 397 2845 478
Q 3156 559 3463 722
L 3463 178
Q 3153 47 2828 -22
Q 2503 -91 2169 -91
Q 1331 -91 842 396
Q 353 884 353 1716
Q 353 2575 817 3079
Q 1281 3584 2069 3584
Q 2775 3584 3186 3129
Q 3597 2675 3597 1894
z
M 3022 2063
Q 3016 2534 2758 2815
Q 2500 3097 2075 3097
Q 1594 3097 1305 2825
Q 1016 2553 972 2059
L 3022 2063
z
" transform="scale(0.015625)"/>
        <path id="DejaVuSans-6c" d="M 603 4863
L 1178 4863
L 1178 0
L 603 0
L 603 4863
z
" transform="scale(0.015625)"/>
        <path id="DejaVuSans-69" d="M 603 3500
L 1178 3500
L 1178 0
L 603 0
L 603 3500
z
M 603 4863
L 1178 4863
L 1178 4134
L 603 4134
L 603 4863
z
" transform="scale(0.015625)"/>
        <path id="DejaVuSans-6e" d="M 3513 2113
L 3513 0
L 2938 0
L 2938 2094
Q 2938 2591 2744 2837
Q 2550 3084 2163 3084
Q 1697 3084 1428 2787
Q 1159 2491 1159 1978
L 1159 0
L 581 0
L 581 3500
L 1159 3500
L 1159 2956
Q 1366 3272 1645 3428
Q 1925 3584 2291 3584
Q 2894 3584 3203 3211
Q 3513 2838 3513 2113
z
" transform="scale(0.015625)"/>
       </defs>
       <use xlink:href="#DejaVuSans-42"/>
       <use xlink:href="#DejaVuSans-61" transform="translate(68.603516 0)"/>
       <use xlink:href="#DejaVuSans-73" transform="translate(129.882812 0)"/>
       <use xlink:href="#DejaVuSans-65" transform="translate(181.982422 0)"/>
       <use xlink:href="#DejaVuSans-6c" transform="translate(243.505859 0)"/>
       <use xlink:href="#DejaVuSans-69" transform="translate(271.289062 0)"/>
       <use xlink:href="#DejaVuSans-6e" transform="translate(299.072266 0)"/>
       <use xlink:href="#DejaVuSans-65" transform="translate(362.451172 0)"/>
      </g>
      <!-- (ERM) -->
      <g style="fill: #262626" transform="translate(104.402905 416.347875) scale(0.11 -0.11)">
       <defs>
        <path id="DejaVuSans-28" d="M 1984 4856
Q 1566 4138 1362 3434
Q 1159 2731 1159 2009
Q 1159 1288 1364 580
Q 1569 -128 1984 -844
L 1484 -844
Q 1016 -109 783 600
Q 550 1309 550 2009
Q 550 2706 781 3412
Q 1013 4119 1484 4856
L 1984 4856
z
" transform="scale(0.015625)"/>
        <path id="DejaVuSans-45" d="M 628 4666
L 3578 4666
L 3578 4134
L 1259 4134
L 1259 2753
L 3481 2753
L 3481 2222
L 1259 2222
L 1259 531
L 3634 531
L 3634 0
L 628 0
L 628 4666
z
" transform="scale(0.015625)"/>
        <path id="DejaVuSans-52" d="M 2841 2188
Q 3044 2119 3236 1894
Q 3428 1669 3622 1275
L 4263 0
L 3584 0
L 2988 1197
Q 2756 1666 2539 1819
Q 2322 1972 1947 1972
L 1259 1972
L 1259 0
L 628 0
L 628 4666
L 2053 4666
Q 2853 4666 3247 4331
Q 3641 3997 3641 3322
Q 3641 2881 3436 2590
Q 3231 2300 2841 2188
z
M 1259 4147
L 1259 2491
L 2053 2491
Q 2509 2491 2742 2702
Q 2975 2913 2975 3322
Q 2975 3731 2742 3939
Q 2509 4147 2053 4147
L 1259 4147
z
" transform="scale(0.015625)"/>
        <path id="DejaVuSans-4d" d="M 628 4666
L 1569 4666
L 2759 1491
L 3956 4666
L 4897 4666
L 4897 0
L 4281 0
L 4281 4097
L 3078 897
L 2444 897
L 1241 4097
L 1241 0
L 628 0
L 628 4666
z
" transform="scale(0.015625)"/>
        <path id="DejaVuSans-29" d="M 513 4856
L 1013 4856
Q 1481 4119 1714 3412
Q 1947 2706 1947 2009
Q 1947 1309 1714 600
Q 1481 -109 1013 -844
L 513 -844
Q 928 -128 1133 580
Q 1338 1288 1338 2009
Q 1338 2731 1133 3434
Q 928 4138 513 4856
z
" transform="scale(0.015625)"/>
       </defs>
       <use xlink:href="#DejaVuSans-28"/>
       <use xlink:href="#DejaVuSans-45" transform="translate(39.013672 0)"/>
       <use xlink:href="#DejaVuSans-52" transform="translate(102.197266 0)"/>
       <use xlink:href="#DejaVuSans-4d" transform="translate(171.679688 0)"/>
       <use xlink:href="#DejaVuSans-29" transform="translate(257.958984 0)"/>
      </g>
     </g>
    </g>
    <g id="xtick_2">
     <g id="line2d_3">
      <path d="M 272.133017 392.172
L 272.133017 70.08
" clip-path="url(#pc28938e75b)" style="fill: none; stroke: #cccccc; stroke-width: 0.8; stroke-linecap: round"/>
     </g>
     <g id="line2d_4"/>
     <g id="text_2">
      <!-- TRADES -->
      <g style="fill: #262626" transform="translate(250.207782 404.030281) scale(0.11 -0.11)">
       <defs>
        <path id="DejaVuSans-54" d="M -19 4666
L 3928 4666
L 3928 4134
L 2272 4134
L 2272 0
L 1638 0
L 1638 4134
L -19 4134
L -19 4666
z
" transform="scale(0.015625)"/>
        <path id="DejaVuSans-41" d="M 2188 4044
L 1331 1722
L 3047 1722
L 2188 4044
z
M 1831 4666
L 2547 4666
L 4325 0
L 3669 0
L 3244 1197
L 1141 1197
L 716 0
L 50 0
L 1831 4666
z
" transform="scale(0.015625)"/>
        <path id="DejaVuSans-44" d="M 1259 4147
L 1259 519
L 2022 519
Q 2988 519 3436 956
Q 3884 1394 3884 2338
Q 3884 3275 3436 3711
Q 2988 4147 2022 4147
L 1259 4147
z
M 628 4666
L 1925 4666
Q 3281 4666 3915 4102
Q 4550 3538 4550 2338
Q 4550 1131 3912 565
Q 3275 0 1925 0
L 628 0
L 628 4666
z
" transform="scale(0.015625)"/>
        <path id="DejaVuSans-53" d="M 3425 4513
L 3425 3897
Q 3066 4069 2747 4153
Q 2428 4238 2131 4238
Q 1616 4238 1336 4038
Q 1056 3838 1056 3469
Q 1056 3159 1242 3001
Q 1428 2844 1947 2747
L 2328 2669
Q 3034 2534 3370 2195
Q 3706 1856 3706 1288
Q 3706 609 3251 259
Q 2797 -91 1919 -91
Q 1588 -91 1214 -16
Q 841 59 441 206
L 441 856
Q 825 641 1194 531
Q 1563 422 1919 422
Q 2459 422 2753 634
Q 3047 847 3047 1241
Q 3047 1584 2836 1778
Q 2625 1972 2144 2069
L 1759 2144
Q 1053 2284 737 2584
Q 422 2884 422 3419
Q 422 4038 858 4394
Q 1294 4750 2059 4750
Q 2388 4750 2728 4690
Q 3069 4631 3425 4513
z
" transform="scale(0.015625)"/>
       </defs>
       <use xlink:href="#DejaVuSans-54"/>
       <use xlink:href="#DejaVuSans-52" transform="translate(61.083984 0)"/>
       <use xlink:href="#DejaVuSans-41" transform="translate(126.566406 0)"/>
       <use xlink:href="#DejaVuSans-44" transform="translate(194.974609 0)"/>
       <use xlink:href="#DejaVuSans-45" transform="translate(271.976562 0)"/>
       <use xlink:href="#DejaVuSans-53" transform="translate(335.160156 0)"/>
      </g>
     </g>
    </g>
    <g id="xtick_3">
     <g id="line2d_5">
      <path d="M 423.528987 392.172
L 423.528987 70.08
" clip-path="url(#pc28938e75b)" style="fill: none; stroke: #cccccc; stroke-width: 0.8; stroke-linecap: round"/>
     </g>
     <g id="line2d_6"/>
     <g id="text_3">
      <!-- Tri-Objective -->
      <g style="fill: #262626" transform="translate(388.975237 404.030281) scale(0.11 -0.11)">
       <defs>
        <path id="DejaVuSans-72" d="M 2631 2963
Q 2534 3019 2420 3045
Q 2306 3072 2169 3072
Q 1681 3072 1420 2755
Q 1159 2438 1159 1844
L 1159 0
L 581 0
L 581 3500
L 1159 3500
L 1159 2956
Q 1341 3275 1631 3429
Q 1922 3584 2338 3584
Q 2397 3584 2469 3576
Q 2541 3569 2628 3553
L 2631 2963
z
" transform="scale(0.015625)"/>
        <path id="DejaVuSans-2d" d="M 313 2009
L 1997 2009
L 1997 1497
L 313 1497
L 313 2009
z
" transform="scale(0.015625)"/>
        <path id="DejaVuSans-4f" d="M 2522 4238
Q 1834 4238 1429 3725
Q 1025 3213 1025 2328
Q 1025 1447 1429 934
Q 1834 422 2522 422
Q 3209 422 3611 934
Q 4013 1447 4013 2328
Q 4013 3213 3611 3725
Q 3209 4238 2522 4238
z
M 2522 4750
Q 3503 4750 4090 4092
Q 4678 3434 4678 2328
Q 4678 1225 4090 567
Q 3503 -91 2522 -91
Q 1538 -91 948 565
Q 359 1222 359 2328
Q 359 3434 948 4092
Q 1538 4750 2522 4750
z
" transform="scale(0.015625)"/>
        <path id="DejaVuSans-62" d="M 3116 1747
Q 3116 2381 2855 2742
Q 2594 3103 2138 3103
Q 1681 3103 1420 2742
Q 1159 2381 1159 1747
Q 1159 1113 1420 752
Q 1681 391 2138 391
Q 2594 391 2855 752
Q 3116 1113 3116 1747
z
M 1159 2969
Q 1341 3281 1617 3432
Q 1894 3584 2278 3584
Q 2916 3584 3314 3078
Q 3713 2572 3713 1747
Q 3713 922 3314 415
Q 2916 -91 2278 -91
Q 1894 -91 1617 61
Q 1341 213 1159 525
L 1159 0
L 581 0
L 581 4863
L 1159 4863
L 1159 2969
z
" transform="scale(0.015625)"/>
        <path id="DejaVuSans-6a" d="M 603 3500
L 1178 3500
L 1178 -63
Q 1178 -731 923 -1031
Q 669 -1331 103 -1331
L -116 -1331
L -116 -844
L 38 -844
Q 366 -844 484 -692
Q 603 -541 603 -63
L 603 3500
z
M 603 4863
L 1178 4863
L 1178 4134
L 603 4134
L 603 4863
z
" transform="scale(0.015625)"/>
        <path id="DejaVuSans-63" d="M 3122 3366
L 3122 2828
Q 2878 2963 2633 3030
Q 2388 3097 2138 3097
Q 1578 3097 1268 2742
Q 959 2388 959 1747
Q 959 1106 1268 751
Q 1578 397 2138 397
Q 2388 397 2633 464
Q 2878 531 3122 666
L 3122 134
Q 2881 22 2623 -34
Q 2366 -91 2075 -91
Q 1284 -91 818 406
Q 353 903 353 1747
Q 353 2603 823 3093
Q 1294 3584 2113 3584
Q 2378 3584 2631 3529
Q 2884 3475 3122 3366
z
" transform="scale(0.015625)"/>
        <path id="DejaVuSans-74" d="M 1172 4494
L 1172 3500
L 2356 3500
L 2356 3053
L 1172 3053
L 1172 1153
Q 1172 725 1289 603
Q 1406 481 1766 481
L 2356 481
L 2356 0
L 1766 0
Q 1100 0 847 248
Q 594 497 594 1153
L 594 3053
L 172 3053
L 172 3500
L 594 3500
L 594 4494
L 1172 4494
z
" transform="scale(0.015625)"/>
        <path id="DejaVuSans-76" d="M 191 3500
L 800 3500
L 1894 563
L 2988 3500
L 3597 3500
L 2284 0
L 1503 0
L 191 3500
z
" transform="scale(0.015625)"/>
       </defs>
       <use xlink:href="#DejaVuSans-54"/>
       <use xlink:href="#DejaVuSans-72" transform="translate(46.333984 0)"/>
       <use xlink:href="#DejaVuSans-69" transform="translate(87.447266 0)"/>
       <use xlink:href="#DejaVuSans-2d" transform="translate(115.230469 0)"/>
       <use xlink:href="#DejaVuSans-4f" transform="translate(154.064453 0)"/>
       <use xlink:href="#DejaVuSans-62" transform="translate(232.775391 0)"/>
       <use xlink:href="#DejaVuSans-6a" transform="translate(296.251953 0)"/>
       <use xlink:href="#DejaVuSans-65" transform="translate(324.035156 0)"/>
       <use xlink:href="#DejaVuSans-63" transform="translate(385.558594 0)"/>
       <use xlink:href="#DejaVuSans-74" transform="translate(440.539062 0)"/>
       <use xlink:href="#DejaVuSans-69" transform="translate(479.748047 0)"/>
       <use xlink:href="#DejaVuSans-76" transform="translate(507.53125 0)"/>
       <use xlink:href="#DejaVuSans-65" transform="translate(566.710938 0)"/>
      </g>
      <!-- (Ours) -->
      <g style="fill: #262626" transform="translate(406.29594 416.347875) scale(0.11 -0.11)">
       <defs>
        <path id="DejaVuSans-75" d="M 544 1381
L 544 3500
L 1119 3500
L 1119 1403
Q 1119 906 1312 657
Q 1506 409 1894 409
Q 2359 409 2629 706
Q 2900 1003 2900 1516
L 2900 3500
L 3475 3500
L 3475 0
L 2900 0
L 2900 538
Q 2691 219 2414 64
Q 2138 -91 1772 -91
Q 1169 -91 856 284
Q 544 659 544 1381
z
M 1991 3584
L 1991 3584
z
" transform="scale(0.015625)"/>
       </defs>
       <use xlink:href="#DejaVuSans-28"/>
       <use xlink:href="#DejaVuSans-4f" transform="translate(39.013672 0)"/>
       <use xlink:href="#DejaVuSans-75" transform="translate(117.724609 0)"/>
       <use xlink:href="#DejaVuSans-72" transform="translate(181.103516 0)"/>
       <use xlink:href="#DejaVuSans-73" transform="translate(222.216797 0)"/>
       <use xlink:href="#DejaVuSans-29" transform="translate(274.316406 0)"/>
      </g>
     </g>
    </g>
    <g id="text_4">
     <!-- Training Approach -->
     <g style="fill: #262626" transform="translate(218.051454 431.753656) scale(0.12 -0.12)">
      <defs>
       <path id="DejaVuSans-67" d="M 2906 1791
Q 2906 2416 2648 2759
Q 2391 3103 1925 3103
Q 1463 3103 1205 2759
Q 947 2416 947 1791
Q 947 1169 1205 825
Q 1463 481 1925 481
Q 2391 481 2648 825
Q 2906 1169 2906 1791
z
M 3481 434
Q 3481 -459 3084 -895
Q 2688 -1331 1869 -1331
Q 1566 -1331 1297 -1286
Q 1028 -1241 775 -1147
L 775 -588
Q 1028 -725 1275 -790
Q 1522 -856 1778 -856
Q 2344 -856 2625 -561
Q 2906 -266 2906 331
L 2906 616
Q 2728 306 2450 153
Q 2172 0 1784 0
Q 1141 0 747 490
Q 353 981 353 1791
Q 353 2603 747 3093
Q 1141 3584 1784 3584
Q 2172 3584 2450 3431
Q 2728 3278 2906 2969
L 2906 3500
L 3481 3500
L 3481 434
z
" transform="scale(0.015625)"/>
       <path id="DejaVuSans-20" transform="scale(0.015625)"/>
       <path id="DejaVuSans-70" d="M 1159 525
L 1159 -1331
L 581 -1331
L 581 3500
L 1159 3500
L 1159 2969
Q 1341 3281 1617 3432
Q 1894 3584 2278 3584
Q 2916 3584 3314 3078
Q 3713 2572 3713 1747
Q 3713 922 3314 415
Q 2916 -91 2278 -91
Q 1894 -91 1617 61
Q 1341 213 1159 525
z
M 3116 1747
Q 3116 2381 2855 2742
Q 2594 3103 2138 3103
Q 1681 3103 1420 2742
Q 1159 2381 1159 1747
Q 1159 1113 1420 752
Q 1681 391 2138 391
Q 2594 391 2855 752
Q 3116 1113 3116 1747
z
" transform="scale(0.015625)"/>
       <path id="DejaVuSans-6f" d="M 1959 3097
Q 1497 3097 1228 2736
Q 959 2375 959 1747
Q 959 1119 1226 758
Q 1494 397 1959 397
Q 2419 397 2687 759
Q 2956 1122 2956 1747
Q 2956 2369 2687 2733
Q 2419 3097 1959 3097
z
M 1959 3584
Q 2709 3584 3137 3096
Q 3566 2609 3566 1747
Q 3566 888 3137 398
Q 2709 -91 1959 -91
Q 1206 -91 779 398
Q 353 888 353 1747
Q 353 2609 779 3096
Q 1206 3584 1959 3584
z
" transform="scale(0.015625)"/>
       <path id="DejaVuSans-68" d="M 3513 2113
L 3513 0
L 2938 0
L 2938 2094
Q 2938 2591 2744 2837
Q 2550 3084 2163 3084
Q 1697 3084 1428 2787
Q 1159 2491 1159 1978
L 1159 0
L 581 0
L 581 4863
L 1159 4863
L 1159 2956
Q 1366 3272 1645 3428
Q 1925 3584 2291 3584
Q 2894 3584 3203 3211
Q 3513 2838 3513 2113
z
" transform="scale(0.015625)"/>
      </defs>
      <use xlink:href="#DejaVuSans-54"/>
      <use xlink:href="#DejaVuSans-72" transform="translate(46.333984 0)"/>
      <use xlink:href="#DejaVuSans-61" transform="translate(87.447266 0)"/>
      <use xlink:href="#DejaVuSans-69" transform="translate(148.726562 0)"/>
      <use xlink:href="#DejaVuSans-6e" transform="translate(176.509766 0)"/>
      <use xlink:href="#DejaVuSans-69" transform="translate(239.888672 0)"/>
      <use xlink:href="#DejaVuSans-6e" transform="translate(267.671875 0)"/>
      <use xlink:href="#DejaVuSans-67" transform="translate(331.050781 0)"/>
      <use xlink:href="#DejaVuSans-20" transform="translate(394.527344 0)"/>
      <use xlink:href="#DejaVuSans-41" transform="translate(426.314453 0)"/>
      <use xlink:href="#DejaVuSans-70" transform="translate(494.722656 0)"/>
      <use xlink:href="#DejaVuSans-70" transform="translate(558.199219 0)"/>
      <use xlink:href="#DejaVuSans-72" transform="translate(621.675781 0)"/>
      <use xlink:href="#DejaVuSans-6f" transform="translate(660.539062 0)"/>
      <use xlink:href="#DejaVuSans-61" transform="translate(721.720703 0)"/>
      <use xlink:href="#DejaVuSans-63" transform="translate(783 0)"/>
      <use xlink:href="#DejaVuSans-68" transform="translate(837.980469 0)"/>
     </g>
    </g>
   </g>
   <g id="matplotlib.axis_2">
    <g id="ytick_1">
     <g id="line2d_7">
      <path d="M 47.31 392.172
L 496.956033 392.172
" clip-path="url(#pc28938e75b)" style="fill: none; stroke: #cccccc; stroke-opacity: 0.3; stroke-width: 0.8; stroke-linecap: round"/>
     </g>
     <g id="line2d_8"/>
     <g id="text_5">
      <!-- 0 -->
      <g style="fill: #262626" transform="translate(36.81125 396.351141) scale(0.11 -0.11)">
       <defs>
        <path id="DejaVuSans-30" d="M 2034 4250
Q 1547 4250 1301 3770
Q 1056 3291 1056 2328
Q 1056 1369 1301 889
Q 1547 409 2034 409
Q 2525 409 2770 889
Q 3016 1369 3016 2328
Q 3016 3291 2770 3770
Q 2525 4250 2034 4250
z
M 2034 4750
Q 2819 4750 3233 4129
Q 3647 3509 3647 2328
Q 3647 1150 3233 529
Q 2819 -91 2034 -91
Q 1250 -91 836 529
Q 422 1150 422 2328
Q 422 3509 836 4129
Q 1250 4750 2034 4750
z
" transform="scale(0.015625)"/>
       </defs>
       <use xlink:href="#DejaVuSans-30"/>
      </g>
     </g>
    </g>
    <g id="ytick_2">
     <g id="line2d_9">
      <path d="M 47.31 327.7536
L 496.956033 327.7536
" clip-path="url(#pc28938e75b)" style="fill: none; stroke: #cccccc; stroke-opacity: 0.3; stroke-width: 0.8; stroke-linecap: round"/>
     </g>
     <g id="line2d_10"/>
     <g id="text_6">
      <!-- 20 -->
      <g style="fill: #262626" transform="translate(29.8125 331.932741) scale(0.11 -0.11)">
       <defs>
        <path id="DejaVuSans-32" d="M 1228 531
L 3431 531
L 3431 0
L 469 0
L 469 531
Q 828 903 1448 1529
Q 2069 2156 2228 2338
Q 2531 2678 2651 2914
Q 2772 3150 2772 3378
Q 2772 3750 2511 3984
Q 2250 4219 1831 4219
Q 1534 4219 1204 4116
Q 875 4013 500 3803
L 500 4441
Q 881 4594 1212 4672
Q 1544 4750 1819 4750
Q 2544 4750 2975 4387
Q 3406 4025 3406 3419
Q 3406 3131 3298 2873
Q 3191 2616 2906 2266
Q 2828 2175 2409 1742
Q 1991 1309 1228 531
z
" transform="scale(0.015625)"/>
       </defs>
       <use xlink:href="#DejaVuSans-32"/>
       <use xlink:href="#DejaVuSans-30" transform="translate(63.623047 0)"/>
      </g>
     </g>
    </g>
    <g id="ytick_3">
     <g id="line2d_11">
      <path d="M 47.31 263.3352
L 496.956033 263.3352
" clip-path="url(#pc28938e75b)" style="fill: none; stroke: #cccccc; stroke-opacity: 0.3; stroke-width: 0.8; stroke-linecap: round"/>
     </g>
     <g id="line2d_12"/>
     <g id="text_7">
      <!-- 40 -->
      <g style="fill: #262626" transform="translate(29.8125 267.514341) scale(0.11 -0.11)">
       <defs>
        <path id="DejaVuSans-34" d="M 2419 4116
L 825 1625
L 2419 1625
L 2419 4116
z
M 2253 4666
L 3047 4666
L 3047 1625
L 3713 1625
L 3713 1100
L 3047 1100
L 3047 0
L 2419 0
L 2419 1100
L 313 1100
L 313 1709
L 2253 4666
z
" transform="scale(0.015625)"/>
       </defs>
       <use xlink:href="#DejaVuSans-34"/>
       <use xlink:href="#DejaVuSans-30" transform="translate(63.623047 0)"/>
      </g>
     </g>
    </g>
    <g id="ytick_4">
     <g id="line2d_13">
      <path d="M 47.31 198.9168
L 496.956033 198.9168
" clip-path="url(#pc28938e75b)" style="fill: none; stroke: #cccccc; stroke-opacity: 0.3; stroke-width: 0.8; stroke-linecap: round"/>
     </g>
     <g id="line2d_14"/>
     <g id="text_8">
      <!-- 60 -->
      <g style="fill: #262626" transform="translate(29.8125 203.095941) scale(0.11 -0.11)">
       <defs>
        <path id="DejaVuSans-36" d="M 2113 2584
Q 1688 2584 1439 2293
Q 1191 2003 1191 1497
Q 1191 994 1439 701
Q 1688 409 2113 409
Q 2538 409 2786 701
Q 3034 994 3034 1497
Q 3034 2003 2786 2293
Q 2538 2584 2113 2584
z
M 3366 4563
L 3366 3988
Q 3128 4100 2886 4159
Q 2644 4219 2406 4219
Q 1781 4219 1451 3797
Q 1122 3375 1075 2522
Q 1259 2794 1537 2939
Q 1816 3084 2150 3084
Q 2853 3084 3261 2657
Q 3669 2231 3669 1497
Q 3669 778 3244 343
Q 2819 -91 2113 -91
Q 1303 -91 875 529
Q 447 1150 447 2328
Q 447 3434 972 4092
Q 1497 4750 2381 4750
Q 2619 4750 2861 4703
Q 3103 4656 3366 4563
z
" transform="scale(0.015625)"/>
       </defs>
       <use xlink:href="#DejaVuSans-36"/>
       <use xlink:href="#DejaVuSans-30" transform="translate(63.623047 0)"/>
      </g>
     </g>
    </g>
    <g id="ytick_5">
     <g id="line2d_15">
      <path d="M 47.31 134.4984
L 496.956033 134.4984
" clip-path="url(#pc28938e75b)" style="fill: none; stroke: #cccccc; stroke-opacity: 0.3; stroke-width: 0.8; stroke-linecap: round"/>
     </g>
     <g id="line2d_16"/>
     <g id="text_9">
      <!-- 80 -->
      <g style="fill: #262626" transform="translate(29.8125 138.677541) scale(0.11 -0.11)">
       <defs>
        <path id="DejaVuSans-38" d="M 2034 2216
Q 1584 2216 1326 1975
Q 1069 1734 1069 1313
Q 1069 891 1326 650
Q 1584 409 2034 409
Q 2484 409 2743 651
Q 3003 894 3003 1313
Q 3003 1734 2745 1975
Q 2488 2216 2034 2216
z
M 1403 2484
Q 997 2584 770 2862
Q 544 3141 544 3541
Q 544 4100 942 4425
Q 1341 4750 2034 4750
Q 2731 4750 3128 4425
Q 3525 4100 3525 3541
Q 3525 3141 3298 2862
Q 3072 2584 2669 2484
Q 3125 2378 3379 2068
Q 3634 1759 3634 1313
Q 3634 634 3220 271
Q 2806 -91 2034 -91
Q 1263 -91 848 271
Q 434 634 434 1313
Q 434 1759 690 2068
Q 947 2378 1403 2484
z
M 1172 3481
Q 1172 3119 1398 2916
Q 1625 2713 2034 2713
Q 2441 2713 2670 2916
Q 2900 3119 2900 3481
Q 2900 3844 2670 4047
Q 2441 4250 2034 4250
Q 1625 4250 1398 4047
Q 1172 3844 1172 3481
z
" transform="scale(0.015625)"/>
       </defs>
       <use xlink:href="#DejaVuSans-38"/>
       <use xlink:href="#DejaVuSans-30" transform="translate(63.623047 0)"/>
      </g>
     </g>
    </g>
    <g id="ytick_6">
     <g id="line2d_17">
      <path d="M 47.31 70.08
L 496.956033 70.08
" clip-path="url(#pc28938e75b)" style="fill: none; stroke: #cccccc; stroke-opacity: 0.3; stroke-width: 0.8; stroke-linecap: round"/>
     </g>
     <g id="line2d_18"/>
     <g id="text_10">
      <!-- 100 -->
      <g style="fill: #262626" transform="translate(22.81375 74.259141) scale(0.11 -0.11)">
       <defs>
        <path id="DejaVuSans-31" d="M 794 531
L 1825 531
L 1825 4091
L 703 3866
L 703 4441
L 1819 4666
L 2450 4666
L 2450 531
L 3481 531
L 3481 0
L 794 0
L 794 531
z
" transform="scale(0.015625)"/>
       </defs>
       <use xlink:href="#DejaVuSans-31"/>
       <use xlink:href="#DejaVuSans-30" transform="translate(63.623047 0)"/>
       <use xlink:href="#DejaVuSans-30" transform="translate(127.246094 0)"/>
      </g>
     </g>
    </g>
    <g id="text_11">
     <!-- Accuracy (%) -->
     <g style="fill: #262626" transform="translate(16.318125 270.809437) rotate(-90) scale(0.12 -0.12)">
      <defs>
       <path id="DejaVuSans-79" d="M 2059 -325
Q 1816 -950 1584 -1140
Q 1353 -1331 966 -1331
L 506 -1331
L 506 -850
L 844 -850
Q 1081 -850 1212 -737
Q 1344 -625 1503 -206
L 1606 56
L 191 3500
L 800 3500
L 1894 763
L 2988 3500
L 3597 3500
L 2059 -325
z
" transform="scale(0.015625)"/>
       <path id="DejaVuSans-25" d="M 4653 2053
Q 4381 2053 4226 1822
Q 4072 1591 4072 1178
Q 4072 772 4226 539
Q 4381 306 4653 306
Q 4919 306 5073 539
Q 5228 772 5228 1178
Q 5228 1588 5073 1820
Q 4919 2053 4653 2053
z
M 4653 2450
Q 5147 2450 5437 2106
Q 5728 1763 5728 1178
Q 5728 594 5436 251
Q 5144 -91 4653 -91
Q 4153 -91 3862 251
Q 3572 594 3572 1178
Q 3572 1766 3864 2108
Q 4156 2450 4653 2450
z
M 1428 4353
Q 1159 4353 1004 4120
Q 850 3888 850 3481
Q 850 3069 1003 2837
Q 1156 2606 1428 2606
Q 1700 2606 1854 2837
Q 2009 3069 2009 3481
Q 2009 3884 1853 4118
Q 1697 4353 1428 4353
z
M 4250 4750
L 4750 4750
L 1831 -91
L 1331 -91
L 4250 4750
z
M 1428 4750
Q 1922 4750 2215 4408
Q 2509 4066 2509 3481
Q 2509 2891 2217 2550
Q 1925 2209 1428 2209
Q 931 2209 642 2551
Q 353 2894 353 3481
Q 353 4063 643 4406
Q 934 4750 1428 4750
z
" transform="scale(0.015625)"/>
      </defs>
      <use xlink:href="#DejaVuSans-41"/>
      <use xlink:href="#DejaVuSans-63" transform="translate(66.658203 0)"/>
      <use xlink:href="#DejaVuSans-63" transform="translate(121.638672 0)"/>
      <use xlink:href="#DejaVuSans-75" transform="translate(176.619141 0)"/>
      <use xlink:href="#DejaVuSans-72" transform="translate(239.998047 0)"/>
      <use xlink:href="#DejaVuSans-61" transform="translate(281.111328 0)"/>
      <use xlink:href="#DejaVuSans-63" transform="translate(342.390625 0)"/>
      <use xlink:href="#DejaVuSans-79" transform="translate(397.371094 0)"/>
      <use xlink:href="#DejaVuSans-20" transform="translate(456.550781 0)"/>
      <use xlink:href="#DejaVuSans-28" transform="translate(488.337891 0)"/>
      <use xlink:href="#DejaVuSans-25" transform="translate(527.351562 0)"/>
      <use xlink:href="#DejaVuSans-29" transform="translate(622.371094 0)"/>
     </g>
    </g>
   </g>
   <g id="patch_3">
    <path d="M 67.748456 392.172
L 120.737046 392.172
L 120.737046 124.610176
L 67.748456 124.610176
z
" clip-path="url(#pc28938e75b)" style="fill: #2ecc71; opacity: 0.9; stroke: #000000; stroke-linejoin: miter"/>
   </g>
   <g id="patch_4">
    <path d="M 219.144427 392.172
L 272.133017 392.172
L 272.133017 192.797052
L 219.144427 192.797052
z
" clip-path="url(#pc28938e75b)" style="fill: #3498db; opacity: 0.9; stroke: #000000; stroke-linejoin: miter"/>
   </g>
   <g id="patch_5">
    <path d="M 370.540398 392.172
L 423.528987 392.172
L 423.528987 147.76859
L 370.540398 147.76859
z
" clip-path="url(#pc28938e75b)" style="fill: #9b59b6; opacity: 0.9; stroke: #000000; stroke-linejoin: miter"/>
   </g>
   <g id="patch_6">
    <path d="M 120.737046 392.172
L 173.725636 392.172
L 173.725636 391.237933
L 120.737046 391.237933
z
" clip-path="url(#pc28938e75b)" style="fill: url(#h61dde22a05); opacity: 0.4; stroke: #000000; stroke-linejoin: miter"/>
   </g>
   <g id="patch_7">
    <path d="M 272.133017 392.172
L 325.121606 392.172
L 325.121606 214.022915
L 272.133017 214.022915
z
" clip-path="url(#pc28938e75b)" style="fill: url(#h1942d72f9a); opacity: 0.4; stroke: #000000; stroke-linejoin: miter"/>
   </g>
   <g id="patch_8">
    <path d="M 423.528987 392.172
L 476.517577 392.172
L 476.517577 387.566084
L 423.528987 387.566084
z
" clip-path="url(#pc28938e75b)" style="fill: url(#h63f7109ef5); opacity: 0.4; stroke: #000000; stroke-linejoin: miter"/>
   </g>
   <g id="LineCollection_1">
    <path d="M 94.242751 128.44307
L 94.242751 120.777281
" clip-path="url(#pc28938e75b)" style="fill: none; stroke: #000000; stroke-width: 1.5"/>
    <path d="M 245.638722 195.019487
L 245.638722 190.574617
" clip-path="url(#pc28938e75b)" style="fill: none; stroke: #000000; stroke-width: 1.5"/>
    <path d="M 397.034692 149.185795
L 397.034692 146.351386
" clip-path="url(#pc28938e75b)" style="fill: none; stroke: #000000; stroke-width: 1.5"/>
   </g>
   <g id="line2d_19">
    <defs>
     <path id="mc5a0610e4e" d="M 5 0
L -5 -0
" style="stroke: #000000"/>
    </defs>
    <g clip-path="url(#pc28938e75b)">
     <use xlink:href="#mc5a0610e4e" x="94.242751" y="128.44307" style="stroke: #000000"/>
     <use xlink:href="#mc5a0610e4e" x="245.638722" y="195.019487" style="stroke: #000000"/>
     <use xlink:href="#mc5a0610e4e" x="397.034692" y="149.185795" style="stroke: #000000"/>
    </g>
   </g>
   <g id="line2d_20">
    <g clip-path="url(#pc28938e75b)">
     <use xlink:href="#mc5a0610e4e" x="94.242751" y="120.777281" style="stroke: #000000"/>
     <use xlink:href="#mc5a0610e4e" x="245.638722" y="190.574617" style="stroke: #000000"/>
     <use xlink:href="#mc5a0610e4e" x="397.034692" y="146.351386" style="stroke: #000000"/>
    </g>
   </g>
   <g id="LineCollection_2">
    <path d="M 147.231341 392.461883
L 147.231341 390.013984
" clip-path="url(#pc28938e75b)" style="fill: none; stroke: #000000; stroke-width: 1.5"/>
    <path d="M 298.627311 231.866812
L 298.627311 196.179018
" clip-path="url(#pc28938e75b)" style="fill: none; stroke: #000000; stroke-width: 1.5"/>
    <path d="M 450.023282 389.852938
L 450.023282 385.279231
" clip-path="url(#pc28938e75b)" style="fill: none; stroke: #000000; stroke-width: 1.5"/>
   </g>
   <g id="line2d_21">
    <g clip-path="url(#pc28938e75b)">
     <use xlink:href="#mc5a0610e4e" x="147.231341" y="392.461883" style="stroke: #000000"/>
     <use xlink:href="#mc5a0610e4e" x="298.627311" y="231.866812" style="stroke: #000000"/>
     <use xlink:href="#mc5a0610e4e" x="450.023282" y="389.852938" style="stroke: #000000"/>
    </g>
   </g>
   <g id="line2d_22">
    <g clip-path="url(#pc28938e75b)">
     <use xlink:href="#mc5a0610e4e" x="147.231341" y="390.013984" style="stroke: #000000"/>
     <use xlink:href="#mc5a0610e4e" x="298.627311" y="196.179018" style="stroke: #000000"/>
     <use xlink:href="#mc5a0610e4e" x="450.023282" y="385.279231" style="stroke: #000000"/>
    </g>
   </g>
   <g id="line2d_23">
    <path d="M 47.31 311.649
L 496.956033 311.649
" clip-path="url(#pc28938e75b)" style="fill: none; stroke-dasharray: 5.55,2.4; stroke-dashoffset: 0; stroke: #ff0000; stroke-opacity: 0.7; stroke-width: 1.5"/>
   </g>
   <g id="patch_9">
    <path d="M 47.31 392.172
L 47.31 70.08
" style="fill: none; stroke: #cccccc; stroke-linejoin: miter; stroke-linecap: square"/>
   </g>
   <g id="patch_10">
    <path d="M 496.956033 392.172
L 496.956033 70.08
" style="fill: none; stroke: #cccccc; stroke-linejoin: miter; stroke-linecap: square"/>
   </g>
   <g id="patch_11">
    <path d="M 47.31 392.172
L 496.956033 392.172
" style="fill: none; stroke: #cccccc; stroke-linejoin: miter; stroke-linecap: square"/>
   </g>
   <g id="patch_12">
    <path d="M 47.31 70.08
L 496.956033 70.08
" style="fill: none; stroke: #cccccc; stroke-linejoin: miter; stroke-linecap: square"/>
   </g>
   <g id="text_12">
    <!-- 83.1% -->
    <g style="fill: #262626" transform="translate(79.947517 116.296617) scale(0.09 -0.09)">
     <defs>
      <path id="DejaVuSans-33" d="M 2597 2516
Q 3050 2419 3304 2112
Q 3559 1806 3559 1356
Q 3559 666 3084 287
Q 2609 -91 1734 -91
Q 1441 -91 1130 -33
Q 819 25 488 141
L 488 750
Q 750 597 1062 519
Q 1375 441 1716 441
Q 2309 441 2620 675
Q 2931 909 2931 1356
Q 2931 1769 2642 2001
Q 2353 2234 1838 2234
L 1294 2234
L 1294 2753
L 1863 2753
Q 2328 2753 2575 2939
Q 2822 3125 2822 3475
Q 2822 3834 2567 4026
Q 2313 4219 1838 4219
Q 1578 4219 1281 4162
Q 984 4106 628 3988
L 628 4550
Q 988 4650 1302 4700
Q 1616 4750 1894 4750
Q 2613 4750 3031 4423
Q 3450 4097 3450 3541
Q 3450 3153 3228 2886
Q 3006 2619 2597 2516
z
" transform="scale(0.015625)"/>
      <path id="DejaVuSans-2e" d="M 684 794
L 1344 794
L 1344 0
L 684 0
L 684 794
z
" transform="scale(0.015625)"/>
     </defs>
     <use xlink:href="#DejaVuSans-38"/>
     <use xlink:href="#DejaVuSans-33" transform="translate(63.623047 0)"/>
     <use xlink:href="#DejaVuSans-2e" transform="translate(127.246094 0)"/>
     <use xlink:href="#DejaVuSans-31" transform="translate(159.033203 0)"/>
     <use xlink:href="#DejaVuSans-25" transform="translate(222.65625 0)"/>
    </g>
   </g>
   <g id="text_13">
    <!-- 0.3% -->
    <g style="fill: #262626" transform="translate(135.799231 382.924374) scale(0.09 -0.09)">
     <use xlink:href="#DejaVuSans-30"/>
     <use xlink:href="#DejaVuSans-2e" transform="translate(63.623047 0)"/>
     <use xlink:href="#DejaVuSans-33" transform="translate(95.410156 0)"/>
     <use xlink:href="#DejaVuSans-25" transform="translate(159.033203 0)"/>
    </g>
   </g>
   <g id="text_14">
    <!-- 61.9% -->
    <g style="fill: #262626" transform="translate(231.343487 184.483493) scale(0.09 -0.09)">
     <defs>
      <path id="DejaVuSans-39" d="M 703 97
L 703 672
Q 941 559 1184 500
Q 1428 441 1663 441
Q 2288 441 2617 861
Q 2947 1281 2994 2138
Q 2813 1869 2534 1725
Q 2256 1581 1919 1581
Q 1219 1581 811 2004
Q 403 2428 403 3163
Q 403 3881 828 4315
Q 1253 4750 1959 4750
Q 2769 4750 3195 4129
Q 3622 3509 3622 2328
Q 3622 1225 3098 567
Q 2575 -91 1691 -91
Q 1453 -91 1209 -44
Q 966 3 703 97
z
M 1959 2075
Q 2384 2075 2632 2365
Q 2881 2656 2881 3163
Q 2881 3666 2632 3958
Q 2384 4250 1959 4250
Q 1534 4250 1286 3958
Q 1038 3666 1038 3163
Q 1038 2656 1286 2365
Q 1534 2075 1959 2075
z
" transform="scale(0.015625)"/>
     </defs>
     <use xlink:href="#DejaVuSans-36"/>
     <use xlink:href="#DejaVuSans-31" transform="translate(63.623047 0)"/>
     <use xlink:href="#DejaVuSans-2e" transform="translate(127.246094 0)"/>
     <use xlink:href="#DejaVuSans-39" transform="translate(159.033203 0)"/>
     <use xlink:href="#DejaVuSans-25" transform="translate(222.65625 0)"/>
    </g>
   </g>
   <g id="text_15">
    <!-- 55.3% -->
    <g style="fill: #262626" transform="translate(284.332077 205.709356) scale(0.09 -0.09)">
     <defs>
      <path id="DejaVuSans-35" d="M 691 4666
L 3169 4666
L 3169 4134
L 1269 4134
L 1269 2991
Q 1406 3038 1543 3061
Q 1681 3084 1819 3084
Q 2600 3084 3056 2656
Q 3513 2228 3513 1497
Q 3513 744 3044 326
Q 2575 -91 1722 -91
Q 1428 -91 1123 -41
Q 819 9 494 109
L 494 744
Q 775 591 1075 516
Q 1375 441 1709 441
Q 2250 441 2565 725
Q 2881 1009 2881 1497
Q 2881 1984 2565 2268
Q 2250 2553 1709 2553
Q 1456 2553 1204 2497
Q 953 2441 691 2322
L 691 4666
z
" transform="scale(0.015625)"/>
     </defs>
     <use xlink:href="#DejaVuSans-35"/>
     <use xlink:href="#DejaVuSans-35" transform="translate(63.623047 0)"/>
     <use xlink:href="#DejaVuSans-2e" transform="translate(127.246094 0)"/>
     <use xlink:href="#DejaVuSans-33" transform="translate(159.033203 0)"/>
     <use xlink:href="#DejaVuSans-25" transform="translate(222.65625 0)"/>
    </g>
   </g>
   <g id="text_16">
    <!-- 75.9% -->
    <g style="fill: #262626" transform="translate(382.739458 139.455032) scale(0.09 -0.09)">
     <defs>
      <path id="DejaVuSans-37" d="M 525 4666
L 3525 4666
L 3525 4397
L 1831 0
L 1172 0
L 2766 4134
L 525 4134
L 525 4666
z
" transform="scale(0.015625)"/>
     </defs>
     <use xlink:href="#DejaVuSans-37"/>
     <use xlink:href="#DejaVuSans-35" transform="translate(63.623047 0)"/>
     <use xlink:href="#DejaVuSans-2e" transform="translate(127.246094 0)"/>
     <use xlink:href="#DejaVuSans-39" transform="translate(159.033203 0)"/>
     <use xlink:href="#DejaVuSans-25" transform="translate(222.65625 0)"/>
    </g>
   </g>
   <g id="text_17">
    <!-- 1.4% -->
    <g style="fill: #262626" transform="translate(438.591173 379.252526) scale(0.09 -0.09)">
     <use xlink:href="#DejaVuSans-31"/>
     <use xlink:href="#DejaVuSans-2e" transform="translate(63.623047 0)"/>
     <use xlink:href="#DejaVuSans-34" transform="translate(95.410156 0)"/>
     <use xlink:href="#DejaVuSans-25" transform="translate(159.033203 0)"/>
    </g>
   </g>
   <g id="text_18">
    <!-- H1a threshold (25%) -->
    <g style="fill: #ff0000" transform="translate(406.089629 308.42808) scale(0.09 -0.09)">
     <defs>
      <path id="DejaVuSans-48" d="M 628 4666
L 1259 4666
L 1259 2753
L 3553 2753
L 3553 4666
L 4184 4666
L 4184 0
L 3553 0
L 3553 2222
L 1259 2222
L 1259 0
L 628 0
L 628 4666
z
" transform="scale(0.015625)"/>
      <path id="DejaVuSans-64" d="M 2906 2969
L 2906 4863
L 3481 4863
L 3481 0
L 2906 0
L 2906 525
Q 2725 213 2448 61
Q 2172 -91 1784 -91
Q 1150 -91 751 415
Q 353 922 353 1747
Q 353 2572 751 3078
Q 1150 3584 1784 3584
Q 2172 3584 2448 3432
Q 2725 3281 2906 2969
z
M 947 1747
Q 947 1113 1208 752
Q 1469 391 1925 391
Q 2381 391 2643 752
Q 2906 1113 2906 1747
Q 2906 2381 2643 2742
Q 2381 3103 1925 3103
Q 1469 3103 1208 2742
Q 947 2381 947 1747
z
" transform="scale(0.015625)"/>
     </defs>
     <use xlink:href="#DejaVuSans-48"/>
     <use xlink:href="#DejaVuSans-31" transform="translate(75.195312 0)"/>
     <use xlink:href="#DejaVuSans-61" transform="translate(138.818359 0)"/>
     <use xlink:href="#DejaVuSans-20" transform="translate(200.097656 0)"/>
     <use xlink:href="#DejaVuSans-74" transform="translate(231.884766 0)"/>
     <use xlink:href="#DejaVuSans-68" transform="translate(271.09375 0)"/>
     <use xlink:href="#DejaVuSans-72" transform="translate(334.472656 0)"/>
     <use xlink:href="#DejaVuSans-65" transform="translate(373.335938 0)"/>
     <use xlink:href="#DejaVuSans-73" transform="translate(434.859375 0)"/>
     <use xlink:href="#DejaVuSans-68" transform="translate(486.958984 0)"/>
     <use xlink:href="#DejaVuSans-6f" transform="translate(550.337891 0)"/>
     <use xlink:href="#DejaVuSans-6c" transform="translate(611.519531 0)"/>
     <use xlink:href="#DejaVuSans-64" transform="translate(639.302734 0)"/>
     <use xlink:href="#DejaVuSans-20" transform="translate(702.779297 0)"/>
     <use xlink:href="#DejaVuSans-28" transform="translate(734.566406 0)"/>
     <use xlink:href="#DejaVuSans-32" transform="translate(773.580078 0)"/>
     <use xlink:href="#DejaVuSans-35" transform="translate(837.203125 0)"/>
     <use xlink:href="#DejaVuSans-25" transform="translate(900.826172 0)"/>
     <use xlink:href="#DejaVuSans-29" transform="translate(995.845703 0)"/>
    </g>
   </g>
   <g id="text_19">
    <!-- (a) Clean vs Robust Accuracy -->
    <g style="fill: #262626" transform="translate(157.248798 64.08) scale(0.14 -0.14)">
     <defs>
      <path id="DejaVuSans-Bold-28" d="M 2413 -844
L 1484 -844
Q 1006 -72 778 623
Q 550 1319 550 2003
Q 550 2688 779 3389
Q 1009 4091 1484 4856
L 2413 4856
Q 2013 4116 1813 3408
Q 1613 2700 1613 2009
Q 1613 1319 1811 609
Q 2009 -100 2413 -844
z
" transform="scale(0.015625)"/>
      <path id="DejaVuSans-Bold-61" d="M 2106 1575
Q 1756 1575 1579 1456
Q 1403 1338 1403 1106
Q 1403 894 1545 773
Q 1688 653 1941 653
Q 2256 653 2472 879
Q 2688 1106 2688 1447
L 2688 1575
L 2106 1575
z
M 3816 1997
L 3816 0
L 2688 0
L 2688 519
Q 2463 200 2181 54
Q 1900 -91 1497 -91
Q 953 -91 614 226
Q 275 544 275 1050
Q 275 1666 698 1953
Q 1122 2241 2028 2241
L 2688 2241
L 2688 2328
Q 2688 2594 2478 2717
Q 2269 2841 1825 2841
Q 1466 2841 1156 2769
Q 847 2697 581 2553
L 581 3406
Q 941 3494 1303 3539
Q 1666 3584 2028 3584
Q 2975 3584 3395 3211
Q 3816 2838 3816 1997
z
" transform="scale(0.015625)"/>
      <path id="DejaVuSans-Bold-29" d="M 513 -844
Q 913 -100 1113 609
Q 1313 1319 1313 2009
Q 1313 2700 1113 3408
Q 913 4116 513 4856
L 1441 4856
Q 1916 4091 2145 3389
Q 2375 2688 2375 2003
Q 2375 1319 2147 623
Q 1919 -72 1441 -844
L 513 -844
z
" transform="scale(0.015625)"/>
      <path id="DejaVuSans-Bold-20" transform="scale(0.015625)"/>
      <path id="DejaVuSans-Bold-43" d="M 4288 256
Q 3956 84 3597 -3
Q 3238 -91 2847 -91
Q 1681 -91 1000 561
Q 319 1213 319 2328
Q 319 3447 1000 4098
Q 1681 4750 2847 4750
Q 3238 4750 3597 4662
Q 3956 4575 4288 4403
L 4288 3438
Q 3953 3666 3628 3772
Q 3303 3878 2944 3878
Q 2300 3878 1931 3465
Q 1563 3053 1563 2328
Q 1563 1606 1931 1193
Q 2300 781 2944 781
Q 3303 781 3628 887
Q 3953 994 4288 1222
L 4288 256
z
" transform="scale(0.015625)"/>
      <path id="DejaVuSans-Bold-6c" d="M 538 4863
L 1656 4863
L 1656 0
L 538 0
L 538 4863
z
" transform="scale(0.015625)"/>
      <path id="DejaVuSans-Bold-65" d="M 4031 1759
L 4031 1441
L 1416 1441
Q 1456 1047 1700 850
Q 1944 653 2381 653
Q 2734 653 3104 758
Q 3475 863 3866 1075
L 3866 213
Q 3469 63 3072 -14
Q 2675 -91 2278 -91
Q 1328 -91 801 392
Q 275 875 275 1747
Q 275 2603 792 3093
Q 1309 3584 2216 3584
Q 3041 3584 3536 3087
Q 4031 2591 4031 1759
z
M 2881 2131
Q 2881 2450 2695 2645
Q 2509 2841 2209 2841
Q 1884 2841 1681 2658
Q 1478 2475 1428 2131
L 2881 2131
z
" transform="scale(0.015625)"/>
      <path id="DejaVuSans-Bold-6e" d="M 4056 2131
L 4056 0
L 2931 0
L 2931 347
L 2931 1631
Q 2931 2084 2911 2256
Q 2891 2428 2841 2509
Q 2775 2619 2662 2680
Q 2550 2741 2406 2741
Q 2056 2741 1856 2470
Q 1656 2200 1656 1722
L 1656 0
L 538 0
L 538 3500
L 1656 3500
L 1656 2988
Q 1909 3294 2193 3439
Q 2478 3584 2822 3584
Q 3428 3584 3742 3212
Q 4056 2841 4056 2131
z
" transform="scale(0.015625)"/>
      <path id="DejaVuSans-Bold-76" d="M 97 3500
L 1216 3500
L 2088 1081
L 2956 3500
L 4078 3500
L 2700 0
L 1472 0
L 97 3500
z
" transform="scale(0.015625)"/>
      <path id="DejaVuSans-Bold-73" d="M 3272 3391
L 3272 2541
Q 2913 2691 2578 2766
Q 2244 2841 1947 2841
Q 1628 2841 1473 2761
Q 1319 2681 1319 2516
Q 1319 2381 1436 2309
Q 1553 2238 1856 2203
L 2053 2175
Q 2913 2066 3209 1816
Q 3506 1566 3506 1031
Q 3506 472 3093 190
Q 2681 -91 1863 -91
Q 1516 -91 1145 -36
Q 775 19 384 128
L 384 978
Q 719 816 1070 734
Q 1422 653 1784 653
Q 2113 653 2278 743
Q 2444 834 2444 1013
Q 2444 1163 2330 1236
Q 2216 1309 1875 1350
L 1678 1375
Q 931 1469 631 1722
Q 331 1975 331 2491
Q 331 3047 712 3315
Q 1094 3584 1881 3584
Q 2191 3584 2531 3537
Q 2872 3491 3272 3391
z
" transform="scale(0.015625)"/>
      <path id="DejaVuSans-Bold-52" d="M 2297 2597
Q 2675 2597 2839 2737
Q 3003 2878 3003 3200
Q 3003 3519 2839 3656
Q 2675 3794 2297 3794
L 1791 3794
L 1791 2597
L 2297 2597
z
M 1791 1766
L 1791 0
L 588 0
L 588 4666
L 2425 4666
Q 3347 4666 3776 4356
Q 4206 4047 4206 3378
Q 4206 2916 3982 2619
Q 3759 2322 3309 2181
Q 3556 2125 3751 1926
Q 3947 1728 4147 1325
L 4800 0
L 3519 0
L 2950 1159
Q 2778 1509 2601 1637
Q 2425 1766 2131 1766
L 1791 1766
z
" transform="scale(0.015625)"/>
      <path id="DejaVuSans-Bold-6f" d="M 2203 2784
Q 1831 2784 1636 2517
Q 1441 2250 1441 1747
Q 1441 1244 1636 976
Q 1831 709 2203 709
Q 2569 709 2762 976
Q 2956 1244 2956 1747
Q 2956 2250 2762 2517
Q 2569 2784 2203 2784
z
M 2203 3584
Q 3106 3584 3614 3096
Q 4122 2609 4122 1747
Q 4122 884 3614 396
Q 3106 -91 2203 -91
Q 1297 -91 786 396
Q 275 884 275 1747
Q 275 2609 786 3096
Q 1297 3584 2203 3584
z
" transform="scale(0.015625)"/>
      <path id="DejaVuSans-Bold-62" d="M 2400 722
Q 2759 722 2948 984
Q 3138 1247 3138 1747
Q 3138 2247 2948 2509
Q 2759 2772 2400 2772
Q 2041 2772 1848 2508
Q 1656 2244 1656 1747
Q 1656 1250 1848 986
Q 2041 722 2400 722
z
M 1656 2988
Q 1888 3294 2169 3439
Q 2450 3584 2816 3584
Q 3463 3584 3878 3070
Q 4294 2556 4294 1747
Q 4294 938 3878 423
Q 3463 -91 2816 -91
Q 2450 -91 2169 54
Q 1888 200 1656 506
L 1656 0
L 538 0
L 538 4863
L 1656 4863
L 1656 2988
z
" transform="scale(0.015625)"/>
      <path id="DejaVuSans-Bold-75" d="M 500 1363
L 500 3500
L 1625 3500
L 1625 3150
Q 1625 2866 1622 2436
Q 1619 2006 1619 1863
Q 1619 1441 1641 1255
Q 1663 1069 1716 984
Q 1784 875 1895 815
Q 2006 756 2150 756
Q 2500 756 2700 1025
Q 2900 1294 2900 1772
L 2900 3500
L 4019 3500
L 4019 0
L 2900 0
L 2900 506
Q 2647 200 2364 54
Q 2081 -91 1741 -91
Q 1134 -91 817 281
Q 500 653 500 1363
z
" transform="scale(0.015625)"/>
      <path id="DejaVuSans-Bold-74" d="M 1759 4494
L 1759 3500
L 2913 3500
L 2913 2700
L 1759 2700
L 1759 1216
Q 1759 972 1856 886
Q 1953 800 2241 800
L 2816 800
L 2816 0
L 1856 0
Q 1194 0 917 276
Q 641 553 641 1216
L 641 2700
L 84 2700
L 84 3500
L 641 3500
L 641 4494
L 1759 4494
z
" transform="scale(0.015625)"/>
      <path id="DejaVuSans-Bold-41" d="M 3419 850
L 1538 850
L 1241 0
L 31 0
L 1759 4666
L 3194 4666
L 4922 0
L 3713 0
L 3419 850
z
M 1838 1716
L 3116 1716
L 2478 3572
L 1838 1716
z
" transform="scale(0.015625)"/>
      <path id="DejaVuSans-Bold-63" d="M 3366 3391
L 3366 2478
Q 3138 2634 2908 2709
Q 2678 2784 2431 2784
Q 1963 2784 1702 2511
Q 1441 2238 1441 1747
Q 1441 1256 1702 982
Q 1963 709 2431 709
Q 2694 709 2930 787
Q 3166 866 3366 1019
L 3366 103
Q 3103 6 2833 -42
Q 2563 -91 2291 -91
Q 1344 -91 809 395
Q 275 881 275 1747
Q 275 2613 809 3098
Q 1344 3584 2291 3584
Q 2566 3584 2833 3536
Q 3100 3488 3366 3391
z
" transform="scale(0.015625)"/>
      <path id="DejaVuSans-Bold-72" d="M 3138 2547
Q 2991 2616 2845 2648
Q 2700 2681 2553 2681
Q 2122 2681 1889 2404
Q 1656 2128 1656 1613
L 1656 0
L 538 0
L 538 3500
L 1656 3500
L 1656 2925
Q 1872 3269 2151 3426
Q 2431 3584 2822 3584
Q 2878 3584 2943 3579
Q 3009 3575 3134 3559
L 3138 2547
z
" transform="scale(0.015625)"/>
      <path id="DejaVuSans-Bold-79" d="M 78 3500
L 1197 3500
L 2138 1125
L 2938 3500
L 4056 3500
L 2584 -331
Q 2363 -916 2067 -1148
Q 1772 -1381 1288 -1381
L 641 -1381
L 641 -647
L 991 -647
Q 1275 -647 1404 -556
Q 1534 -466 1606 -231
L 1638 -134
L 78 3500
z
" transform="scale(0.015625)"/>
     </defs>
     <use xlink:href="#DejaVuSans-Bold-28"/>
     <use xlink:href="#DejaVuSans-Bold-61" transform="translate(45.703125 0)"/>
     <use xlink:href="#DejaVuSans-Bold-29" transform="translate(113.183594 0)"/>
     <use xlink:href="#DejaVuSans-Bold-20" transform="translate(158.886719 0)"/>
     <use xlink:href="#DejaVuSans-Bold-43" transform="translate(193.701172 0)"/>
     <use xlink:href="#DejaVuSans-Bold-6c" transform="translate(267.089844 0)"/>
     <use xlink:href="#DejaVuSans-Bold-65" transform="translate(301.367188 0)"/>
     <use xlink:href="#DejaVuSans-Bold-61" transform="translate(369.189453 0)"/>
     <use xlink:href="#DejaVuSans-Bold-6e" transform="translate(436.669922 0)"/>
     <use xlink:href="#DejaVuSans-Bold-20" transform="translate(507.861328 0)"/>
     <use xlink:href="#DejaVuSans-Bold-76" transform="translate(542.675781 0)"/>
     <use xlink:href="#DejaVuSans-Bold-73" transform="translate(607.861328 0)"/>
     <use xlink:href="#DejaVuSans-Bold-20" transform="translate(667.382812 0)"/>
     <use xlink:href="#DejaVuSans-Bold-52" transform="translate(702.197266 0)"/>
     <use xlink:href="#DejaVuSans-Bold-6f" transform="translate(779.199219 0)"/>
     <use xlink:href="#DejaVuSans-Bold-62" transform="translate(847.900391 0)"/>
     <use xlink:href="#DejaVuSans-Bold-75" transform="translate(919.482422 0)"/>
     <use xlink:href="#DejaVuSans-Bold-73" transform="translate(990.673828 0)"/>
     <use xlink:href="#DejaVuSans-Bold-74" transform="translate(1050.195312 0)"/>
     <use xlink:href="#DejaVuSans-Bold-20" transform="translate(1097.998047 0)"/>
     <use xlink:href="#DejaVuSans-Bold-41" transform="translate(1132.8125 0)"/>
     <use xlink:href="#DejaVuSans-Bold-63" transform="translate(1210.205078 0)"/>
     <use xlink:href="#DejaVuSans-Bold-63" transform="translate(1269.482422 0)"/>
     <use xlink:href="#DejaVuSans-Bold-75" transform="translate(1328.759766 0)"/>
     <use xlink:href="#DejaVuSans-Bold-72" transform="translate(1399.951172 0)"/>
     <use xlink:href="#DejaVuSans-Bold-61" transform="translate(1449.267578 0)"/>
     <use xlink:href="#DejaVuSans-Bold-63" transform="translate(1516.748047 0)"/>
     <use xlink:href="#DejaVuSans-Bold-79" transform="translate(1576.025391 0)"/>
    </g>
   </g>
   <g id="legend_1">
    <g id="patch_13">
     <path d="M 364.662127 88.338281
L 386.662127 88.338281
L 386.662127 80.638281
L 364.662127 80.638281
z
" style="fill: #2ecc71; opacity: 0.9; stroke: #000000; stroke-linejoin: miter"/>
    </g>
    <g id="text_20">
     <!-- Clean Accuracy -->
     <g style="fill: #262626" transform="translate(395.462127 88.338281) scale(0.11 -0.11)">
      <defs>
       <path id="DejaVuSans-43" d="M 4122 4306
L 4122 3641
Q 3803 3938 3442 4084
Q 3081 4231 2675 4231
Q 1875 4231 1450 3742
Q 1025 3253 1025 2328
Q 1025 1406 1450 917
Q 1875 428 2675 428
Q 3081 428 3442 575
Q 3803 722 4122 1019
L 4122 359
Q 3791 134 3420 21
Q 3050 -91 2638 -91
Q 1578 -91 968 557
Q 359 1206 359 2328
Q 359 3453 968 4101
Q 1578 4750 2638 4750
Q 3056 4750 3426 4639
Q 3797 4528 4122 4306
z
" transform="scale(0.015625)"/>
      </defs>
      <use xlink:href="#DejaVuSans-43"/>
      <use xlink:href="#DejaVuSans-6c" transform="translate(69.824219 0)"/>
      <use xlink:href="#DejaVuSans-65" transform="translate(97.607422 0)"/>
      <use xlink:href="#DejaVuSans-61" transform="translate(159.130859 0)"/>
      <use xlink:href="#DejaVuSans-6e" transform="translate(220.410156 0)"/>
      <use xlink:href="#DejaVuSans-20" transform="translate(283.789062 0)"/>
      <use xlink:href="#DejaVuSans-41" transform="translate(315.576172 0)"/>
      <use xlink:href="#DejaVuSans-63" transform="translate(382.234375 0)"/>
      <use xlink:href="#DejaVuSans-63" transform="translate(437.214844 0)"/>
      <use xlink:href="#DejaVuSans-75" transform="translate(492.195312 0)"/>
      <use xlink:href="#DejaVuSans-72" transform="translate(555.574219 0)"/>
      <use xlink:href="#DejaVuSans-61" transform="translate(596.6875 0)"/>
      <use xlink:href="#DejaVuSans-63" transform="translate(657.966797 0)"/>
      <use xlink:href="#DejaVuSans-79" transform="translate(712.947266 0)"/>
     </g>
    </g>
    <g id="patch_14">
     <path d="M 364.662127 104.484219
L 386.662127 104.484219
L 386.662127 96.784219
L 364.662127 96.784219
z
" style="fill: url(#h61dde22a05); opacity: 0.4; stroke: #000000; stroke-linejoin: miter"/>
    </g>
    <g id="text_21">
     <!-- Robust Accuracy -->
     <g style="fill: #262626" transform="translate(395.462127 104.484219) scale(0.11 -0.11)">
      <use xlink:href="#DejaVuSans-52"/>
      <use xlink:href="#DejaVuSans-6f" transform="translate(64.982422 0)"/>
      <use xlink:href="#DejaVuSans-62" transform="translate(126.164062 0)"/>
      <use xlink:href="#DejaVuSans-75" transform="translate(189.640625 0)"/>
      <use xlink:href="#DejaVuSans-73" transform="translate(253.019531 0)"/>
      <use xlink:href="#DejaVuSans-74" transform="translate(305.119141 0)"/>
      <use xlink:href="#DejaVuSans-20" transform="translate(344.328125 0)"/>
      <use xlink:href="#DejaVuSans-41" transform="translate(376.115234 0)"/>
      <use xlink:href="#DejaVuSans-63" transform="translate(442.773438 0)"/>
      <use xlink:href="#DejaVuSans-63" transform="translate(497.753906 0)"/>
      <use xlink:href="#DejaVuSans-75" transform="translate(552.734375 0)"/>
      <use xlink:href="#DejaVuSans-72" transform="translate(616.113281 0)"/>
      <use xlink:href="#DejaVuSans-61" transform="translate(657.226562 0)"/>
      <use xlink:href="#DejaVuSans-63" transform="translate(718.505859 0)"/>
      <use xlink:href="#DejaVuSans-79" transform="translate(773.486328 0)"/>
     </g>
    </g>
   </g>
  </g>
  <g id="axes_2">
   <g id="patch_15">
    <path d="M 604.430983 392.172
L 926.522983 392.172
L 926.522983 70.08
L 604.430983 70.08
z
" style="fill: #ffffff"/>
   </g>
   <g id="matplotlib.axis_3">
    <g id="xtick_4">
     <g id="line2d_24">
      <path d="M 604.430983 392.172
L 604.430983 70.08
" clip-path="url(#p4e7122e144)" style="fill: none; stroke: #cccccc; stroke-opacity: 0.3; stroke-width: 0.8; stroke-linecap: round"/>
     </g>
     <g id="line2d_25"/>
     <g id="text_22">
      <!-- 0 -->
      <g style="fill: #262626" transform="translate(600.931608 404.030281) scale(0.11 -0.11)">
       <use xlink:href="#DejaVuSans-30"/>
      </g>
     </g>
    </g>
    <g id="xtick_5">
     <g id="line2d_26">
      <path d="M 668.849383 392.172
L 668.849383 70.08
" clip-path="url(#p4e7122e144)" style="fill: none; stroke: #cccccc; stroke-opacity: 0.3; stroke-width: 0.8; stroke-linecap: round"/>
     </g>
     <g id="line2d_27"/>
     <g id="text_23">
      <!-- 20 -->
      <g style="fill: #262626" transform="translate(661.850633 404.030281) scale(0.11 -0.11)">
       <use xlink:href="#DejaVuSans-32"/>
       <use xlink:href="#DejaVuSans-30" transform="translate(63.623047 0)"/>
      </g>
     </g>
    </g>
    <g id="xtick_6">
     <g id="line2d_28">
      <path d="M 733.267783 392.172
L 733.267783 70.08
" clip-path="url(#p4e7122e144)" style="fill: none; stroke: #cccccc; stroke-opacity: 0.3; stroke-width: 0.8; stroke-linecap: round"/>
     </g>
     <g id="line2d_29"/>
     <g id="text_24">
      <!-- 40 -->
      <g style="fill: #262626" transform="translate(726.269033 404.030281) scale(0.11 -0.11)">
       <use xlink:href="#DejaVuSans-34"/>
       <use xlink:href="#DejaVuSans-30" transform="translate(63.623047 0)"/>
      </g>
     </g>
    </g>
    <g id="xtick_7">
     <g id="line2d_30">
      <path d="M 797.686183 392.172
L 797.686183 70.08
" clip-path="url(#p4e7122e144)" style="fill: none; stroke: #cccccc; stroke-opacity: 0.3; stroke-width: 0.8; stroke-linecap: round"/>
     </g>
     <g id="line2d_31"/>
     <g id="text_25">
      <!-- 60 -->
      <g style="fill: #262626" transform="translate(790.687433 404.030281) scale(0.11 -0.11)">
       <use xlink:href="#DejaVuSans-36"/>
       <use xlink:href="#DejaVuSans-30" transform="translate(63.623047 0)"/>
      </g>
     </g>
    </g>
    <g id="xtick_8">
     <g id="line2d_32">
      <path d="M 862.104583 392.172
L 862.104583 70.08
" clip-path="url(#p4e7122e144)" style="fill: none; stroke: #cccccc; stroke-opacity: 0.3; stroke-width: 0.8; stroke-linecap: round"/>
     </g>
     <g id="line2d_33"/>
     <g id="text_26">
      <!-- 80 -->
      <g style="fill: #262626" transform="translate(855.105833 404.030281) scale(0.11 -0.11)">
       <use xlink:href="#DejaVuSans-38"/>
       <use xlink:href="#DejaVuSans-30" transform="translate(63.623047 0)"/>
      </g>
     </g>
    </g>
    <g id="xtick_9">
     <g id="line2d_34">
      <path d="M 926.522983 392.172
L 926.522983 70.08
" clip-path="url(#p4e7122e144)" style="fill: none; stroke: #cccccc; stroke-opacity: 0.3; stroke-width: 0.8; stroke-linecap: round"/>
     </g>
     <g id="line2d_35"/>
     <g id="text_27">
      <!-- 100 -->
      <g style="fill: #262626" transform="translate(916.024858 404.030281) scale(0.11 -0.11)">
       <use xlink:href="#DejaVuSans-31"/>
       <use xlink:href="#DejaVuSans-30" transform="translate(63.623047 0)"/>
       <use xlink:href="#DejaVuSans-30" transform="translate(127.246094 0)"/>
      </g>
     </g>
    </g>
    <g id="text_28">
     <!-- Clean Accuracy (%) -->
     <g style="fill: #262626" transform="translate(706.858858 419.436062) scale(0.12 -0.12)">
      <use xlink:href="#DejaVuSans-43"/>
      <use xlink:href="#DejaVuSans-6c" transform="translate(69.824219 0)"/>
      <use xlink:href="#DejaVuSans-65" transform="translate(97.607422 0)"/>
      <use xlink:href="#DejaVuSans-61" transform="translate(159.130859 0)"/>
      <use xlink:href="#DejaVuSans-6e" transform="translate(220.410156 0)"/>
      <use xlink:href="#DejaVuSans-20" transform="translate(283.789062 0)"/>
      <use xlink:href="#DejaVuSans-41" transform="translate(315.576172 0)"/>
      <use xlink:href="#DejaVuSans-63" transform="translate(382.234375 0)"/>
      <use xlink:href="#DejaVuSans-63" transform="translate(437.214844 0)"/>
      <use xlink:href="#DejaVuSans-75" transform="translate(492.195312 0)"/>
      <use xlink:href="#DejaVuSans-72" transform="translate(555.574219 0)"/>
      <use xlink:href="#DejaVuSans-61" transform="translate(596.6875 0)"/>
      <use xlink:href="#DejaVuSans-63" transform="translate(657.966797 0)"/>
      <use xlink:href="#DejaVuSans-79" transform="translate(712.947266 0)"/>
      <use xlink:href="#DejaVuSans-20" transform="translate(772.126953 0)"/>
      <use xlink:href="#DejaVuSans-28" transform="translate(803.914062 0)"/>
      <use xlink:href="#DejaVuSans-25" transform="translate(842.927734 0)"/>
      <use xlink:href="#DejaVuSans-29" transform="translate(937.947266 0)"/>
     </g>
    </g>
   </g>
   <g id="matplotlib.axis_4">
    <g id="ytick_7">
     <g id="line2d_36">
      <path d="M 604.430983 392.172
L 926.522983 392.172
" clip-path="url(#p4e7122e144)" style="fill: none; stroke: #cccccc; stroke-opacity: 0.3; stroke-width: 0.8; stroke-linecap: round"/>
     </g>
     <g id="line2d_37"/>
     <g id="text_29">
      <!-- 0 -->
      <g style="fill: #262626" transform="translate(593.932233 396.351141) scale(0.11 -0.11)">
       <use xlink:href="#DejaVuSans-30"/>
      </g>
     </g>
    </g>
    <g id="ytick_8">
     <g id="line2d_38">
      <path d="M 604.430983 327.7536
L 926.522983 327.7536
" clip-path="url(#p4e7122e144)" style="fill: none; stroke: #cccccc; stroke-opacity: 0.3; stroke-width: 0.8; stroke-linecap: round"/>
     </g>
     <g id="line2d_39"/>
     <g id="text_30">
      <!-- 20 -->
      <g style="fill: #262626" transform="translate(586.933483 331.932741) scale(0.11 -0.11)">
       <use xlink:href="#DejaVuSans-32"/>
       <use xlink:href="#DejaVuSans-30" transform="translate(63.623047 0)"/>
      </g>
     </g>
    </g>
    <g id="ytick_9">
     <g id="line2d_40">
      <path d="M 604.430983 263.3352
L 926.522983 263.3352
" clip-path="url(#p4e7122e144)" style="fill: none; stroke: #cccccc; stroke-opacity: 0.3; stroke-width: 0.8; stroke-linecap: round"/>
     </g>
     <g id="line2d_41"/>
     <g id="text_31">
      <!-- 40 -->
      <g style="fill: #262626" transform="translate(586.933483 267.514341) scale(0.11 -0.11)">
       <use xlink:href="#DejaVuSans-34"/>
       <use xlink:href="#DejaVuSans-30" transform="translate(63.623047 0)"/>
      </g>
     </g>
    </g>
    <g id="ytick_10">
     <g id="line2d_42">
      <path d="M 604.430983 198.9168
L 926.522983 198.9168
" clip-path="url(#p4e7122e144)" style="fill: none; stroke: #cccccc; stroke-opacity: 0.3; stroke-width: 0.8; stroke-linecap: round"/>
     </g>
     <g id="line2d_43"/>
     <g id="text_32">
      <!-- 60 -->
      <g style="fill: #262626" transform="translate(586.933483 203.095941) scale(0.11 -0.11)">
       <use xlink:href="#DejaVuSans-36"/>
       <use xlink:href="#DejaVuSans-30" transform="translate(63.623047 0)"/>
      </g>
     </g>
    </g>
    <g id="ytick_11">
     <g id="line2d_44">
      <path d="M 604.430983 134.4984
L 926.522983 134.4984
" clip-path="url(#p4e7122e144)" style="fill: none; stroke: #cccccc; stroke-opacity: 0.3; stroke-width: 0.8; stroke-linecap: round"/>
     </g>
     <g id="line2d_45"/>
     <g id="text_33">
      <!-- 80 -->
      <g style="fill: #262626" transform="translate(586.933483 138.677541) scale(0.11 -0.11)">
       <use xlink:href="#DejaVuSans-38"/>
       <use xlink:href="#DejaVuSans-30" transform="translate(63.623047 0)"/>
      </g>
     </g>
    </g>
    <g id="ytick_12">
     <g id="line2d_46">
      <path d="M 604.430983 70.08
L 926.522983 70.08
" clip-path="url(#p4e7122e144)" style="fill: none; stroke: #cccccc; stroke-opacity: 0.3; stroke-width: 0.8; stroke-linecap: round"/>
     </g>
     <g id="line2d_47"/>
     <g id="text_34">
      <!-- 100 -->
      <g style="fill: #262626" transform="translate(579.934733 74.259141) scale(0.11 -0.11)">
       <use xlink:href="#DejaVuSans-31"/>
       <use xlink:href="#DejaVuSans-30" transform="translate(63.623047 0)"/>
       <use xlink:href="#DejaVuSans-30" transform="translate(127.246094 0)"/>
      </g>
     </g>
    </g>
    <g id="text_35">
     <!-- Robust Accuracy (%) -->
     <g style="fill: #262626" transform="translate(573.439108 293.376) rotate(-90) scale(0.12 -0.12)">
      <use xlink:href="#DejaVuSans-52"/>
      <use xlink:href="#DejaVuSans-6f" transform="translate(64.982422 0)"/>
      <use xlink:href="#DejaVuSans-62" transform="translate(126.164062 0)"/>
      <use xlink:href="#DejaVuSans-75" transform="translate(189.640625 0)"/>
      <use xlink:href="#DejaVuSans-73" transform="translate(253.019531 0)"/>
      <use xlink:href="#DejaVuSans-74" transform="translate(305.119141 0)"/>
      <use xlink:href="#DejaVuSans-20" transform="translate(344.328125 0)"/>
      <use xlink:href="#DejaVuSans-41" transform="translate(376.115234 0)"/>
      <use xlink:href="#DejaVuSans-63" transform="translate(442.773438 0)"/>
      <use xlink:href="#DejaVuSans-63" transform="translate(497.753906 0)"/>
      <use xlink:href="#DejaVuSans-75" transform="translate(552.734375 0)"/>
      <use xlink:href="#DejaVuSans-72" transform="translate(616.113281 0)"/>
      <use xlink:href="#DejaVuSans-61" transform="translate(657.226562 0)"/>
      <use xlink:href="#DejaVuSans-63" transform="translate(718.505859 0)"/>
      <use xlink:href="#DejaVuSans-79" transform="translate(773.486328 0)"/>
      <use xlink:href="#DejaVuSans-20" transform="translate(832.666016 0)"/>
      <use xlink:href="#DejaVuSans-28" transform="translate(864.453125 0)"/>
      <use xlink:href="#DejaVuSans-25" transform="translate(903.466797 0)"/>
      <use xlink:href="#DejaVuSans-29" transform="translate(998.486328 0)"/>
     </g>
    </g>
   </g>
   <g id="line2d_48">
    <path d="M 604.430983 392.172
L 926.522983 70.08
" clip-path="url(#p4e7122e144)" style="fill: none; stroke-dasharray: 5.55,2.4; stroke-dashoffset: 0; stroke: #000000; stroke-opacity: 0.3; stroke-width: 1.5"/>
   </g>
   <g id="line2d_49">
    <path d="M 604.430983 311.649
L 926.522983 311.649
" clip-path="url(#p4e7122e144)" style="fill: none; stroke-dasharray: 1.5,2.475; stroke-dashoffset: 0; stroke: #ff0000; stroke-opacity: 0.7; stroke-width: 1.5"/>
   </g>
   <g id="patch_16">
    <path d="M 604.430983 392.172
L 604.430983 70.08
" style="fill: none; stroke: #cccccc; stroke-linejoin: miter; stroke-linecap: square"/>
   </g>
   <g id="patch_17">
    <path d="M 926.522983 392.172
L 926.522983 70.08
" style="fill: none; stroke: #cccccc; stroke-linejoin: miter; stroke-linecap: square"/>
   </g>
   <g id="patch_18">
    <path d="M 604.430983 392.172
L 926.522983 392.172
" style="fill: none; stroke: #cccccc; stroke-linejoin: miter; stroke-linecap: square"/>
   </g>
   <g id="patch_19">
    <path d="M 604.430983 70.08
L 926.522983 70.08
" style="fill: none; stroke: #cccccc; stroke-linejoin: miter; stroke-linecap: square"/>
   </g>
   <g id="PathCollection_1">
    <defs>
     <path id="md8f84540d4" d="M 0 6.123724
C 1.624031 6.123724 3.181764 5.47849 4.330127 4.330127
C 5.47849 3.181764 6.123724 1.624031 6.123724 0
C 6.123724 -1.624031 5.47849 -3.181764 4.330127 -4.330127
C 3.181764 -5.47849 1.624031 -6.123724 0 -6.123724
C -1.624031 -6.123724 -3.181764 -5.47849 -4.330127 -4.330127
C -5.47849 -3.181764 -6.123724 -1.624031 -6.123724 0
C -6.123724 1.624031 -5.47849 3.181764 -4.330127 4.330127
C -3.181764 5.47849 -1.624031 6.123724 0 6.123724
z
" style="stroke: #000000; stroke-opacity: 0.8; stroke-width: 1.5"/>
    </defs>
    <g clip-path="url(#p4e7122e144)">
     <use xlink:href="#md8f84540d4" x="870.923769" y="391.958976" style="fill: #2ecc71; fill-opacity: 0.8; stroke: #000000; stroke-opacity: 0.8; stroke-width: 1.5"/>
     <use xlink:href="#md8f84540d4" x="876.249364" y="391.958976" style="fill: #2ecc71; fill-opacity: 0.8; stroke: #000000; stroke-opacity: 0.8; stroke-width: 1.5"/>
     <use xlink:href="#md8f84540d4" x="868.793531" y="389.828738" style="fill: #2ecc71; fill-opacity: 0.8; stroke: #000000; stroke-opacity: 0.8; stroke-width: 1.5"/>
    </g>
   </g>
   <g id="text_36">
    <!-- s42 -->
    <g style="fill: #262626; opacity: 0.7" transform="translate(875.923769 386.958976) scale(0.08 -0.08)">
     <use xlink:href="#DejaVuSans-73"/>
     <use xlink:href="#DejaVuSans-34" transform="translate(52.099609 0)"/>
     <use xlink:href="#DejaVuSans-32" transform="translate(115.722656 0)"/>
    </g>
   </g>
   <g id="text_37">
    <!-- s123 -->
    <g style="fill: #262626; opacity: 0.7" transform="translate(881.249364 386.958976) scale(0.08 -0.08)">
     <use xlink:href="#DejaVuSans-73"/>
     <use xlink:href="#DejaVuSans-31" transform="translate(52.099609 0)"/>
     <use xlink:href="#DejaVuSans-32" transform="translate(115.722656 0)"/>
     <use xlink:href="#DejaVuSans-33" transform="translate(179.345703 0)"/>
    </g>
   </g>
   <g id="text_38">
    <!-- s456 -->
    <g style="fill: #262626; opacity: 0.7" transform="translate(873.793531 384.828738) scale(0.08 -0.08)">
     <use xlink:href="#DejaVuSans-73"/>
     <use xlink:href="#DejaVuSans-34" transform="translate(52.099609 0)"/>
     <use xlink:href="#DejaVuSans-35" transform="translate(115.722656 0)"/>
     <use xlink:href="#DejaVuSans-36" transform="translate(179.345703 0)"/>
    </g>
   </g>
   <g id="PathCollection_2">
    <defs>
     <path id="m251df93462" d="M 0 6.123724
C 1.624031 6.123724 3.181764 5.47849 4.330127 4.330127
C 5.47849 3.181764 6.123724 1.624031 6.123724 0
C 6.123724 -1.624031 5.47849 -3.181764 4.330127 -4.330127
C 3.181764 -5.47849 1.624031 -6.123724 0 -6.123724
C -1.624031 -6.123724 -3.181764 -5.47849 -4.330127 -4.330127
C -5.47849 -3.181764 -6.123724 -1.624031 -6.123724 0
C -6.123724 1.624031 -5.47849 3.181764 -4.330127 4.330127
C -3.181764 5.47849 -1.624031 6.123724 0 6.123724
z
" style="stroke: #000000; stroke-opacity: 0.8; stroke-width: 1.5"/>
    </defs>
    <g clip-path="url(#p4e7122e144)">
     <use xlink:href="#m251df93462" x="802.330103" y="233.043214" style="fill: #3498db; fill-opacity: 0.8; stroke: #000000; stroke-opacity: 0.8; stroke-width: 1.5"/>
     <use xlink:href="#m251df93462" x="806.377555" y="197.681262" style="fill: #3498db; fill-opacity: 0.8; stroke: #000000; stroke-opacity: 0.8; stroke-width: 1.5"/>
     <use xlink:href="#m251df93462" x="802.75615" y="211.314786" style="fill: #3498db; fill-opacity: 0.8; stroke: #000000; stroke-opacity: 0.8; stroke-width: 1.5"/>
    </g>
   </g>
   <g id="text_39">
    <!-- s42 -->
    <g style="fill: #262626; opacity: 0.7" transform="translate(807.330103 228.043214) scale(0.08 -0.08)">
     <use xlink:href="#DejaVuSans-73"/>
     <use xlink:href="#DejaVuSans-34" transform="translate(52.099609 0)"/>
     <use xlink:href="#DejaVuSans-32" transform="translate(115.722656 0)"/>
    </g>
   </g>
   <g id="text_40">
    <!-- s123 -->
    <g style="fill: #262626; opacity: 0.7" transform="translate(811.377555 192.681262) scale(0.08 -0.08)">
     <use xlink:href="#DejaVuSans-73"/>
     <use xlink:href="#DejaVuSans-31" transform="translate(52.099609 0)"/>
     <use xlink:href="#DejaVuSans-32" transform="translate(115.722656 0)"/>
     <use xlink:href="#DejaVuSans-33" transform="translate(179.345703 0)"/>
    </g>
   </g>
   <g id="text_41">
    <!-- s456 -->
    <g style="fill: #262626; opacity: 0.7" transform="translate(807.75615 206.314786) scale(0.08 -0.08)">
     <use xlink:href="#DejaVuSans-73"/>
     <use xlink:href="#DejaVuSans-34" transform="translate(52.099609 0)"/>
     <use xlink:href="#DejaVuSans-35" transform="translate(115.722656 0)"/>
     <use xlink:href="#DejaVuSans-36" transform="translate(179.345703 0)"/>
    </g>
   </g>
   <g id="PathCollection_3">
    <defs>
     <path id="m51e1ce9ac3" d="M 0 6.123724
C 1.624031 6.123724 3.181764 5.47849 4.330127 4.330127
C 5.47849 3.181764 6.123724 1.624031 6.123724 0
C 6.123724 -1.624031 5.47849 -3.181764 4.330127 -4.330127
C 3.181764 -5.47849 1.624031 -6.123724 0 -6.123724
C -1.624031 -6.123724 -3.181764 -5.47849 -4.330127 -4.330127
C -5.47849 -3.181764 -6.123724 -1.624031 -6.123724 0
C -6.123724 1.624031 -5.47849 3.181764 -4.330127 4.330127
C -3.181764 5.47849 -1.624031 6.123724 0 6.123724
z
" style="stroke: #000000; stroke-opacity: 0.8; stroke-width: 1.5"/>
    </defs>
    <g clip-path="url(#p4e7122e144)">
     <use xlink:href="#m51e1ce9ac3" x="850.047436" y="384.92919" style="fill: #9b59b6; fill-opacity: 0.8; stroke: #000000; stroke-opacity: 0.8; stroke-width: 1.5"/>
     <use xlink:href="#m51e1ce9ac3" x="847.278126" y="389.189667" style="fill: #9b59b6; fill-opacity: 0.8; stroke: #000000; stroke-opacity: 0.8; stroke-width: 1.5"/>
     <use xlink:href="#m51e1ce9ac3" x="849.195341" y="388.550595" style="fill: #9b59b6; fill-opacity: 0.8; stroke: #000000; stroke-opacity: 0.8; stroke-width: 1.5"/>
    </g>
   </g>
   <g id="text_42">
    <!-- s42 -->
    <g style="fill: #262626; opacity: 0.7" transform="translate(855.047436 379.92919) scale(0.08 -0.08)">
     <use xlink:href="#DejaVuSans-73"/>
     <use xlink:href="#DejaVuSans-34" transform="translate(52.099609 0)"/>
     <use xlink:href="#DejaVuSans-32" transform="translate(115.722656 0)"/>
    </g>
   </g>
   <g id="text_43">
    <!-- s123 -->
    <g style="fill: #262626; opacity: 0.7" transform="translate(852.278126 384.189667) scale(0.08 -0.08)">
     <use xlink:href="#DejaVuSans-73"/>
     <use xlink:href="#DejaVuSans-31" transform="translate(52.099609 0)"/>
     <use xlink:href="#DejaVuSans-32" transform="translate(115.722656 0)"/>
     <use xlink:href="#DejaVuSans-33" transform="translate(179.345703 0)"/>
    </g>
   </g>
   <g id="text_44">
    <!-- s456 -->
    <g style="fill: #262626; opacity: 0.7" transform="translate(854.195341 383.550595) scale(0.08 -0.08)">
     <use xlink:href="#DejaVuSans-73"/>
     <use xlink:href="#DejaVuSans-34" transform="translate(52.099609 0)"/>
     <use xlink:href="#DejaVuSans-35" transform="translate(115.722656 0)"/>
     <use xlink:href="#DejaVuSans-36" transform="translate(179.345703 0)"/>
    </g>
   </g>
   <g id="text_45">
    <!-- (b) Per-Seed Results -->
    <g style="fill: #262626" transform="translate(684.212452 64.08) scale(0.14 -0.14)">
     <defs>
      <path id="DejaVuSans-Bold-50" d="M 588 4666
L 2584 4666
Q 3475 4666 3951 4270
Q 4428 3875 4428 3144
Q 4428 2409 3951 2014
Q 3475 1619 2584 1619
L 1791 1619
L 1791 0
L 588 0
L 588 4666
z
M 1791 3794
L 1791 2491
L 2456 2491
Q 2806 2491 2997 2661
Q 3188 2831 3188 3144
Q 3188 3456 2997 3625
Q 2806 3794 2456 3794
L 1791 3794
z
" transform="scale(0.015625)"/>
      <path id="DejaVuSans-Bold-2d" d="M 347 2297
L 2309 2297
L 2309 1388
L 347 1388
L 347 2297
z
" transform="scale(0.015625)"/>
      <path id="DejaVuSans-Bold-53" d="M 3834 4519
L 3834 3531
Q 3450 3703 3084 3790
Q 2719 3878 2394 3878
Q 1963 3878 1756 3759
Q 1550 3641 1550 3391
Q 1550 3203 1689 3098
Q 1828 2994 2194 2919
L 2706 2816
Q 3484 2659 3812 2340
Q 4141 2022 4141 1434
Q 4141 663 3683 286
Q 3225 -91 2284 -91
Q 1841 -91 1394 -6
Q 947 78 500 244
L 500 1259
Q 947 1022 1364 901
Q 1781 781 2169 781
Q 2563 781 2772 912
Q 2981 1044 2981 1288
Q 2981 1506 2839 1625
Q 2697 1744 2272 1838
L 1806 1941
Q 1106 2091 782 2419
Q 459 2747 459 3303
Q 459 4000 909 4375
Q 1359 4750 2203 4750
Q 2588 4750 2994 4692
Q 3400 4634 3834 4519
z
" transform="scale(0.015625)"/>
      <path id="DejaVuSans-Bold-64" d="M 2919 2988
L 2919 4863
L 4044 4863
L 4044 0
L 2919 0
L 2919 506
Q 2688 197 2409 53
Q 2131 -91 1766 -91
Q 1119 -91 703 423
Q 288 938 288 1747
Q 288 2556 703 3070
Q 1119 3584 1766 3584
Q 2128 3584 2408 3439
Q 2688 3294 2919 2988
z
M 2181 722
Q 2541 722 2730 984
Q 2919 1247 2919 1747
Q 2919 2247 2730 2509
Q 2541 2772 2181 2772
Q 1825 2772 1636 2509
Q 1447 2247 1447 1747
Q 1447 1247 1636 984
Q 1825 722 2181 722
z
" transform="scale(0.015625)"/>
     </defs>
     <use xlink:href="#DejaVuSans-Bold-28"/>
     <use xlink:href="#DejaVuSans-Bold-62" transform="translate(45.703125 0)"/>
     <use xlink:href="#DejaVuSans-Bold-29" transform="translate(117.285156 0)"/>
     <use xlink:href="#DejaVuSans-Bold-20" transform="translate(162.988281 0)"/>
     <use xlink:href="#DejaVuSans-Bold-50" transform="translate(197.802734 0)"/>
     <use xlink:href="#DejaVuSans-Bold-65" transform="translate(271.09375 0)"/>
     <use xlink:href="#DejaVuSans-Bold-72" transform="translate(338.916016 0)"/>
     <use xlink:href="#DejaVuSans-Bold-2d" transform="translate(388.232422 0)"/>
     <use xlink:href="#DejaVuSans-Bold-53" transform="translate(429.736328 0)"/>
     <use xlink:href="#DejaVuSans-Bold-65" transform="translate(501.757812 0)"/>
     <use xlink:href="#DejaVuSans-Bold-65" transform="translate(569.580078 0)"/>
     <use xlink:href="#DejaVuSans-Bold-64" transform="translate(637.402344 0)"/>
     <use xlink:href="#DejaVuSans-Bold-20" transform="translate(708.984375 0)"/>
     <use xlink:href="#DejaVuSans-Bold-52" transform="translate(743.798828 0)"/>
     <use xlink:href="#DejaVuSans-Bold-65" transform="translate(820.800781 0)"/>
     <use xlink:href="#DejaVuSans-Bold-73" transform="translate(888.623047 0)"/>
     <use xlink:href="#DejaVuSans-Bold-75" transform="translate(948.144531 0)"/>
     <use xlink:href="#DejaVuSans-Bold-6c" transform="translate(1019.335938 0)"/>
     <use xlink:href="#DejaVuSans-Bold-74" transform="translate(1053.613281 0)"/>
     <use xlink:href="#DejaVuSans-Bold-73" transform="translate(1101.416016 0)"/>
    </g>
   </g>
   <g id="legend_2">
    <g id="PathCollection_4">
     <g>
      <use xlink:href="#md8f84540d4" x="625.330983" y="85.450781" style="fill: #2ecc71; fill-opacity: 0.8; stroke: #000000; stroke-opacity: 0.8; stroke-width: 1.5"/>
     </g>
    </g>
    <g id="text_46">
     <!-- Baseline (ERM) -->
     <g style="fill: #262626" transform="translate(645.130983 88.338281) scale(0.11 -0.11)">
      <use xlink:href="#DejaVuSans-42"/>
      <use xlink:href="#DejaVuSans-61" transform="translate(68.603516 0)"/>
      <use xlink:href="#DejaVuSans-73" transform="translate(129.882812 0)"/>
      <use xlink:href="#DejaVuSans-65" transform="translate(181.982422 0)"/>
      <use xlink:href="#DejaVuSans-6c" transform="translate(243.505859 0)"/>
      <use xlink:href="#DejaVuSans-69" transform="translate(271.289062 0)"/>
      <use xlink:href="#DejaVuSans-6e" transform="translate(299.072266 0)"/>
      <use xlink:href="#DejaVuSans-65" transform="translate(362.451172 0)"/>
      <use xlink:href="#DejaVuSans-20" transform="translate(423.974609 0)"/>
      <use xlink:href="#DejaVuSans-28" transform="translate(455.761719 0)"/>
      <use xlink:href="#DejaVuSans-45" transform="translate(494.775391 0)"/>
      <use xlink:href="#DejaVuSans-52" transform="translate(557.958984 0)"/>
      <use xlink:href="#DejaVuSans-4d" transform="translate(627.441406 0)"/>
      <use xlink:href="#DejaVuSans-29" transform="translate(713.720703 0)"/>
     </g>
    </g>
    <g id="PathCollection_5">
     <g>
      <use xlink:href="#m251df93462" x="625.330983" y="101.596719" style="fill: #3498db; fill-opacity: 0.8; stroke: #000000; stroke-opacity: 0.8; stroke-width: 1.5"/>
     </g>
    </g>
    <g id="text_47">
     <!-- TRADES -->
     <g style="fill: #262626" transform="translate(645.130983 104.484219) scale(0.11 -0.11)">
      <use xlink:href="#DejaVuSans-54"/>
      <use xlink:href="#DejaVuSans-52" transform="translate(61.083984 0)"/>
      <use xlink:href="#DejaVuSans-41" transform="translate(126.566406 0)"/>
      <use xlink:href="#DejaVuSans-44" transform="translate(194.974609 0)"/>
      <use xlink:href="#DejaVuSans-45" transform="translate(271.976562 0)"/>
      <use xlink:href="#DejaVuSans-53" transform="translate(335.160156 0)"/>
     </g>
    </g>
    <g id="PathCollection_6">
     <g>
      <use xlink:href="#m51e1ce9ac3" x="625.330983" y="117.742656" style="fill: #9b59b6; fill-opacity: 0.8; stroke: #000000; stroke-opacity: 0.8; stroke-width: 1.5"/>
     </g>
    </g>
    <g id="text_48">
     <!-- Tri-Objective (Ours) -->
     <g style="fill: #262626" transform="translate(645.130983 120.630156) scale(0.11 -0.11)">
      <use xlink:href="#DejaVuSans-54"/>
      <use xlink:href="#DejaVuSans-72" transform="translate(46.333984 0)"/>
      <use xlink:href="#DejaVuSans-69" transform="translate(87.447266 0)"/>
      <use xlink:href="#DejaVuSans-2d" transform="translate(115.230469 0)"/>
      <use xlink:href="#DejaVuSans-4f" transform="translate(154.064453 0)"/>
      <use xlink:href="#DejaVuSans-62" transform="translate(232.775391 0)"/>
      <use xlink:href="#DejaVuSans-6a" transform="translate(296.251953 0)"/>
      <use xlink:href="#DejaVuSans-65" transform="translate(324.035156 0)"/>
      <use xlink:href="#DejaVuSans-63" transform="translate(385.558594 0)"/>
      <use xlink:href="#DejaVuSans-74" transform="translate(440.539062 0)"/>
      <use xlink:href="#DejaVuSans-69" transform="translate(479.748047 0)"/>
      <use xlink:href="#DejaVuSans-76" transform="translate(507.53125 0)"/>
      <use xlink:href="#DejaVuSans-65" transform="translate(566.710938 0)"/>
      <use xlink:href="#DejaVuSans-20" transform="translate(628.234375 0)"/>
      <use xlink:href="#DejaVuSans-28" transform="translate(660.021484 0)"/>
      <use xlink:href="#DejaVuSans-4f" transform="translate(699.035156 0)"/>
      <use xlink:href="#DejaVuSans-75" transform="translate(777.746094 0)"/>
      <use xlink:href="#DejaVuSans-72" transform="translate(841.125 0)"/>
      <use xlink:href="#DejaVuSans-73" transform="translate(882.238281 0)"/>
      <use xlink:href="#DejaVuSans-29" transform="translate(934.337891 0)"/>
     </g>
    </g>
    <g id="line2d_50">
     <path d="M 614.330983 132.926094
L 625.330983 132.926094
L 636.330983 132.926094
" style="fill: none; stroke-dasharray: 5.55,2.4; stroke-dashoffset: 0; stroke: #000000; stroke-opacity: 0.3; stroke-width: 1.5"/>
    </g>
    <g id="text_49">
     <!-- Clean = Robust -->
     <g style="fill: #262626" transform="translate(645.130983 136.776094) scale(0.11 -0.11)">
      <defs>
       <path id="DejaVuSans-3d" d="M 678 2906
L 4684 2906
L 4684 2381
L 678 2381
L 678 2906
z
M 678 1631
L 4684 1631
L 4684 1100
L 678 1100
L 678 1631
z
" transform="scale(0.015625)"/>
      </defs>
      <use xlink:href="#DejaVuSans-43"/>
      <use xlink:href="#DejaVuSans-6c" transform="translate(69.824219 0)"/>
      <use xlink:href="#DejaVuSans-65" transform="translate(97.607422 0)"/>
      <use xlink:href="#DejaVuSans-61" transform="translate(159.130859 0)"/>
      <use xlink:href="#DejaVuSans-6e" transform="translate(220.410156 0)"/>
      <use xlink:href="#DejaVuSans-20" transform="translate(283.789062 0)"/>
      <use xlink:href="#DejaVuSans-3d" transform="translate(315.576172 0)"/>
      <use xlink:href="#DejaVuSans-20" transform="translate(399.365234 0)"/>
      <use xlink:href="#DejaVuSans-52" transform="translate(431.152344 0)"/>
      <use xlink:href="#DejaVuSans-6f" transform="translate(496.134766 0)"/>
      <use xlink:href="#DejaVuSans-62" transform="translate(557.316406 0)"/>
      <use xlink:href="#DejaVuSans-75" transform="translate(620.792969 0)"/>
      <use xlink:href="#DejaVuSans-73" transform="translate(684.171875 0)"/>
      <use xlink:href="#DejaVuSans-74" transform="translate(736.271484 0)"/>
     </g>
    </g>
   </g>
  </g>
  <g id="text_50">
   <!-- Figure 7: Robustness Comparison under PGD-20 Attack (=8/255) -->
   <g style="fill: #262626" transform="translate(239.045469 17.837812) scale(0.14 -0.14)">
    <defs>
     <path id="DejaVuSans-Bold-46" d="M 588 4666
L 3834 4666
L 3834 3756
L 1791 3756
L 1791 2888
L 3713 2888
L 3713 1978
L 1791 1978
L 1791 0
L 588 0
L 588 4666
z
" transform="scale(0.015625)"/>
     <path id="DejaVuSans-Bold-69" d="M 538 3500
L 1656 3500
L 1656 0
L 538 0
L 538 3500
z
M 538 4863
L 1656 4863
L 1656 3950
L 538 3950
L 538 4863
z
" transform="scale(0.015625)"/>
     <path id="DejaVuSans-Bold-67" d="M 2919 594
Q 2688 288 2409 144
Q 2131 0 1766 0
Q 1125 0 706 504
Q 288 1009 288 1791
Q 288 2575 706 3076
Q 1125 3578 1766 3578
Q 2131 3578 2409 3434
Q 2688 3291 2919 2981
L 2919 3500
L 4044 3500
L 4044 353
Q 4044 -491 3511 -936
Q 2978 -1381 1966 -1381
Q 1638 -1381 1331 -1331
Q 1025 -1281 716 -1178
L 716 -306
Q 1009 -475 1290 -558
Q 1572 -641 1856 -641
Q 2406 -641 2662 -400
Q 2919 -159 2919 353
L 2919 594
z
M 2181 2772
Q 1834 2772 1640 2515
Q 1447 2259 1447 1791
Q 1447 1309 1634 1061
Q 1822 813 2181 813
Q 2531 813 2725 1069
Q 2919 1325 2919 1791
Q 2919 2259 2725 2515
Q 2531 2772 2181 2772
z
" transform="scale(0.015625)"/>
     <path id="DejaVuSans-Bold-37" d="M 428 4666
L 3944 4666
L 3944 3988
L 2125 0
L 953 0
L 2675 3781
L 428 3781
L 428 4666
z
" transform="scale(0.015625)"/>
     <path id="DejaVuSans-Bold-3a" d="M 716 3500
L 1844 3500
L 1844 2291
L 716 2291
L 716 3500
z
M 716 1209
L 1844 1209
L 1844 0
L 716 0
L 716 1209
z
" transform="scale(0.015625)"/>
     <path id="DejaVuSans-Bold-6d" d="M 3781 2919
Q 3994 3244 4286 3414
Q 4578 3584 4928 3584
Q 5531 3584 5847 3212
Q 6163 2841 6163 2131
L 6163 0
L 5038 0
L 5038 1825
Q 5041 1866 5042 1909
Q 5044 1953 5044 2034
Q 5044 2406 4934 2573
Q 4825 2741 4581 2741
Q 4263 2741 4089 2478
Q 3916 2216 3909 1719
L 3909 0
L 2784 0
L 2784 1825
Q 2784 2406 2684 2573
Q 2584 2741 2328 2741
Q 2006 2741 1831 2477
Q 1656 2213 1656 1722
L 1656 0
L 531 0
L 531 3500
L 1656 3500
L 1656 2988
Q 1863 3284 2130 3434
Q 2397 3584 2719 3584
Q 3081 3584 3359 3409
Q 3638 3234 3781 2919
z
" transform="scale(0.015625)"/>
     <path id="DejaVuSans-Bold-70" d="M 1656 506
L 1656 -1331
L 538 -1331
L 538 3500
L 1656 3500
L 1656 2988
Q 1888 3294 2169 3439
Q 2450 3584 2816 3584
Q 3463 3584 3878 3070
Q 4294 2556 4294 1747
Q 4294 938 3878 423
Q 3463 -91 2816 -91
Q 2450 -91 2169 54
Q 1888 200 1656 506
z
M 2400 2772
Q 2041 2772 1848 2508
Q 1656 2244 1656 1747
Q 1656 1250 1848 986
Q 2041 722 2400 722
Q 2759 722 2948 984
Q 3138 1247 3138 1747
Q 3138 2247 2948 2509
Q 2759 2772 2400 2772
z
" transform="scale(0.015625)"/>
     <path id="DejaVuSans-Bold-47" d="M 4781 347
Q 4331 128 3847 18
Q 3363 -91 2847 -91
Q 1681 -91 1000 561
Q 319 1213 319 2328
Q 319 3456 1012 4103
Q 1706 4750 2913 4750
Q 3378 4750 3804 4662
Q 4231 4575 4609 4403
L 4609 3438
Q 4219 3659 3833 3768
Q 3447 3878 3059 3878
Q 2341 3878 1952 3476
Q 1563 3075 1563 2328
Q 1563 1588 1938 1184
Q 2313 781 3003 781
Q 3191 781 3352 804
Q 3513 828 3641 878
L 3641 1784
L 2906 1784
L 2906 2591
L 4781 2591
L 4781 347
z
" transform="scale(0.015625)"/>
     <path id="DejaVuSans-Bold-44" d="M 1791 3756
L 1791 909
L 2222 909
Q 2959 909 3348 1275
Q 3738 1641 3738 2338
Q 3738 3031 3350 3393
Q 2963 3756 2222 3756
L 1791 3756
z
M 588 4666
L 1856 4666
Q 2919 4666 3439 4514
Q 3959 4363 4331 4000
Q 4659 3684 4818 3271
Q 4978 2859 4978 2338
Q 4978 1809 4818 1395
Q 4659 981 4331 666
Q 3956 303 3431 151
Q 2906 0 1856 0
L 588 0
L 588 4666
z
" transform="scale(0.015625)"/>
     <path id="DejaVuSans-Bold-32" d="M 1844 884
L 3897 884
L 3897 0
L 506 0
L 506 884
L 2209 2388
Q 2438 2594 2547 2791
Q 2656 2988 2656 3200
Q 2656 3528 2436 3728
Q 2216 3928 1850 3928
Q 1569 3928 1234 3808
Q 900 3688 519 3450
L 519 4475
Q 925 4609 1322 4679
Q 1719 4750 2100 4750
Q 2938 4750 3402 4381
Q 3866 4013 3866 3353
Q 3866 2972 3669 2642
Q 3472 2313 2841 1759
L 1844 884
z
" transform="scale(0.015625)"/>
     <path id="DejaVuSans-Bold-30" d="M 2944 2338
Q 2944 3213 2780 3570
Q 2616 3928 2228 3928
Q 1841 3928 1675 3570
Q 1509 3213 1509 2338
Q 1509 1453 1675 1090
Q 1841 728 2228 728
Q 2613 728 2778 1090
Q 2944 1453 2944 2338
z
M 4147 2328
Q 4147 1169 3647 539
Q 3147 -91 2228 -91
Q 1306 -91 806 539
Q 306 1169 306 2328
Q 306 3491 806 4120
Q 1306 4750 2228 4750
Q 3147 4750 3647 4120
Q 4147 3491 4147 2328
z
" transform="scale(0.015625)"/>
     <path id="DejaVuSans-Bold-6b" d="M 538 4863
L 1656 4863
L 1656 2216
L 2944 3500
L 4244 3500
L 2534 1894
L 4378 0
L 3022 0
L 1656 1459
L 1656 0
L 538 0
L 538 4863
z
" transform="scale(0.015625)"/>
     <path id="DejaVuSans-Bold-3b5" d="M 1116 1888
Q 778 1966 606 2163
Q 431 2363 431 2666
Q 431 3138 794 3359
Q 1156 3584 1881 3584
Q 2153 3584 2431 3547
Q 2713 3509 2997 3434
L 2997 2688
Q 2809 2772 2543 2822
Q 2278 2872 2094 2872
Q 1797 2872 1625 2763
Q 1450 2650 1450 2519
Q 1450 2381 1628 2275
Q 1784 2181 2150 2181
L 2538 2181
L 2538 1481
L 2169 1481
Q 1766 1481 1572 1366
Q 1363 1244 1363 1056
Q 1363 875 1569 750
Q 1772 628 2134 628
Q 2375 628 2641 691
Q 2934 759 3156 872
L 3156 84
Q 2875 -3 2588 -47
Q 2297 -91 2009 -91
Q 1194 -91 769 181
Q 344 453 344 994
Q 344 1344 541 1569
Q 738 1794 1116 1888
z
" transform="scale(0.015625)"/>
     <path id="DejaVuSans-Bold-3d" d="M 678 3084
L 4684 3084
L 4684 2350
L 678 2350
L 678 3084
z
M 678 1663
L 4684 1663
L 4684 922
L 678 922
L 678 1663
z
" transform="scale(0.015625)"/>
     <path id="DejaVuSans-Bold-38" d="M 2228 2088
Q 1891 2088 1709 1903
Q 1528 1719 1528 1375
Q 1528 1031 1709 848
Q 1891 666 2228 666
Q 2563 666 2741 848
Q 2919 1031 2919 1375
Q 2919 1722 2741 1905
Q 2563 2088 2228 2088
z
M 1350 2484
Q 925 2613 709 2878
Q 494 3144 494 3541
Q 494 4131 934 4440
Q 1375 4750 2228 4750
Q 3075 4750 3515 4442
Q 3956 4134 3956 3541
Q 3956 3144 3739 2878
Q 3522 2613 3097 2484
Q 3572 2353 3814 2058
Q 4056 1763 4056 1313
Q 4056 619 3595 264
Q 3134 -91 2228 -91
Q 1319 -91 855 264
Q 391 619 391 1313
Q 391 1763 633 2058
Q 875 2353 1350 2484
z
M 1631 3419
Q 1631 3141 1786 2991
Q 1941 2841 2228 2841
Q 2509 2841 2662 2991
Q 2816 3141 2816 3419
Q 2816 3697 2662 3845
Q 2509 3994 2228 3994
Q 1941 3994 1786 3844
Q 1631 3694 1631 3419
z
" transform="scale(0.015625)"/>
     <path id="DejaVuSans-Bold-2f" d="M 1644 4666
L 2338 4666
L 691 -594
L 0 -594
L 1644 4666
z
" transform="scale(0.015625)"/>
     <path id="DejaVuSans-Bold-35" d="M 678 4666
L 3669 4666
L 3669 3781
L 1638 3781
L 1638 3059
Q 1775 3097 1914 3117
Q 2053 3138 2203 3138
Q 3056 3138 3531 2711
Q 4006 2284 4006 1522
Q 4006 766 3489 337
Q 2972 -91 2053 -91
Q 1656 -91 1267 -14
Q 878 63 494 219
L 494 1166
Q 875 947 1217 837
Q 1559 728 1863 728
Q 2300 728 2551 942
Q 2803 1156 2803 1522
Q 2803 1891 2551 2103
Q 2300 2316 1863 2316
Q 1603 2316 1309 2248
Q 1016 2181 678 2041
L 678 4666
z
" transform="scale(0.015625)"/>
    </defs>
    <use xlink:href="#DejaVuSans-Bold-46"/>
    <use xlink:href="#DejaVuSans-Bold-69" transform="translate(68.310547 0)"/>
    <use xlink:href="#DejaVuSans-Bold-67" transform="translate(102.587891 0)"/>
    <use xlink:href="#DejaVuSans-Bold-75" transform="translate(174.169922 0)"/>
    <use xlink:href="#DejaVuSans-Bold-72" transform="translate(245.361328 0)"/>
    <use xlink:href="#DejaVuSans-Bold-65" transform="translate(294.677734 0)"/>
    <use xlink:href="#DejaVuSans-Bold-20" transform="translate(362.5 0)"/>
    <use xlink:href="#DejaVuSans-Bold-37" transform="translate(397.314453 0)"/>
    <use xlink:href="#DejaVuSans-Bold-3a" transform="translate(466.894531 0)"/>
    <use xlink:href="#DejaVuSans-Bold-20" transform="translate(506.884766 0)"/>
    <use xlink:href="#DejaVuSans-Bold-52" transform="translate(541.699219 0)"/>
    <use xlink:href="#DejaVuSans-Bold-6f" transform="translate(618.701172 0)"/>
    <use xlink:href="#DejaVuSans-Bold-62" transform="translate(687.402344 0)"/>
    <use xlink:href="#DejaVuSans-Bold-75" transform="translate(758.984375 0)"/>
    <use xlink:href="#DejaVuSans-Bold-73" transform="translate(830.175781 0)"/>
    <use xlink:href="#DejaVuSans-Bold-74" transform="translate(889.697266 0)"/>
    <use xlink:href="#DejaVuSans-Bold-6e" transform="translate(937.5 0)"/>
    <use xlink:href="#DejaVuSans-Bold-65" transform="translate(1008.691406 0)"/>
    <use xlink:href="#DejaVuSans-Bold-73" transform="translate(1076.513672 0)"/>
    <use xlink:href="#DejaVuSans-Bold-73" transform="translate(1136.035156 0)"/>
    <use xlink:href="#DejaVuSans-Bold-20" transform="translate(1195.556641 0)"/>
    <use xlink:href="#DejaVuSans-Bold-43" transform="translate(1230.371094 0)"/>
    <use xlink:href="#DejaVuSans-Bold-6f" transform="translate(1303.759766 0)"/>
    <use xlink:href="#DejaVuSans-Bold-6d" transform="translate(1372.460938 0)"/>
    <use xlink:href="#DejaVuSans-Bold-70" transform="translate(1476.660156 0)"/>
    <use xlink:href="#DejaVuSans-Bold-61" transform="translate(1548.242188 0)"/>
    <use xlink:href="#DejaVuSans-Bold-72" transform="translate(1615.722656 0)"/>
    <use xlink:href="#DejaVuSans-Bold-69" transform="translate(1665.039062 0)"/>
    <use xlink:href="#DejaVuSans-Bold-73" transform="translate(1699.316406 0)"/>
    <use xlink:href="#DejaVuSans-Bold-6f" transform="translate(1758.837891 0)"/>
    <use xlink:href="#DejaVuSans-Bold-6e" transform="translate(1827.539062 0)"/>
    <use xlink:href="#DejaVuSans-Bold-20" transform="translate(1898.730469 0)"/>
    <use xlink:href="#DejaVuSans-Bold-75" transform="translate(1933.544922 0)"/>
    <use xlink:href="#DejaVuSans-Bold-6e" transform="translate(2004.736328 0)"/>
    <use xlink:href="#DejaVuSans-Bold-64" transform="translate(2075.927734 0)"/>
    <use xlink:href="#DejaVuSans-Bold-65" transform="translate(2147.509766 0)"/>
    <use xlink:href="#DejaVuSans-Bold-72" transform="translate(2215.332031 0)"/>
    <use xlink:href="#DejaVuSans-Bold-20" transform="translate(2264.648438 0)"/>
    <use xlink:href="#DejaVuSans-Bold-50" transform="translate(2299.462891 0)"/>
    <use xlink:href="#DejaVuSans-Bold-47" transform="translate(2372.753906 0)"/>
    <use xlink:href="#DejaVuSans-Bold-44" transform="translate(2454.833984 0)"/>
    <use xlink:href="#DejaVuSans-Bold-2d" transform="translate(2539.716797 0)"/>
    <use xlink:href="#DejaVuSans-Bold-32" transform="translate(2581.220703 0)"/>
    <use xlink:href="#DejaVuSans-Bold-30" transform="translate(2650.800781 0)"/>
    <use xlink:href="#DejaVuSans-Bold-20" transform="translate(2720.380859 0)"/>
    <use xlink:href="#DejaVuSans-Bold-41" transform="translate(2755.195312 0)"/>
    <use xlink:href="#DejaVuSans-Bold-74" transform="translate(2832.587891 0)"/>
    <use xlink:href="#DejaVuSans-Bold-74" transform="translate(2880.390625 0)"/>
    <use xlink:href="#DejaVuSans-Bold-61" transform="translate(2928.193359 0)"/>
    <use xlink:href="#DejaVuSans-Bold-63" transform="translate(2995.673828 0)"/>
    <use xlink:href="#DejaVuSans-Bold-6b" transform="translate(3054.951172 0)"/>
    <use xlink:href="#DejaVuSans-Bold-20" transform="translate(3121.455078 0)"/>
    <use xlink:href="#DejaVuSans-Bold-28" transform="translate(3156.269531 0)"/>
    <use xlink:href="#DejaVuSans-Bold-3b5" transform="translate(3201.972656 0)"/>
    <use xlink:href="#DejaVuSans-Bold-3d" transform="translate(3257.636719 0)"/>
    <use xlink:href="#DejaVuSans-Bold-38" transform="translate(3341.425781 0)"/>
    <use xlink:href="#DejaVuSans-Bold-2f" transform="translate(3411.005859 0)"/>
    <use xlink:href="#DejaVuSans-Bold-32" transform="translate(3447.529297 0)"/>
    <use xlink:href="#DejaVuSans-Bold-35" transform="translate(3517.109375 0)"/>
    <use xlink:href="#DejaVuSans-Bold-35" transform="translate(3586.689453 0)"/>
    <use xlink:href="#DejaVuSans-Bold-29" transform="translate(3656.269531 0)"/>
   </g>
  </g>
 </g>
 <defs>
  <clipPath id="pc28938e75b">
   <rect x="47.31" y="70.08" width="449.646033" height="322.092"/>
  </clipPath>
  <clipPath id="p4e7122e144">
   <rect x="604.430983" y="70.08" width="322.092" height="322.092"/>
  </clipPath>
 </defs>
 <defs>
  <pattern id="h61dde22a05" patternUnits="userSpaceOnUse" x="0" y="0" width="72" height="72">
   <rect x="0" y="0" width="73" height="73" fill="#2ecc71"/>
   <path d="M -36 36
L 36 -36
M -32 40
L 40 -32
M -28 44
L 44 -28
M -24 48
L 48 -24
M -20 52
L 52 -20
M -16 56
L 56 -16
M -12 60
L 60 -12
M -8 64
L 64 -8
M -4 68
L 68 -4
M 0 72
L 72 0
M 4 76
L 76 4
M 8 80
L 80 8
M 12 84
L 84 12
M 16 88
L 88 16
M 20 92
L 92 20
M 24 96
L 96 24
M 28 100
L 100 28
M 32 104
L 104 32
M 36 108
L 108 36
" style="fill: #000000; stroke: #000000; stroke-width: 1.0; stroke-linecap: butt; stroke-linejoin: miter; stroke-opacity: 0.4"/>
  </pattern>
  <pattern id="h1942d72f9a" patternUnits="userSpaceOnUse" x="0" y="0" width="72" height="72">
   <rect x="0" y="0" width="73" height="73" fill="#3498db"/>
   <path d="M -36 36
L 36 -36
M -32 40
L 40 -32
M -28 44
L 44 -28
M -24 48
L 48 -24
M -20 52
L 52 -20
M -16 56
L 56 -16
M -12 60
L 60 -12
M -8 64
L 64 -8
M -4 68
L 68 -4
M 0 72
L 72 0
M 4 76
L 76 4
M 8 80
L 80 8
M 12 84
L 84 12
M 16 88
L 88 16
M 20 92
L 92 20
M 24 96
L 96 24
M 28 100
L 100 28
M 32 104
L 104 32
M 36 108
L 108 36
" style="fill: #000000; stroke: #000000; stroke-width: 1.0; stroke-linecap: butt; stroke-linejoin: miter; stroke-opacity: 0.4"/>
  </pattern>
  <pattern id="h63f7109ef5" patternUnits="userSpaceOnUse" x="0" y="0" width="72" height="72">
   <rect x="0" y="0" width="73" height="73" fill="#9b59b6"/>
   <path d="M -36 36
L 36 -36
M -32 40
L 40 -32
M -28 44
L 44 -28
M -24 48
L 48 -24
M -20 52
L 52 -20
M -16 56
L 56 -16
M -12 60
L 60 -12
M -8 64
L 64 -8
M -4 68
L 68 -4
M 0 72
L 72 0
M 4 76
L 76 4
M 8 80
L 80 8
M 12 84
L 84 12
M 16 88
L 88 16
M 20 92
L 92 20
M 24 96
L 96 24
M 28 100
L 100 28
M 32 104
L 104 32
M 36 108
L 108 36
" style="fill: #000000; stroke: #000000; stroke-width: 1.0; stroke-linecap: butt; stroke-linejoin: miter; stroke-opacity: 0.4"/>
  </pattern>
 </defs>
</svg>
