<?xml version="1.0" encoding="utf-8" standalone="no"?>
<!DOCTYPE svg PUBLIC "-//W3C//DTD SVG 1.1//EN"
  "http://www.w3.org/Graphics/SVG/1.1/DTD/svg11.dtd">
<svg xmlns:xlink="http://www.w3.org/1999/xlink" width="997.41pt" height="441.659687pt" viewBox="0 0 997.41 441.659687" xmlns="http://www.w3.org/2000/svg" version="1.1">
 <metadata>
  <rdf:RDF xmlns:dc="http://purl.org/dc/elements/1.1/" xmlns:cc="http://creativecommons.org/ns#" xmlns:rdf="http://www.w3.org/1999/02/22-rdf-syntax-ns#">
   <cc:Work>
    <dc:type rdf:resource="http://purl.org/dc/dcmitype/StillImage"/>
    <dc:date>2025-12-03T15:24:24.559775</dc:date>
    <dc:format>image/svg+xml</dc:format>
    <dc:creator>
     <cc:Agent>
      <dc:title>Matplotlib v3.10.0, https://matplotlib.org/</dc:title>
     </cc:Agent>
    </dc:creator>
   </cc:Work>
  </rdf:RDF>
 </metadata>
 <defs>
  <style type="text/css">*{stroke-linejoin: round; stroke-linecap: butt}</style>
 </defs>
 <g id="figure_1">
  <g id="patch_1">
   <path d="M 0 441.659687
L 997.41 441.659687
L 997.41 0
L 0 0
z
" style="fill: #ffffff"/>
  </g>
  <g id="axes_1">
   <g id="patch_2">
    <path d="M 40.31125 404.7
L 481.66375 404.7
L 481.66375 70.08
L 40.31125 70.08
z
" style="fill: #ffffff"/>
   </g>
   <g id="matplotlib.axis_1">
    <g id="xtick_1">
     <g id="line2d_1">
      <path d="M 40.31125 404.7
L 40.31125 70.08
" clip-path="url(#pb0533b884d)" style="fill: none; stroke: #cccccc; stroke-opacity: 0.3; stroke-width: 0.8; stroke-linecap: round"/>
     </g>
     <g id="line2d_2"/>
     <g id="text_1">
      <!-- 50 -->
      <g style="fill: #262626" transform="translate(33.3125 416.558281) scale(0.11 -0.11)">
       <defs>
        <path id="DejaVuSans-35" d="M 691 4666
L 3169 4666
L 3169 4134
L 1269 4134
L 1269 2991
Q 1406 3038 1543 3061
Q 1681 3084 1819 3084
Q 2600 3084 3056 2656
Q 3513 2228 3513 1497
Q 3513 744 3044 326
Q 2575 -91 1722 -91
Q 1428 -91 1123 -41
Q 819 9 494 109
L 494 744
Q 775 591 1075 516
Q 1375 441 1709 441
Q 2250 441 2565 725
Q 2881 1009 2881 1497
Q 2881 1984 2565 2268
Q 2250 2553 1709 2553
Q 1456 2553 1204 2497
Q 953 2441 691 2322
L 691 4666
z
" transform="scale(0.015625)"/>
        <path id="DejaVuSans-30" d="M 2034 4250
Q 1547 4250 1301 3770
Q 1056 3291 1056 2328
Q 1056 1369 1301 889
Q 1547 409 2034 409
Q 2525 409 2770 889
Q 3016 1369 3016 2328
Q 3016 3291 2770 3770
Q 2525 4250 2034 4250
z
M 2034 4750
Q 2819 4750 3233 4129
Q 3647 3509 3647 2328
Q 3647 1150 3233 529
Q 2819 -91 2034 -91
Q 1250 -91 836 529
Q 422 1150 422 2328
Q 422 3509 836 4129
Q 1250 4750 2034 4750
z
" transform="scale(0.015625)"/>
       </defs>
       <use xlink:href="#DejaVuSans-35"/>
       <use xlink:href="#DejaVuSans-30" transform="translate(63.623047 0)"/>
      </g>
     </g>
    </g>
    <g id="xtick_2">
     <g id="line2d_3">
      <path d="M 128.58175 404.7
L 128.58175 70.08
" clip-path="url(#pb0533b884d)" style="fill: none; stroke: #cccccc; stroke-opacity: 0.3; stroke-width: 0.8; stroke-linecap: round"/>
     </g>
     <g id="line2d_4"/>
     <g id="text_2">
      <!-- 60 -->
      <g style="fill: #262626" transform="translate(121.583 416.558281) scale(0.11 -0.11)">
       <defs>
        <path id="DejaVuSans-36" d="M 2113 2584
Q 1688 2584 1439 2293
Q 1191 2003 1191 1497
Q 1191 994 1439 701
Q 1688 409 2113 409
Q 2538 409 2786 701
Q 3034 994 3034 1497
Q 3034 2003 2786 2293
Q 2538 2584 2113 2584
z
M 3366 4563
L 3366 3988
Q 3128 4100 2886 4159
Q 2644 4219 2406 4219
Q 1781 4219 1451 3797
Q 1122 3375 1075 2522
Q 1259 2794 1537 2939
Q 1816 3084 2150 3084
Q 2853 3084 3261 2657
Q 3669 2231 3669 1497
Q 3669 778 3244 343
Q 2819 -91 2113 -91
Q 1303 -91 875 529
Q 447 1150 447 2328
Q 447 3434 972 4092
Q 1497 4750 2381 4750
Q 2619 4750 2861 4703
Q 3103 4656 3366 4563
z
" transform="scale(0.015625)"/>
       </defs>
       <use xlink:href="#DejaVuSans-36"/>
       <use xlink:href="#DejaVuSans-30" transform="translate(63.623047 0)"/>
      </g>
     </g>
    </g>
    <g id="xtick_3">
     <g id="line2d_5">
      <path d="M 216.85225 404.7
L 216.85225 70.08
" clip-path="url(#pb0533b884d)" style="fill: none; stroke: #cccccc; stroke-opacity: 0.3; stroke-width: 0.8; stroke-linecap: round"/>
     </g>
     <g id="line2d_6"/>
     <g id="text_3">
      <!-- 70 -->
      <g style="fill: #262626" transform="translate(209.8535 416.558281) scale(0.11 -0.11)">
       <defs>
        <path id="DejaVuSans-37" d="M 525 4666
L 3525 4666
L 3525 4397
L 1831 0
L 1172 0
L 2766 4134
L 525 4134
L 525 4666
z
" transform="scale(0.015625)"/>
       </defs>
       <use xlink:href="#DejaVuSans-37"/>
       <use xlink:href="#DejaVuSans-30" transform="translate(63.623047 0)"/>
      </g>
     </g>
    </g>
    <g id="xtick_4">
     <g id="line2d_7">
      <path d="M 305.12275 404.7
L 305.12275 70.08
" clip-path="url(#pb0533b884d)" style="fill: none; stroke: #cccccc; stroke-opacity: 0.3; stroke-width: 0.8; stroke-linecap: round"/>
     </g>
     <g id="line2d_8"/>
     <g id="text_4">
      <!-- 80 -->
      <g style="fill: #262626" transform="translate(298.124 416.558281) scale(0.11 -0.11)">
       <defs>
        <path id="DejaVuSans-38" d="M 2034 2216
Q 1584 2216 1326 1975
Q 1069 1734 1069 1313
Q 1069 891 1326 650
Q 1584 409 2034 409
Q 2484 409 2743 651
Q 3003 894 3003 1313
Q 3003 1734 2745 1975
Q 2488 2216 2034 2216
z
M 1403 2484
Q 997 2584 770 2862
Q 544 3141 544 3541
Q 544 4100 942 4425
Q 1341 4750 2034 4750
Q 2731 4750 3128 4425
Q 3525 4100 3525 3541
Q 3525 3141 3298 2862
Q 3072 2584 2669 2484
Q 3125 2378 3379 2068
Q 3634 1759 3634 1313
Q 3634 634 3220 271
Q 2806 -91 2034 -91
Q 1263 -91 848 271
Q 434 634 434 1313
Q 434 1759 690 2068
Q 947 2378 1403 2484
z
M 1172 3481
Q 1172 3119 1398 2916
Q 1625 2713 2034 2713
Q 2441 2713 2670 2916
Q 2900 3119 2900 3481
Q 2900 3844 2670 4047
Q 2441 4250 2034 4250
Q 1625 4250 1398 4047
Q 1172 3844 1172 3481
z
" transform="scale(0.015625)"/>
       </defs>
       <use xlink:href="#DejaVuSans-38"/>
       <use xlink:href="#DejaVuSans-30" transform="translate(63.623047 0)"/>
      </g>
     </g>
    </g>
    <g id="xtick_5">
     <g id="line2d_9">
      <path d="M 393.39325 404.7
L 393.39325 70.08
" clip-path="url(#pb0533b884d)" style="fill: none; stroke: #cccccc; stroke-opacity: 0.3; stroke-width: 0.8; stroke-linecap: round"/>
     </g>
     <g id="line2d_10"/>
     <g id="text_5">
      <!-- 90 -->
      <g style="fill: #262626" transform="translate(386.3945 416.558281) scale(0.11 -0.11)">
       <defs>
        <path id="DejaVuSans-39" d="M 703 97
L 703 672
Q 941 559 1184 500
Q 1428 441 1663 441
Q 2288 441 2617 861
Q 2947 1281 2994 2138
Q 2813 1869 2534 1725
Q 2256 1581 1919 1581
Q 1219 1581 811 2004
Q 403 2428 403 3163
Q 403 3881 828 4315
Q 1253 4750 1959 4750
Q 2769 4750 3195 4129
Q 3622 3509 3622 2328
Q 3622 1225 3098 567
Q 2575 -91 1691 -91
Q 1453 -91 1209 -44
Q 966 3 703 97
z
M 1959 2075
Q 2384 2075 2632 2365
Q 2881 2656 2881 3163
Q 2881 3666 2632 3958
Q 2384 4250 1959 4250
Q 1534 4250 1286 3958
Q 1038 3666 1038 3163
Q 1038 2656 1286 2365
Q 1534 2075 1959 2075
z
" transform="scale(0.015625)"/>
       </defs>
       <use xlink:href="#DejaVuSans-39"/>
       <use xlink:href="#DejaVuSans-30" transform="translate(63.623047 0)"/>
      </g>
     </g>
    </g>
    <g id="xtick_6">
     <g id="line2d_11">
      <path d="M 481.66375 404.7
L 481.66375 70.08
" clip-path="url(#pb0533b884d)" style="fill: none; stroke: #cccccc; stroke-opacity: 0.3; stroke-width: 0.8; stroke-linecap: round"/>
     </g>
     <g id="line2d_12"/>
     <g id="text_6">
      <!-- 100 -->
      <g style="fill: #262626" transform="translate(471.165625 416.558281) scale(0.11 -0.11)">
       <defs>
        <path id="DejaVuSans-31" d="M 794 531
L 1825 531
L 1825 4091
L 703 3866
L 703 4441
L 1819 4666
L 2450 4666
L 2450 531
L 3481 531
L 3481 0
L 794 0
L 794 531
z
" transform="scale(0.015625)"/>
       </defs>
       <use xlink:href="#DejaVuSans-31"/>
       <use xlink:href="#DejaVuSans-30" transform="translate(63.623047 0)"/>
       <use xlink:href="#DejaVuSans-30" transform="translate(127.246094 0)"/>
      </g>
     </g>
    </g>
    <g id="text_7">
     <!-- Clean Accuracy (%) -->
     <g style="fill: #262626" transform="translate(202.369375 431.964062) scale(0.12 -0.12)">
      <defs>
       <path id="DejaVuSans-43" d="M 4122 4306
L 4122 3641
Q 3803 3938 3442 4084
Q 3081 4231 2675 4231
Q 1875 4231 1450 3742
Q 1025 3253 1025 2328
Q 1025 1406 1450 917
Q 1875 428 2675 428
Q 3081 428 3442 575
Q 3803 722 4122 1019
L 4122 359
Q 3791 134 3420 21
Q 3050 -91 2638 -91
Q 1578 -91 968 557
Q 359 1206 359 2328
Q 359 3453 968 4101
Q 1578 4750 2638 4750
Q 3056 4750 3426 4639
Q 3797 4528 4122 4306
z
" transform="scale(0.015625)"/>
       <path id="DejaVuSans-6c" d="M 603 4863
L 1178 4863
L 1178 0
L 603 0
L 603 4863
z
" transform="scale(0.015625)"/>
       <path id="DejaVuSans-65" d="M 3597 1894
L 3597 1613
L 953 1613
Q 991 1019 1311 708
Q 1631 397 2203 397
Q 2534 397 2845 478
Q 3156 559 3463 722
L 3463 178
Q 3153 47 2828 -22
Q 2503 -91 2169 -91
Q 1331 -91 842 396
Q 353 884 353 1716
Q 353 2575 817 3079
Q 1281 3584 2069 3584
Q 2775 3584 3186 3129
Q 3597 2675 3597 1894
z
M 3022 2063
Q 3016 2534 2758 2815
Q 2500 3097 2075 3097
Q 1594 3097 1305 2825
Q 1016 2553 972 2059
L 3022 2063
z
" transform="scale(0.015625)"/>
       <path id="DejaVuSans-61" d="M 2194 1759
Q 1497 1759 1228 1600
Q 959 1441 959 1056
Q 959 750 1161 570
Q 1363 391 1709 391
Q 2188 391 2477 730
Q 2766 1069 2766 1631
L 2766 1759
L 2194 1759
z
M 3341 1997
L 3341 0
L 2766 0
L 2766 531
Q 2569 213 2275 61
Q 1981 -91 1556 -91
Q 1019 -91 701 211
Q 384 513 384 1019
Q 384 1609 779 1909
Q 1175 2209 1959 2209
L 2766 2209
L 2766 2266
Q 2766 2663 2505 2880
Q 2244 3097 1772 3097
Q 1472 3097 1187 3025
Q 903 2953 641 2809
L 641 3341
Q 956 3463 1253 3523
Q 1550 3584 1831 3584
Q 2591 3584 2966 3190
Q 3341 2797 3341 1997
z
" transform="scale(0.015625)"/>
       <path id="DejaVuSans-6e" d="M 3513 2113
L 3513 0
L 2938 0
L 2938 2094
Q 2938 2591 2744 2837
Q 2550 3084 2163 3084
Q 1697 3084 1428 2787
Q 1159 2491 1159 1978
L 1159 0
L 581 0
L 581 3500
L 1159 3500
L 1159 2956
Q 1366 3272 1645 3428
Q 1925 3584 2291 3584
Q 2894 3584 3203 3211
Q 3513 2838 3513 2113
z
" transform="scale(0.015625)"/>
       <path id="DejaVuSans-20" transform="scale(0.015625)"/>
       <path id="DejaVuSans-41" d="M 2188 4044
L 1331 1722
L 3047 1722
L 2188 4044
z
M 1831 4666
L 2547 4666
L 4325 0
L 3669 0
L 3244 1197
L 1141 1197
L 716 0
L 50 0
L 1831 4666
z
" transform="scale(0.015625)"/>
       <path id="DejaVuSans-63" d="M 3122 3366
L 3122 2828
Q 2878 2963 2633 3030
Q 2388 3097 2138 3097
Q 1578 3097 1268 2742
Q 959 2388 959 1747
Q 959 1106 1268 751
Q 1578 397 2138 397
Q 2388 397 2633 464
Q 2878 531 3122 666
L 3122 134
Q 2881 22 2623 -34
Q 2366 -91 2075 -91
Q 1284 -91 818 406
Q 353 903 353 1747
Q 353 2603 823 3093
Q 1294 3584 2113 3584
Q 2378 3584 2631 3529
Q 2884 3475 3122 3366
z
" transform="scale(0.015625)"/>
       <path id="DejaVuSans-75" d="M 544 1381
L 544 3500
L 1119 3500
L 1119 1403
Q 1119 906 1312 657
Q 1506 409 1894 409
Q 2359 409 2629 706
Q 2900 1003 2900 1516
L 2900 3500
L 3475 3500
L 3475 0
L 2900 0
L 2900 538
Q 2691 219 2414 64
Q 2138 -91 1772 -91
Q 1169 -91 856 284
Q 544 659 544 1381
z
M 1991 3584
L 1991 3584
z
" transform="scale(0.015625)"/>
       <path id="DejaVuSans-72" d="M 2631 2963
Q 2534 3019 2420 3045
Q 2306 3072 2169 3072
Q 1681 3072 1420 2755
Q 1159 2438 1159 1844
L 1159 0
L 581 0
L 581 3500
L 1159 3500
L 1159 2956
Q 1341 3275 1631 3429
Q 1922 3584 2338 3584
Q 2397 3584 2469 3576
Q 2541 3569 2628 3553
L 2631 2963
z
" transform="scale(0.015625)"/>
       <path id="DejaVuSans-79" d="M 2059 -325
Q 1816 -950 1584 -1140
Q 1353 -1331 966 -1331
L 506 -1331
L 506 -850
L 844 -850
Q 1081 -850 1212 -737
Q 1344 -625 1503 -206
L 1606 56
L 191 3500
L 800 3500
L 1894 763
L 2988 3500
L 3597 3500
L 2059 -325
z
" transform="scale(0.015625)"/>
       <path id="DejaVuSans-28" d="M 1984 4856
Q 1566 4138 1362 3434
Q 1159 2731 1159 2009
Q 1159 1288 1364 580
Q 1569 -128 1984 -844
L 1484 -844
Q 1016 -109 783 600
Q 550 1309 550 2009
Q 550 2706 781 3412
Q 1013 4119 1484 4856
L 1984 4856
z
" transform="scale(0.015625)"/>
       <path id="DejaVuSans-25" d="M 4653 2053
Q 4381 2053 4226 1822
Q 4072 1591 4072 1178
Q 4072 772 4226 539
Q 4381 306 4653 306
Q 4919 306 5073 539
Q 5228 772 5228 1178
Q 5228 1588 5073 1820
Q 4919 2053 4653 2053
z
M 4653 2450
Q 5147 2450 5437 2106
Q 5728 1763 5728 1178
Q 5728 594 5436 251
Q 5144 -91 4653 -91
Q 4153 -91 3862 251
Q 3572 594 3572 1178
Q 3572 1766 3864 2108
Q 4156 2450 4653 2450
z
M 1428 4353
Q 1159 4353 1004 4120
Q 850 3888 850 3481
Q 850 3069 1003 2837
Q 1156 2606 1428 2606
Q 1700 2606 1854 2837
Q 2009 3069 2009 3481
Q 2009 3884 1853 4118
Q 1697 4353 1428 4353
z
M 4250 4750
L 4750 4750
L 1831 -91
L 1331 -91
L 4250 4750
z
M 1428 4750
Q 1922 4750 2215 4408
Q 2509 4066 2509 3481
Q 2509 2891 2217 2550
Q 1925 2209 1428 2209
Q 931 2209 642 2551
Q 353 2894 353 3481
Q 353 4063 643 4406
Q 934 4750 1428 4750
z
" transform="scale(0.015625)"/>
       <path id="DejaVuSans-29" d="M 513 4856
L 1013 4856
Q 1481 4119 1714 3412
Q 1947 2706 1947 2009
Q 1947 1309 1714 600
Q 1481 -109 1013 -844
L 513 -844
Q 928 -128 1133 580
Q 1338 1288 1338 2009
Q 1338 2731 1133 3434
Q 928 4138 513 4856
z
" transform="scale(0.015625)"/>
      </defs>
      <use xlink:href="#DejaVuSans-43"/>
      <use xlink:href="#DejaVuSans-6c" transform="translate(69.824219 0)"/>
      <use xlink:href="#DejaVuSans-65" transform="translate(97.607422 0)"/>
      <use xlink:href="#DejaVuSans-61" transform="translate(159.130859 0)"/>
      <use xlink:href="#DejaVuSans-6e" transform="translate(220.410156 0)"/>
      <use xlink:href="#DejaVuSans-20" transform="translate(283.789062 0)"/>
      <use xlink:href="#DejaVuSans-41" transform="translate(315.576172 0)"/>
      <use xlink:href="#DejaVuSans-63" transform="translate(382.234375 0)"/>
      <use xlink:href="#DejaVuSans-63" transform="translate(437.214844 0)"/>
      <use xlink:href="#DejaVuSans-75" transform="translate(492.195312 0)"/>
      <use xlink:href="#DejaVuSans-72" transform="translate(555.574219 0)"/>
      <use xlink:href="#DejaVuSans-61" transform="translate(596.6875 0)"/>
      <use xlink:href="#DejaVuSans-63" transform="translate(657.966797 0)"/>
      <use xlink:href="#DejaVuSans-79" transform="translate(712.947266 0)"/>
      <use xlink:href="#DejaVuSans-20" transform="translate(772.126953 0)"/>
      <use xlink:href="#DejaVuSans-28" transform="translate(803.914062 0)"/>
      <use xlink:href="#DejaVuSans-25" transform="translate(842.927734 0)"/>
      <use xlink:href="#DejaVuSans-29" transform="translate(937.947266 0)"/>
     </g>
    </g>
   </g>
   <g id="matplotlib.axis_2">
    <g id="ytick_1">
     <g id="line2d_13">
      <path d="M 40.31125 404.7
L 481.66375 404.7
" clip-path="url(#pb0533b884d)" style="fill: none; stroke: #cccccc; stroke-opacity: 0.3; stroke-width: 0.8; stroke-linecap: round"/>
     </g>
     <g id="line2d_14"/>
     <g id="text_8">
      <!-- 0 -->
      <g style="fill: #262626" transform="translate(29.8125 408.879141) scale(0.11 -0.11)">
       <use xlink:href="#DejaVuSans-30"/>
      </g>
     </g>
    </g>
    <g id="ytick_2">
     <g id="line2d_15">
      <path d="M 40.31125 337.776
L 481.66375 337.776
" clip-path="url(#pb0533b884d)" style="fill: none; stroke: #cccccc; stroke-opacity: 0.3; stroke-width: 0.8; stroke-linecap: round"/>
     </g>
     <g id="line2d_16"/>
     <g id="text_9">
      <!-- 10 -->
      <g style="fill: #262626" transform="translate(22.81375 341.955141) scale(0.11 -0.11)">
       <use xlink:href="#DejaVuSans-31"/>
       <use xlink:href="#DejaVuSans-30" transform="translate(63.623047 0)"/>
      </g>
     </g>
    </g>
    <g id="ytick_3">
     <g id="line2d_17">
      <path d="M 40.31125 270.852
L 481.66375 270.852
" clip-path="url(#pb0533b884d)" style="fill: none; stroke: #cccccc; stroke-opacity: 0.3; stroke-width: 0.8; stroke-linecap: round"/>
     </g>
     <g id="line2d_18"/>
     <g id="text_10">
      <!-- 20 -->
      <g style="fill: #262626" transform="translate(22.81375 275.031141) scale(0.11 -0.11)">
       <defs>
        <path id="DejaVuSans-32" d="M 1228 531
L 3431 531
L 3431 0
L 469 0
L 469 531
Q 828 903 1448 1529
Q 2069 2156 2228 2338
Q 2531 2678 2651 2914
Q 2772 3150 2772 3378
Q 2772 3750 2511 3984
Q 2250 4219 1831 4219
Q 1534 4219 1204 4116
Q 875 4013 500 3803
L 500 4441
Q 881 4594 1212 4672
Q 1544 4750 1819 4750
Q 2544 4750 2975 4387
Q 3406 4025 3406 3419
Q 3406 3131 3298 2873
Q 3191 2616 2906 2266
Q 2828 2175 2409 1742
Q 1991 1309 1228 531
z
" transform="scale(0.015625)"/>
       </defs>
       <use xlink:href="#DejaVuSans-32"/>
       <use xlink:href="#DejaVuSans-30" transform="translate(63.623047 0)"/>
      </g>
     </g>
    </g>
    <g id="ytick_4">
     <g id="line2d_19">
      <path d="M 40.31125 203.928
L 481.66375 203.928
" clip-path="url(#pb0533b884d)" style="fill: none; stroke: #cccccc; stroke-opacity: 0.3; stroke-width: 0.8; stroke-linecap: round"/>
     </g>
     <g id="line2d_20"/>
     <g id="text_11">
      <!-- 30 -->
      <g style="fill: #262626" transform="translate(22.81375 208.107141) scale(0.11 -0.11)">
       <defs>
        <path id="DejaVuSans-33" d="M 2597 2516
Q 3050 2419 3304 2112
Q 3559 1806 3559 1356
Q 3559 666 3084 287
Q 2609 -91 1734 -91
Q 1441 -91 1130 -33
Q 819 25 488 141
L 488 750
Q 750 597 1062 519
Q 1375 441 1716 441
Q 2309 441 2620 675
Q 2931 909 2931 1356
Q 2931 1769 2642 2001
Q 2353 2234 1838 2234
L 1294 2234
L 1294 2753
L 1863 2753
Q 2328 2753 2575 2939
Q 2822 3125 2822 3475
Q 2822 3834 2567 4026
Q 2313 4219 1838 4219
Q 1578 4219 1281 4162
Q 984 4106 628 3988
L 628 4550
Q 988 4650 1302 4700
Q 1616 4750 1894 4750
Q 2613 4750 3031 4423
Q 3450 4097 3450 3541
Q 3450 3153 3228 2886
Q 3006 2619 2597 2516
z
" transform="scale(0.015625)"/>
       </defs>
       <use xlink:href="#DejaVuSans-33"/>
       <use xlink:href="#DejaVuSans-30" transform="translate(63.623047 0)"/>
      </g>
     </g>
    </g>
    <g id="ytick_5">
     <g id="line2d_21">
      <path d="M 40.31125 137.004
L 481.66375 137.004
" clip-path="url(#pb0533b884d)" style="fill: none; stroke: #cccccc; stroke-opacity: 0.3; stroke-width: 0.8; stroke-linecap: round"/>
     </g>
     <g id="line2d_22"/>
     <g id="text_12">
      <!-- 40 -->
      <g style="fill: #262626" transform="translate(22.81375 141.183141) scale(0.11 -0.11)">
       <defs>
        <path id="DejaVuSans-34" d="M 2419 4116
L 825 1625
L 2419 1625
L 2419 4116
z
M 2253 4666
L 3047 4666
L 3047 1625
L 3713 1625
L 3713 1100
L 3047 1100
L 3047 0
L 2419 0
L 2419 1100
L 313 1100
L 313 1709
L 2253 4666
z
" transform="scale(0.015625)"/>
       </defs>
       <use xlink:href="#DejaVuSans-34"/>
       <use xlink:href="#DejaVuSans-30" transform="translate(63.623047 0)"/>
      </g>
     </g>
    </g>
    <g id="ytick_6">
     <g id="line2d_23">
      <path d="M 40.31125 70.08
L 481.66375 70.08
" clip-path="url(#pb0533b884d)" style="fill: none; stroke: #cccccc; stroke-opacity: 0.3; stroke-width: 0.8; stroke-linecap: round"/>
     </g>
     <g id="line2d_24"/>
     <g id="text_13">
      <!-- 50 -->
      <g style="fill: #262626" transform="translate(22.81375 74.259141) scale(0.11 -0.11)">
       <use xlink:href="#DejaVuSans-35"/>
       <use xlink:href="#DejaVuSans-30" transform="translate(63.623047 0)"/>
      </g>
     </g>
    </g>
    <g id="text_14">
     <!-- Robust Accuracy (%) -->
     <g style="fill: #262626" transform="translate(16.318125 299.64) rotate(-90) scale(0.12 -0.12)">
      <defs>
       <path id="DejaVuSans-52" d="M 2841 2188
Q 3044 2119 3236 1894
Q 3428 1669 3622 1275
L 4263 0
L 3584 0
L 2988 1197
Q 2756 1666 2539 1819
Q 2322 1972 1947 1972
L 1259 1972
L 1259 0
L 628 0
L 628 4666
L 2053 4666
Q 2853 4666 3247 4331
Q 3641 3997 3641 3322
Q 3641 2881 3436 2590
Q 3231 2300 2841 2188
z
M 1259 4147
L 1259 2491
L 2053 2491
Q 2509 2491 2742 2702
Q 2975 2913 2975 3322
Q 2975 3731 2742 3939
Q 2509 4147 2053 4147
L 1259 4147
z
" transform="scale(0.015625)"/>
       <path id="DejaVuSans-6f" d="M 1959 3097
Q 1497 3097 1228 2736
Q 959 2375 959 1747
Q 959 1119 1226 758
Q 1494 397 1959 397
Q 2419 397 2687 759
Q 2956 1122 2956 1747
Q 2956 2369 2687 2733
Q 2419 3097 1959 3097
z
M 1959 3584
Q 2709 3584 3137 3096
Q 3566 2609 3566 1747
Q 3566 888 3137 398
Q 2709 -91 1959 -91
Q 1206 -91 779 398
Q 353 888 353 1747
Q 353 2609 779 3096
Q 1206 3584 1959 3584
z
" transform="scale(0.015625)"/>
       <path id="DejaVuSans-62" d="M 3116 1747
Q 3116 2381 2855 2742
Q 2594 3103 2138 3103
Q 1681 3103 1420 2742
Q 1159 2381 1159 1747
Q 1159 1113 1420 752
Q 1681 391 2138 391
Q 2594 391 2855 752
Q 3116 1113 3116 1747
z
M 1159 2969
Q 1341 3281 1617 3432
Q 1894 3584 2278 3584
Q 2916 3584 3314 3078
Q 3713 2572 3713 1747
Q 3713 922 3314 415
Q 2916 -91 2278 -91
Q 1894 -91 1617 61
Q 1341 213 1159 525
L 1159 0
L 581 0
L 581 4863
L 1159 4863
L 1159 2969
z
" transform="scale(0.015625)"/>
       <path id="DejaVuSans-73" d="M 2834 3397
L 2834 2853
Q 2591 2978 2328 3040
Q 2066 3103 1784 3103
Q 1356 3103 1142 2972
Q 928 2841 928 2578
Q 928 2378 1081 2264
Q 1234 2150 1697 2047
L 1894 2003
Q 2506 1872 2764 1633
Q 3022 1394 3022 966
Q 3022 478 2636 193
Q 2250 -91 1575 -91
Q 1294 -91 989 -36
Q 684 19 347 128
L 347 722
Q 666 556 975 473
Q 1284 391 1588 391
Q 1994 391 2212 530
Q 2431 669 2431 922
Q 2431 1156 2273 1281
Q 2116 1406 1581 1522
L 1381 1569
Q 847 1681 609 1914
Q 372 2147 372 2553
Q 372 3047 722 3315
Q 1072 3584 1716 3584
Q 2034 3584 2315 3537
Q 2597 3491 2834 3397
z
" transform="scale(0.015625)"/>
       <path id="DejaVuSans-74" d="M 1172 4494
L 1172 3500
L 2356 3500
L 2356 3053
L 1172 3053
L 1172 1153
Q 1172 725 1289 603
Q 1406 481 1766 481
L 2356 481
L 2356 0
L 1766 0
Q 1100 0 847 248
Q 594 497 594 1153
L 594 3053
L 172 3053
L 172 3500
L 594 3500
L 594 4494
L 1172 4494
z
" transform="scale(0.015625)"/>
      </defs>
      <use xlink:href="#DejaVuSans-52"/>
      <use xlink:href="#DejaVuSans-6f" transform="translate(64.982422 0)"/>
      <use xlink:href="#DejaVuSans-62" transform="translate(126.164062 0)"/>
      <use xlink:href="#DejaVuSans-75" transform="translate(189.640625 0)"/>
      <use xlink:href="#DejaVuSans-73" transform="translate(253.019531 0)"/>
      <use xlink:href="#DejaVuSans-74" transform="translate(305.119141 0)"/>
      <use xlink:href="#DejaVuSans-20" transform="translate(344.328125 0)"/>
      <use xlink:href="#DejaVuSans-41" transform="translate(376.115234 0)"/>
      <use xlink:href="#DejaVuSans-63" transform="translate(442.773438 0)"/>
      <use xlink:href="#DejaVuSans-63" transform="translate(497.753906 0)"/>
      <use xlink:href="#DejaVuSans-75" transform="translate(552.734375 0)"/>
      <use xlink:href="#DejaVuSans-72" transform="translate(616.113281 0)"/>
      <use xlink:href="#DejaVuSans-61" transform="translate(657.226562 0)"/>
      <use xlink:href="#DejaVuSans-63" transform="translate(718.505859 0)"/>
      <use xlink:href="#DejaVuSans-79" transform="translate(773.486328 0)"/>
      <use xlink:href="#DejaVuSans-20" transform="translate(832.666016 0)"/>
      <use xlink:href="#DejaVuSans-28" transform="translate(864.453125 0)"/>
      <use xlink:href="#DejaVuSans-25" transform="translate(903.466797 0)"/>
      <use xlink:href="#DejaVuSans-29" transform="translate(998.486328 0)"/>
     </g>
    </g>
   </g>
   <g id="LineCollection_1">
    <path d="M 321.686455 402.781984
L 342.735649 402.781984
" clip-path="url(#pb0533b884d)" style="fill: none; stroke: #2ecc71; stroke-width: 2"/>
   </g>
   <g id="LineCollection_2">
    <path d="M 332.211052 405.337446
L 332.211052 400.226522
" clip-path="url(#pb0533b884d)" style="fill: none; stroke: #2ecc71; stroke-width: 2"/>
   </g>
   <g id="line2d_25">
    <defs>
     <path id="m4adea24ecb" d="M 0 5
L 0 -5
" style="stroke: #2ecc71; stroke-width: 1.5"/>
    </defs>
    <g clip-path="url(#pb0533b884d)">
     <use xlink:href="#m4adea24ecb" x="321.686455" y="402.781984" style="fill: #2ecc71; stroke: #2ecc71; stroke-width: 1.5"/>
    </g>
   </g>
   <g id="line2d_26">
    <g clip-path="url(#pb0533b884d)">
     <use xlink:href="#m4adea24ecb" x="342.735649" y="402.781984" style="fill: #2ecc71; stroke: #2ecc71; stroke-width: 1.5"/>
    </g>
   </g>
   <g id="line2d_27">
    <defs>
     <path id="m429fc4ae5c" d="M 5 0
L -5 -0
" style="stroke: #2ecc71; stroke-width: 1.5"/>
    </defs>
    <g clip-path="url(#pb0533b884d)">
     <use xlink:href="#m429fc4ae5c" x="332.211052" y="405.337446" style="fill: #2ecc71; stroke: #2ecc71; stroke-width: 1.5"/>
    </g>
   </g>
   <g id="line2d_28">
    <g clip-path="url(#pb0533b884d)">
     <use xlink:href="#m429fc4ae5c" x="332.211052" y="400.226522" style="fill: #2ecc71; stroke: #2ecc71; stroke-width: 1.5"/>
    </g>
   </g>
   <g id="LineCollection_3">
    <path d="M 139.300132 34.522937
L 151.490225 34.522937
" clip-path="url(#pb0533b884d)" style="fill: none; stroke: #3498db; stroke-width: 2"/>
   </g>
   <g id="LineCollection_4">
    <path d="M 145.395179 71.579783
L 145.395179 -1
" clip-path="url(#pb0533b884d)" style="fill: none; stroke: #3498db; stroke-width: 2"/>
   </g>
   <g id="line2d_29">
    <defs>
     <path id="mb902bd2fc4" d="M 0 5
L 0 -5
" style="stroke: #3498db; stroke-width: 1.5"/>
    </defs>
    <g clip-path="url(#pb0533b884d)">
     <use xlink:href="#mb902bd2fc4" x="139.300132" y="34.522937" style="fill: #3498db; stroke: #3498db; stroke-width: 1.5"/>
    </g>
   </g>
   <g id="line2d_30">
    <g clip-path="url(#pb0533b884d)">
     <use xlink:href="#mb902bd2fc4" x="151.490225" y="34.522937" style="fill: #3498db; stroke: #3498db; stroke-width: 1.5"/>
    </g>
   </g>
   <g id="line2d_31">
    <defs>
     <path id="me44f02c8be" d="M 5 0
L -5 -0
" style="stroke: #3498db; stroke-width: 1.5"/>
    </defs>
    <g clip-path="url(#pb0533b884d)">
     <use xlink:href="#me44f02c8be" x="145.395179" y="71.579783" style="fill: #3498db; stroke: #3498db; stroke-width: 1.5"/>
    </g>
   </g>
   <g id="line2d_32">
    <g clip-path="url(#pb0533b884d)"/>
   </g>
   <g id="LineCollection_5">
    <path d="M 264.884365 395.109921
L 272.658624 395.109921
" clip-path="url(#pb0533b884d)" style="fill: none; stroke: #9b59b6; stroke-width: 2"/>
   </g>
   <g id="LineCollection_6">
    <path d="M 268.771495 399.883918
L 268.771495 390.335923
" clip-path="url(#pb0533b884d)" style="fill: none; stroke: #9b59b6; stroke-width: 2"/>
   </g>
   <g id="line2d_33">
    <defs>
     <path id="ma00f28b90c" d="M 0 5
L 0 -5
" style="stroke: #9b59b6; stroke-width: 1.5"/>
    </defs>
    <g clip-path="url(#pb0533b884d)">
     <use xlink:href="#ma00f28b90c" x="264.884365" y="395.109921" style="fill: #9b59b6; stroke: #9b59b6; stroke-width: 1.5"/>
    </g>
   </g>
   <g id="line2d_34">
    <g clip-path="url(#pb0533b884d)">
     <use xlink:href="#ma00f28b90c" x="272.658624" y="395.109921" style="fill: #9b59b6; stroke: #9b59b6; stroke-width: 1.5"/>
    </g>
   </g>
   <g id="line2d_35">
    <defs>
     <path id="mc744f68969" d="M 5 0
L -5 -0
" style="stroke: #9b59b6; stroke-width: 1.5"/>
    </defs>
    <g clip-path="url(#pb0533b884d)">
     <use xlink:href="#mc744f68969" x="268.771495" y="399.883918" style="fill: #9b59b6; stroke: #9b59b6; stroke-width: 1.5"/>
    </g>
   </g>
   <g id="line2d_36">
    <g clip-path="url(#pb0533b884d)">
     <use xlink:href="#mc744f68969" x="268.771495" y="390.335923" style="fill: #9b59b6; stroke: #9b59b6; stroke-width: 1.5"/>
    </g>
   </g>
   <g id="line2d_37">
    <defs>
     <path id="m84578c99f3" d="M 0 7.5
C 1.989023 7.5 3.896849 6.709753 5.303301 5.303301
C 6.709753 3.896849 7.5 1.989023 7.5 0
C 7.5 -1.989023 6.709753 -3.896849 5.303301 -5.303301
C 3.896849 -6.709753 1.989023 -7.5 0 -7.5
C -1.989023 -7.5 -3.896849 -6.709753 -5.303301 -5.303301
C -6.709753 -3.896849 -7.5 -1.989023 -7.5 0
C -7.5 1.989023 -6.709753 3.896849 -5.303301 5.303301
C -3.896849 6.709753 -1.989023 7.5 0 7.5
z
" style="stroke: #000000; stroke-width: 1.5"/>
    </defs>
    <g clip-path="url(#pb0533b884d)">
     <use xlink:href="#m84578c99f3" x="332.211052" y="402.781984" style="fill: #2ecc71; stroke: #000000; stroke-width: 1.5"/>
    </g>
   </g>
   <g id="line2d_38">
    <defs>
     <path id="m7f2dfdd646" d="M -7.5 7.5
L 7.5 7.5
L 7.5 -7.5
L -7.5 -7.5
z
" style="stroke: #000000; stroke-width: 1.5; stroke-linejoin: miter"/>
    </defs>
    <g clip-path="url(#pb0533b884d)">
     <use xlink:href="#m7f2dfdd646" x="145.395179" y="34.522937" style="fill: #3498db; stroke: #000000; stroke-width: 1.5; stroke-linejoin: miter"/>
    </g>
   </g>
   <g id="line2d_39">
    <defs>
     <path id="m14e97f57ac" d="M 0 -7.5
L -7.5 7.5
L 7.5 7.5
z
" style="stroke: #000000; stroke-width: 1.5; stroke-linejoin: miter"/>
    </defs>
    <g clip-path="url(#pb0533b884d)">
     <use xlink:href="#m14e97f57ac" x="268.771495" y="395.109921" style="fill: #9b59b6; stroke: #000000; stroke-width: 1.5; stroke-linejoin: miter"/>
    </g>
   </g>
   <g id="patch_3">
    <path d="M 40.31125 404.7
L 40.31125 70.08
" style="fill: none; stroke: #cccccc; stroke-linejoin: miter; stroke-linecap: square"/>
   </g>
   <g id="patch_4">
    <path d="M 481.66375 404.7
L 481.66375 70.08
" style="fill: none; stroke: #cccccc; stroke-linejoin: miter; stroke-linecap: square"/>
   </g>
   <g id="patch_5">
    <path d="M 40.31125 404.7
L 481.66375 404.7
" style="fill: none; stroke: #cccccc; stroke-linejoin: miter; stroke-linecap: square"/>
   </g>
   <g id="patch_6">
    <path d="M 40.31125 70.08
L 481.66375 70.08
" style="fill: none; stroke: #cccccc; stroke-linejoin: miter; stroke-linecap: square"/>
   </g>
   <g id="text_15">
    <!-- Ideal -->
    <g style="fill: #262626; opacity: 0.5" transform="translate(437.5285 103.542) scale(0.1 -0.1)">
     <defs>
      <path id="DejaVuSans-Oblique-49" d="M 1081 4666
L 1716 4666
L 806 0
L 172 0
L 1081 4666
z
" transform="scale(0.015625)"/>
      <path id="DejaVuSans-Oblique-64" d="M 2675 525
Q 2444 222 2128 65
Q 1813 -91 1428 -91
Q 903 -91 598 267
Q 294 625 294 1247
Q 294 1766 478 2236
Q 663 2706 1013 3078
Q 1244 3325 1534 3454
Q 1825 3584 2144 3584
Q 2481 3584 2739 3421
Q 2997 3259 3138 2956
L 3513 4863
L 4091 4863
L 3144 0
L 2566 0
L 2675 525
z
M 891 1350
Q 891 897 1095 644
Q 1300 391 1663 391
Q 1931 391 2161 520
Q 2391 650 2566 903
Q 2750 1166 2856 1509
Q 2963 1853 2963 2188
Q 2963 2622 2758 2865
Q 2553 3109 2194 3109
Q 1922 3109 1687 2981
Q 1453 2853 1288 2613
Q 1106 2353 998 2009
Q 891 1666 891 1350
z
" transform="scale(0.015625)"/>
      <path id="DejaVuSans-Oblique-65" d="M 3078 2063
Q 3088 2113 3092 2166
Q 3097 2219 3097 2272
Q 3097 2653 2873 2875
Q 2650 3097 2266 3097
Q 1838 3097 1509 2826
Q 1181 2556 1013 2059
L 3078 2063
z
M 3578 1613
L 903 1613
Q 884 1494 878 1425
Q 872 1356 872 1306
Q 872 872 1139 634
Q 1406 397 1894 397
Q 2269 397 2603 481
Q 2938 566 3225 728
L 3116 159
Q 2806 34 2476 -28
Q 2147 -91 1806 -91
Q 1078 -91 686 257
Q 294 606 294 1247
Q 294 1794 489 2264
Q 684 2734 1063 3103
Q 1306 3334 1642 3459
Q 1978 3584 2356 3584
Q 2950 3584 3301 3228
Q 3653 2872 3653 2272
Q 3653 2128 3634 1964
Q 3616 1800 3578 1613
z
" transform="scale(0.015625)"/>
      <path id="DejaVuSans-Oblique-61" d="M 3438 1997
L 3047 0
L 2472 0
L 2578 531
Q 2325 219 2001 64
Q 1678 -91 1281 -91
Q 834 -91 548 182
Q 263 456 263 884
Q 263 1497 752 1853
Q 1241 2209 2100 2209
L 2900 2209
L 2931 2363
Q 2938 2388 2941 2417
Q 2944 2447 2944 2509
Q 2944 2788 2717 2942
Q 2491 3097 2081 3097
Q 1800 3097 1504 3025
Q 1209 2953 897 2809
L 997 3341
Q 1322 3463 1633 3523
Q 1944 3584 2234 3584
Q 2853 3584 3176 3315
Q 3500 3047 3500 2534
Q 3500 2431 3484 2292
Q 3469 2153 3438 1997
z
M 2816 1759
L 2241 1759
Q 1534 1759 1195 1570
Q 856 1381 856 984
Q 856 709 1029 553
Q 1203 397 1509 397
Q 1978 397 2328 733
Q 2678 1069 2791 1631
L 2816 1759
z
" transform="scale(0.015625)"/>
      <path id="DejaVuSans-Oblique-6c" d="M 1172 4863
L 1747 4863
L 800 0
L 225 0
L 1172 4863
z
" transform="scale(0.015625)"/>
     </defs>
     <use xlink:href="#DejaVuSans-Oblique-49"/>
     <use xlink:href="#DejaVuSans-Oblique-64" transform="translate(29.492188 0)"/>
     <use xlink:href="#DejaVuSans-Oblique-65" transform="translate(92.96875 0)"/>
     <use xlink:href="#DejaVuSans-Oblique-61" transform="translate(154.492188 0)"/>
     <use xlink:href="#DejaVuSans-Oblique-6c" transform="translate(215.771484 0)"/>
    </g>
   </g>
   <g id="text_16">
    <!-- (a) Robustness vs Clean Accuracy -->
    <g style="fill: #262626" transform="translate(128.04 64.08) scale(0.14 -0.14)">
     <defs>
      <path id="DejaVuSans-Bold-28" d="M 2413 -844
L 1484 -844
Q 1006 -72 778 623
Q 550 1319 550 2003
Q 550 2688 779 3389
Q 1009 4091 1484 4856
L 2413 4856
Q 2013 4116 1813 3408
Q 1613 2700 1613 2009
Q 1613 1319 1811 609
Q 2009 -100 2413 -844
z
" transform="scale(0.015625)"/>
      <path id="DejaVuSans-Bold-61" d="M 2106 1575
Q 1756 1575 1579 1456
Q 1403 1338 1403 1106
Q 1403 894 1545 773
Q 1688 653 1941 653
Q 2256 653 2472 879
Q 2688 1106 2688 1447
L 2688 1575
L 2106 1575
z
M 3816 1997
L 3816 0
L 2688 0
L 2688 519
Q 2463 200 2181 54
Q 1900 -91 1497 -91
Q 953 -91 614 226
Q 275 544 275 1050
Q 275 1666 698 1953
Q 1122 2241 2028 2241
L 2688 2241
L 2688 2328
Q 2688 2594 2478 2717
Q 2269 2841 1825 2841
Q 1466 2841 1156 2769
Q 847 2697 581 2553
L 581 3406
Q 941 3494 1303 3539
Q 1666 3584 2028 3584
Q 2975 3584 3395 3211
Q 3816 2838 3816 1997
z
" transform="scale(0.015625)"/>
      <path id="DejaVuSans-Bold-29" d="M 513 -844
Q 913 -100 1113 609
Q 1313 1319 1313 2009
Q 1313 2700 1113 3408
Q 913 4116 513 4856
L 1441 4856
Q 1916 4091 2145 3389
Q 2375 2688 2375 2003
Q 2375 1319 2147 623
Q 1919 -72 1441 -844
L 513 -844
z
" transform="scale(0.015625)"/>
      <path id="DejaVuSans-Bold-20" transform="scale(0.015625)"/>
      <path id="DejaVuSans-Bold-52" d="M 2297 2597
Q 2675 2597 2839 2737
Q 3003 2878 3003 3200
Q 3003 3519 2839 3656
Q 2675 3794 2297 3794
L 1791 3794
L 1791 2597
L 2297 2597
z
M 1791 1766
L 1791 0
L 588 0
L 588 4666
L 2425 4666
Q 3347 4666 3776 4356
Q 4206 4047 4206 3378
Q 4206 2916 3982 2619
Q 3759 2322 3309 2181
Q 3556 2125 3751 1926
Q 3947 1728 4147 1325
L 4800 0
L 3519 0
L 2950 1159
Q 2778 1509 2601 1637
Q 2425 1766 2131 1766
L 1791 1766
z
" transform="scale(0.015625)"/>
      <path id="DejaVuSans-Bold-6f" d="M 2203 2784
Q 1831 2784 1636 2517
Q 1441 2250 1441 1747
Q 1441 1244 1636 976
Q 1831 709 2203 709
Q 2569 709 2762 976
Q 2956 1244 2956 1747
Q 2956 2250 2762 2517
Q 2569 2784 2203 2784
z
M 2203 3584
Q 3106 3584 3614 3096
Q 4122 2609 4122 1747
Q 4122 884 3614 396
Q 3106 -91 2203 -91
Q 1297 -91 786 396
Q 275 884 275 1747
Q 275 2609 786 3096
Q 1297 3584 2203 3584
z
" transform="scale(0.015625)"/>
      <path id="DejaVuSans-Bold-62" d="M 2400 722
Q 2759 722 2948 984
Q 3138 1247 3138 1747
Q 3138 2247 2948 2509
Q 2759 2772 2400 2772
Q 2041 2772 1848 2508
Q 1656 2244 1656 1747
Q 1656 1250 1848 986
Q 2041 722 2400 722
z
M 1656 2988
Q 1888 3294 2169 3439
Q 2450 3584 2816 3584
Q 3463 3584 3878 3070
Q 4294 2556 4294 1747
Q 4294 938 3878 423
Q 3463 -91 2816 -91
Q 2450 -91 2169 54
Q 1888 200 1656 506
L 1656 0
L 538 0
L 538 4863
L 1656 4863
L 1656 2988
z
" transform="scale(0.015625)"/>
      <path id="DejaVuSans-Bold-75" d="M 500 1363
L 500 3500
L 1625 3500
L 1625 3150
Q 1625 2866 1622 2436
Q 1619 2006 1619 1863
Q 1619 1441 1641 1255
Q 1663 1069 1716 984
Q 1784 875 1895 815
Q 2006 756 2150 756
Q 2500 756 2700 1025
Q 2900 1294 2900 1772
L 2900 3500
L 4019 3500
L 4019 0
L 2900 0
L 2900 506
Q 2647 200 2364 54
Q 2081 -91 1741 -91
Q 1134 -91 817 281
Q 500 653 500 1363
z
" transform="scale(0.015625)"/>
      <path id="DejaVuSans-Bold-73" d="M 3272 3391
L 3272 2541
Q 2913 2691 2578 2766
Q 2244 2841 1947 2841
Q 1628 2841 1473 2761
Q 1319 2681 1319 2516
Q 1319 2381 1436 2309
Q 1553 2238 1856 2203
L 2053 2175
Q 2913 2066 3209 1816
Q 3506 1566 3506 1031
Q 3506 472 3093 190
Q 2681 -91 1863 -91
Q 1516 -91 1145 -36
Q 775 19 384 128
L 384 978
Q 719 816 1070 734
Q 1422 653 1784 653
Q 2113 653 2278 743
Q 2444 834 2444 1013
Q 2444 1163 2330 1236
Q 2216 1309 1875 1350
L 1678 1375
Q 931 1469 631 1722
Q 331 1975 331 2491
Q 331 3047 712 3315
Q 1094 3584 1881 3584
Q 2191 3584 2531 3537
Q 2872 3491 3272 3391
z
" transform="scale(0.015625)"/>
      <path id="DejaVuSans-Bold-74" d="M 1759 4494
L 1759 3500
L 2913 3500
L 2913 2700
L 1759 2700
L 1759 1216
Q 1759 972 1856 886
Q 1953 800 2241 800
L 2816 800
L 2816 0
L 1856 0
Q 1194 0 917 276
Q 641 553 641 1216
L 641 2700
L 84 2700
L 84 3500
L 641 3500
L 641 4494
L 1759 4494
z
" transform="scale(0.015625)"/>
      <path id="DejaVuSans-Bold-6e" d="M 4056 2131
L 4056 0
L 2931 0
L 2931 347
L 2931 1631
Q 2931 2084 2911 2256
Q 2891 2428 2841 2509
Q 2775 2619 2662 2680
Q 2550 2741 2406 2741
Q 2056 2741 1856 2470
Q 1656 2200 1656 1722
L 1656 0
L 538 0
L 538 3500
L 1656 3500
L 1656 2988
Q 1909 3294 2193 3439
Q 2478 3584 2822 3584
Q 3428 3584 3742 3212
Q 4056 2841 4056 2131
z
" transform="scale(0.015625)"/>
      <path id="DejaVuSans-Bold-65" d="M 4031 1759
L 4031 1441
L 1416 1441
Q 1456 1047 1700 850
Q 1944 653 2381 653
Q 2734 653 3104 758
Q 3475 863 3866 1075
L 3866 213
Q 3469 63 3072 -14
Q 2675 -91 2278 -91
Q 1328 -91 801 392
Q 275 875 275 1747
Q 275 2603 792 3093
Q 1309 3584 2216 3584
Q 3041 3584 3536 3087
Q 4031 2591 4031 1759
z
M 2881 2131
Q 2881 2450 2695 2645
Q 2509 2841 2209 2841
Q 1884 2841 1681 2658
Q 1478 2475 1428 2131
L 2881 2131
z
" transform="scale(0.015625)"/>
      <path id="DejaVuSans-Bold-76" d="M 97 3500
L 1216 3500
L 2088 1081
L 2956 3500
L 4078 3500
L 2700 0
L 1472 0
L 97 3500
z
" transform="scale(0.015625)"/>
      <path id="DejaVuSans-Bold-43" d="M 4288 256
Q 3956 84 3597 -3
Q 3238 -91 2847 -91
Q 1681 -91 1000 561
Q 319 1213 319 2328
Q 319 3447 1000 4098
Q 1681 4750 2847 4750
Q 3238 4750 3597 4662
Q 3956 4575 4288 4403
L 4288 3438
Q 3953 3666 3628 3772
Q 3303 3878 2944 3878
Q 2300 3878 1931 3465
Q 1563 3053 1563 2328
Q 1563 1606 1931 1193
Q 2300 781 2944 781
Q 3303 781 3628 887
Q 3953 994 4288 1222
L 4288 256
z
" transform="scale(0.015625)"/>
      <path id="DejaVuSans-Bold-6c" d="M 538 4863
L 1656 4863
L 1656 0
L 538 0
L 538 4863
z
" transform="scale(0.015625)"/>
      <path id="DejaVuSans-Bold-41" d="M 3419 850
L 1538 850
L 1241 0
L 31 0
L 1759 4666
L 3194 4666
L 4922 0
L 3713 0
L 3419 850
z
M 1838 1716
L 3116 1716
L 2478 3572
L 1838 1716
z
" transform="scale(0.015625)"/>
      <path id="DejaVuSans-Bold-63" d="M 3366 3391
L 3366 2478
Q 3138 2634 2908 2709
Q 2678 2784 2431 2784
Q 1963 2784 1702 2511
Q 1441 2238 1441 1747
Q 1441 1256 1702 982
Q 1963 709 2431 709
Q 2694 709 2930 787
Q 3166 866 3366 1019
L 3366 103
Q 3103 6 2833 -42
Q 2563 -91 2291 -91
Q 1344 -91 809 395
Q 275 881 275 1747
Q 275 2613 809 3098
Q 1344 3584 2291 3584
Q 2566 3584 2833 3536
Q 3100 3488 3366 3391
z
" transform="scale(0.015625)"/>
      <path id="DejaVuSans-Bold-72" d="M 3138 2547
Q 2991 2616 2845 2648
Q 2700 2681 2553 2681
Q 2122 2681 1889 2404
Q 1656 2128 1656 1613
L 1656 0
L 538 0
L 538 3500
L 1656 3500
L 1656 2925
Q 1872 3269 2151 3426
Q 2431 3584 2822 3584
Q 2878 3584 2943 3579
Q 3009 3575 3134 3559
L 3138 2547
z
" transform="scale(0.015625)"/>
      <path id="DejaVuSans-Bold-79" d="M 78 3500
L 1197 3500
L 2138 1125
L 2938 3500
L 4056 3500
L 2584 -331
Q 2363 -916 2067 -1148
Q 1772 -1381 1288 -1381
L 641 -1381
L 641 -647
L 991 -647
Q 1275 -647 1404 -556
Q 1534 -466 1606 -231
L 1638 -134
L 78 3500
z
" transform="scale(0.015625)"/>
     </defs>
     <use xlink:href="#DejaVuSans-Bold-28"/>
     <use xlink:href="#DejaVuSans-Bold-61" transform="translate(45.703125 0)"/>
     <use xlink:href="#DejaVuSans-Bold-29" transform="translate(113.183594 0)"/>
     <use xlink:href="#DejaVuSans-Bold-20" transform="translate(158.886719 0)"/>
     <use xlink:href="#DejaVuSans-Bold-52" transform="translate(193.701172 0)"/>
     <use xlink:href="#DejaVuSans-Bold-6f" transform="translate(270.703125 0)"/>
     <use xlink:href="#DejaVuSans-Bold-62" transform="translate(339.404297 0)"/>
     <use xlink:href="#DejaVuSans-Bold-75" transform="translate(410.986328 0)"/>
     <use xlink:href="#DejaVuSans-Bold-73" transform="translate(482.177734 0)"/>
     <use xlink:href="#DejaVuSans-Bold-74" transform="translate(541.699219 0)"/>
     <use xlink:href="#DejaVuSans-Bold-6e" transform="translate(589.501953 0)"/>
     <use xlink:href="#DejaVuSans-Bold-65" transform="translate(660.693359 0)"/>
     <use xlink:href="#DejaVuSans-Bold-73" transform="translate(728.515625 0)"/>
     <use xlink:href="#DejaVuSans-Bold-73" transform="translate(788.037109 0)"/>
     <use xlink:href="#DejaVuSans-Bold-20" transform="translate(847.558594 0)"/>
     <use xlink:href="#DejaVuSans-Bold-76" transform="translate(882.373047 0)"/>
     <use xlink:href="#DejaVuSans-Bold-73" transform="translate(947.558594 0)"/>
     <use xlink:href="#DejaVuSans-Bold-20" transform="translate(1007.080078 0)"/>
     <use xlink:href="#DejaVuSans-Bold-43" transform="translate(1041.894531 0)"/>
     <use xlink:href="#DejaVuSans-Bold-6c" transform="translate(1115.283203 0)"/>
     <use xlink:href="#DejaVuSans-Bold-65" transform="translate(1149.560547 0)"/>
     <use xlink:href="#DejaVuSans-Bold-61" transform="translate(1217.382812 0)"/>
     <use xlink:href="#DejaVuSans-Bold-6e" transform="translate(1284.863281 0)"/>
     <use xlink:href="#DejaVuSans-Bold-20" transform="translate(1356.054688 0)"/>
     <use xlink:href="#DejaVuSans-Bold-41" transform="translate(1390.869141 0)"/>
     <use xlink:href="#DejaVuSans-Bold-63" transform="translate(1468.261719 0)"/>
     <use xlink:href="#DejaVuSans-Bold-63" transform="translate(1527.539062 0)"/>
     <use xlink:href="#DejaVuSans-Bold-75" transform="translate(1586.816406 0)"/>
     <use xlink:href="#DejaVuSans-Bold-72" transform="translate(1658.007812 0)"/>
     <use xlink:href="#DejaVuSans-Bold-61" transform="translate(1707.324219 0)"/>
     <use xlink:href="#DejaVuSans-Bold-63" transform="translate(1774.804688 0)"/>
     <use xlink:href="#DejaVuSans-Bold-79" transform="translate(1834.082031 0)"/>
    </g>
   </g>
   <g id="PathCollection_1">
    <path d="M 332.211052 411.442238
C 334.507778 411.442238 336.710745 410.529739 338.334776 408.905708
C 339.958807 407.281678 340.871306 405.07871 340.871306 402.781984
C 340.871306 400.485258 339.958807 398.28229 338.334776 396.65826
C 336.710745 395.034229 334.507778 394.12173 332.211052 394.12173
C 329.914325 394.12173 327.711358 395.034229 326.087327 396.65826
C 324.463297 398.28229 323.550798 400.485258 323.550798 402.781984
C 323.550798 405.07871 324.463297 407.281678 326.087327 408.905708
C 327.711358 410.529739 329.914325 411.442238 332.211052 411.442238
L 332.211052 411.442238
z
" clip-path="url(#pb0533b884d)" style="fill: none; stroke: #ffd700; stroke-width: 3"/>
   </g>
   <g id="PathCollection_2">
    <path d="M 145.395179 43.183191
C 147.691905 43.183191 149.894872 42.270692 151.518903 40.646661
C 153.142934 39.02263 154.055433 36.819663 154.055433 34.522937
C 154.055433 32.22621 153.142934 30.023243 151.518903 28.399212
C 149.894872 26.775181 147.691905 25.862682 145.395179 25.862682
C 143.098452 25.862682 140.895485 26.775181 139.271454 28.399212
C 137.647424 30.023243 136.734925 32.22621 136.734925 34.522937
C 136.734925 36.819663 137.647424 39.02263 139.271454 40.646661
C 140.895485 42.270692 143.098452 43.183191 145.395179 43.183191
L 145.395179 43.183191
z
" clip-path="url(#pb0533b884d)" style="fill: none; stroke: #ffd700; stroke-width: 3"/>
   </g>
   <g id="PathCollection_3">
    <path d="M 268.771495 403.770175
C 271.068221 403.770175 273.271188 402.857676 274.895219 401.233645
C 276.51925 399.609614 277.431749 397.406647 277.431749 395.109921
C 277.431749 392.813194 276.51925 390.610227 274.895219 388.986196
C 273.271188 387.362166 271.068221 386.449667 268.771495 386.449667
C 266.474768 386.449667 264.271801 387.362166 262.64777 388.986196
C 261.02374 390.610227 260.111241 392.813194 260.111241 395.109921
C 260.111241 397.406647 261.02374 399.609614 262.64777 401.233645
C 264.271801 402.857676 266.474768 403.770175 268.771495 403.770175
L 268.771495 403.770175
z
" clip-path="url(#pb0533b884d)" style="fill: none; stroke: #ffd700; stroke-width: 3"/>
   </g>
   <g id="legend_1">
    <g id="LineCollection_7">
     <path d="M 377.35625 356.370469
L 388.35625 356.370469
" style="fill: none; stroke: #2ecc71; stroke-width: 2"/>
    </g>
    <g id="LineCollection_8">
     <path d="M 382.85625 361.870469
L 382.85625 350.870469
" style="fill: none; stroke: #2ecc71; stroke-width: 2"/>
    </g>
    <g id="line2d_40">
     <g>
      <use xlink:href="#m4adea24ecb" x="377.35625" y="356.370469" style="fill: #2ecc71; stroke: #2ecc71; stroke-width: 1.5"/>
     </g>
    </g>
    <g id="line2d_41">
     <g>
      <use xlink:href="#m4adea24ecb" x="388.35625" y="356.370469" style="fill: #2ecc71; stroke: #2ecc71; stroke-width: 1.5"/>
     </g>
    </g>
    <g id="line2d_42">
     <g>
      <use xlink:href="#m429fc4ae5c" x="382.85625" y="361.870469" style="fill: #2ecc71; stroke: #2ecc71; stroke-width: 1.5"/>
     </g>
    </g>
    <g id="line2d_43">
     <g>
      <use xlink:href="#m429fc4ae5c" x="382.85625" y="350.870469" style="fill: #2ecc71; stroke: #2ecc71; stroke-width: 1.5"/>
     </g>
    </g>
    <g id="line2d_44"/>
    <g id="line2d_45">
     <g>
      <use xlink:href="#m84578c99f3" x="382.85625" y="356.370469" style="fill: #2ecc71; stroke: #000000; stroke-width: 1.5"/>
     </g>
    </g>
    <g id="text_17">
     <!-- Baseline -->
     <g style="fill: #262626" transform="translate(402.65625 360.220469) scale(0.11 -0.11)">
      <defs>
       <path id="DejaVuSans-42" d="M 1259 2228
L 1259 519
L 2272 519
Q 2781 519 3026 730
Q 3272 941 3272 1375
Q 3272 1813 3026 2020
Q 2781 2228 2272 2228
L 1259 2228
z
M 1259 4147
L 1259 2741
L 2194 2741
Q 2656 2741 2882 2914
Q 3109 3088 3109 3444
Q 3109 3797 2882 3972
Q 2656 4147 2194 4147
L 1259 4147
z
M 628 4666
L 2241 4666
Q 2963 4666 3353 4366
Q 3744 4066 3744 3513
Q 3744 3084 3544 2831
Q 3344 2578 2956 2516
Q 3422 2416 3680 2098
Q 3938 1781 3938 1306
Q 3938 681 3513 340
Q 3088 0 2303 0
L 628 0
L 628 4666
z
" transform="scale(0.015625)"/>
       <path id="DejaVuSans-69" d="M 603 3500
L 1178 3500
L 1178 0
L 603 0
L 603 3500
z
M 603 4863
L 1178 4863
L 1178 4134
L 603 4134
L 603 4863
z
" transform="scale(0.015625)"/>
      </defs>
      <use xlink:href="#DejaVuSans-42"/>
      <use xlink:href="#DejaVuSans-61" transform="translate(68.603516 0)"/>
      <use xlink:href="#DejaVuSans-73" transform="translate(129.882812 0)"/>
      <use xlink:href="#DejaVuSans-65" transform="translate(181.982422 0)"/>
      <use xlink:href="#DejaVuSans-6c" transform="translate(243.505859 0)"/>
      <use xlink:href="#DejaVuSans-69" transform="translate(271.289062 0)"/>
      <use xlink:href="#DejaVuSans-6e" transform="translate(299.072266 0)"/>
      <use xlink:href="#DejaVuSans-65" transform="translate(362.451172 0)"/>
     </g>
    </g>
    <g id="LineCollection_9">
     <path d="M 377.35625 372.516406
L 388.35625 372.516406
" style="fill: none; stroke: #3498db; stroke-width: 2"/>
    </g>
    <g id="LineCollection_10">
     <path d="M 382.85625 378.016406
L 382.85625 367.016406
" style="fill: none; stroke: #3498db; stroke-width: 2"/>
    </g>
    <g id="line2d_46">
     <g>
      <use xlink:href="#mb902bd2fc4" x="377.35625" y="372.516406" style="fill: #3498db; stroke: #3498db; stroke-width: 1.5"/>
     </g>
    </g>
    <g id="line2d_47">
     <g>
      <use xlink:href="#mb902bd2fc4" x="388.35625" y="372.516406" style="fill: #3498db; stroke: #3498db; stroke-width: 1.5"/>
     </g>
    </g>
    <g id="line2d_48">
     <g>
      <use xlink:href="#me44f02c8be" x="382.85625" y="378.016406" style="fill: #3498db; stroke: #3498db; stroke-width: 1.5"/>
     </g>
    </g>
    <g id="line2d_49">
     <g>
      <use xlink:href="#me44f02c8be" x="382.85625" y="367.016406" style="fill: #3498db; stroke: #3498db; stroke-width: 1.5"/>
     </g>
    </g>
    <g id="line2d_50"/>
    <g id="line2d_51">
     <g>
      <use xlink:href="#m7f2dfdd646" x="382.85625" y="372.516406" style="fill: #3498db; stroke: #000000; stroke-width: 1.5; stroke-linejoin: miter"/>
     </g>
    </g>
    <g id="text_18">
     <!-- TRADES -->
     <g style="fill: #262626" transform="translate(402.65625 376.366406) scale(0.11 -0.11)">
      <defs>
       <path id="DejaVuSans-54" d="M -19 4666
L 3928 4666
L 3928 4134
L 2272 4134
L 2272 0
L 1638 0
L 1638 4134
L -19 4134
L -19 4666
z
" transform="scale(0.015625)"/>
       <path id="DejaVuSans-44" d="M 1259 4147
L 1259 519
L 2022 519
Q 2988 519 3436 956
Q 3884 1394 3884 2338
Q 3884 3275 3436 3711
Q 2988 4147 2022 4147
L 1259 4147
z
M 628 4666
L 1925 4666
Q 3281 4666 3915 4102
Q 4550 3538 4550 2338
Q 4550 1131 3912 565
Q 3275 0 1925 0
L 628 0
L 628 4666
z
" transform="scale(0.015625)"/>
       <path id="DejaVuSans-45" d="M 628 4666
L 3578 4666
L 3578 4134
L 1259 4134
L 1259 2753
L 3481 2753
L 3481 2222
L 1259 2222
L 1259 531
L 3634 531
L 3634 0
L 628 0
L 628 4666
z
" transform="scale(0.015625)"/>
       <path id="DejaVuSans-53" d="M 3425 4513
L 3425 3897
Q 3066 4069 2747 4153
Q 2428 4238 2131 4238
Q 1616 4238 1336 4038
Q 1056 3838 1056 3469
Q 1056 3159 1242 3001
Q 1428 2844 1947 2747
L 2328 2669
Q 3034 2534 3370 2195
Q 3706 1856 3706 1288
Q 3706 609 3251 259
Q 2797 -91 1919 -91
Q 1588 -91 1214 -16
Q 841 59 441 206
L 441 856
Q 825 641 1194 531
Q 1563 422 1919 422
Q 2459 422 2753 634
Q 3047 847 3047 1241
Q 3047 1584 2836 1778
Q 2625 1972 2144 2069
L 1759 2144
Q 1053 2284 737 2584
Q 422 2884 422 3419
Q 422 4038 858 4394
Q 1294 4750 2059 4750
Q 2388 4750 2728 4690
Q 3069 4631 3425 4513
z
" transform="scale(0.015625)"/>
      </defs>
      <use xlink:href="#DejaVuSans-54"/>
      <use xlink:href="#DejaVuSans-52" transform="translate(61.083984 0)"/>
      <use xlink:href="#DejaVuSans-41" transform="translate(126.566406 0)"/>
      <use xlink:href="#DejaVuSans-44" transform="translate(194.974609 0)"/>
      <use xlink:href="#DejaVuSans-45" transform="translate(271.976562 0)"/>
      <use xlink:href="#DejaVuSans-53" transform="translate(335.160156 0)"/>
     </g>
    </g>
    <g id="LineCollection_11">
     <path d="M 377.35625 388.662344
L 388.35625 388.662344
" style="fill: none; stroke: #9b59b6; stroke-width: 2"/>
    </g>
    <g id="LineCollection_12">
     <path d="M 382.85625 394.162344
L 382.85625 383.162344
" style="fill: none; stroke: #9b59b6; stroke-width: 2"/>
    </g>
    <g id="line2d_52">
     <g>
      <use xlink:href="#ma00f28b90c" x="377.35625" y="388.662344" style="fill: #9b59b6; stroke: #9b59b6; stroke-width: 1.5"/>
     </g>
    </g>
    <g id="line2d_53">
     <g>
      <use xlink:href="#ma00f28b90c" x="388.35625" y="388.662344" style="fill: #9b59b6; stroke: #9b59b6; stroke-width: 1.5"/>
     </g>
    </g>
    <g id="line2d_54">
     <g>
      <use xlink:href="#mc744f68969" x="382.85625" y="394.162344" style="fill: #9b59b6; stroke: #9b59b6; stroke-width: 1.5"/>
     </g>
    </g>
    <g id="line2d_55">
     <g>
      <use xlink:href="#mc744f68969" x="382.85625" y="383.162344" style="fill: #9b59b6; stroke: #9b59b6; stroke-width: 1.5"/>
     </g>
    </g>
    <g id="line2d_56"/>
    <g id="line2d_57">
     <g>
      <use xlink:href="#m14e97f57ac" x="382.85625" y="388.662344" style="fill: #9b59b6; stroke: #000000; stroke-width: 1.5; stroke-linejoin: miter"/>
     </g>
    </g>
    <g id="text_19">
     <!-- Tri-Objective -->
     <g style="fill: #262626" transform="translate(402.65625 392.512344) scale(0.11 -0.11)">
      <defs>
       <path id="DejaVuSans-2d" d="M 313 2009
L 1997 2009
L 1997 1497
L 313 1497
L 313 2009
z
" transform="scale(0.015625)"/>
       <path id="DejaVuSans-4f" d="M 2522 4238
Q 1834 4238 1429 3725
Q 1025 3213 1025 2328
Q 1025 1447 1429 934
Q 1834 422 2522 422
Q 3209 422 3611 934
Q 4013 1447 4013 2328
Q 4013 3213 3611 3725
Q 3209 4238 2522 4238
z
M 2522 4750
Q 3503 4750 4090 4092
Q 4678 3434 4678 2328
Q 4678 1225 4090 567
Q 3503 -91 2522 -91
Q 1538 -91 948 565
Q 359 1222 359 2328
Q 359 3434 948 4092
Q 1538 4750 2522 4750
z
" transform="scale(0.015625)"/>
       <path id="DejaVuSans-6a" d="M 603 3500
L 1178 3500
L 1178 -63
Q 1178 -731 923 -1031
Q 669 -1331 103 -1331
L -116 -1331
L -116 -844
L 38 -844
Q 366 -844 484 -692
Q 603 -541 603 -63
L 603 3500
z
M 603 4863
L 1178 4863
L 1178 4134
L 603 4134
L 603 4863
z
" transform="scale(0.015625)"/>
       <path id="DejaVuSans-76" d="M 191 3500
L 800 3500
L 1894 563
L 2988 3500
L 3597 3500
L 2284 0
L 1503 0
L 191 3500
z
" transform="scale(0.015625)"/>
      </defs>
      <use xlink:href="#DejaVuSans-54"/>
      <use xlink:href="#DejaVuSans-72" transform="translate(46.333984 0)"/>
      <use xlink:href="#DejaVuSans-69" transform="translate(87.447266 0)"/>
      <use xlink:href="#DejaVuSans-2d" transform="translate(115.230469 0)"/>
      <use xlink:href="#DejaVuSans-4f" transform="translate(154.064453 0)"/>
      <use xlink:href="#DejaVuSans-62" transform="translate(232.775391 0)"/>
      <use xlink:href="#DejaVuSans-6a" transform="translate(296.251953 0)"/>
      <use xlink:href="#DejaVuSans-65" transform="translate(324.035156 0)"/>
      <use xlink:href="#DejaVuSans-63" transform="translate(385.558594 0)"/>
      <use xlink:href="#DejaVuSans-74" transform="translate(440.539062 0)"/>
      <use xlink:href="#DejaVuSans-69" transform="translate(479.748047 0)"/>
      <use xlink:href="#DejaVuSans-76" transform="translate(507.53125 0)"/>
      <use xlink:href="#DejaVuSans-65" transform="translate(566.710938 0)"/>
     </g>
    </g>
   </g>
  </g>
  <g id="axes_2">
   <g id="patch_7">
    <path d="M 541.85875 404.7
L 983.21125 404.7
L 983.21125 70.08
L 541.85875 70.08
z
" style="fill: #ffffff"/>
   </g>
   <g id="matplotlib.axis_3">
    <g id="xtick_7">
     <g id="line2d_58">
      <path d="M 541.85875 404.7
L 541.85875 70.08
" clip-path="url(#pb5a0fb9c07)" style="fill: none; stroke: #cccccc; stroke-opacity: 0.3; stroke-width: 0.8; stroke-linecap: round"/>
     </g>
     <g id="line2d_59"/>
     <g id="text_20">
      <!-- 0 -->
      <g style="fill: #262626" transform="translate(538.359375 416.558281) scale(0.11 -0.11)">
       <use xlink:href="#DejaVuSans-30"/>
      </g>
     </g>
    </g>
    <g id="xtick_8">
     <g id="line2d_60">
      <path d="M 630.12925 404.7
L 630.12925 70.08
" clip-path="url(#pb5a0fb9c07)" style="fill: none; stroke: #cccccc; stroke-opacity: 0.3; stroke-width: 0.8; stroke-linecap: round"/>
     </g>
     <g id="line2d_61"/>
     <g id="text_21">
      <!-- 10 -->
      <g style="fill: #262626" transform="translate(623.1305 416.558281) scale(0.11 -0.11)">
       <use xlink:href="#DejaVuSans-31"/>
       <use xlink:href="#DejaVuSans-30" transform="translate(63.623047 0)"/>
      </g>
     </g>
    </g>
    <g id="xtick_9">
     <g id="line2d_62">
      <path d="M 718.39975 404.7
L 718.39975 70.08
" clip-path="url(#pb5a0fb9c07)" style="fill: none; stroke: #cccccc; stroke-opacity: 0.3; stroke-width: 0.8; stroke-linecap: round"/>
     </g>
     <g id="line2d_63"/>
     <g id="text_22">
      <!-- 20 -->
      <g style="fill: #262626" transform="translate(711.401 416.558281) scale(0.11 -0.11)">
       <use xlink:href="#DejaVuSans-32"/>
       <use xlink:href="#DejaVuSans-30" transform="translate(63.623047 0)"/>
      </g>
     </g>
    </g>
    <g id="xtick_10">
     <g id="line2d_64">
      <path d="M 806.67025 404.7
L 806.67025 70.08
" clip-path="url(#pb5a0fb9c07)" style="fill: none; stroke: #cccccc; stroke-opacity: 0.3; stroke-width: 0.8; stroke-linecap: round"/>
     </g>
     <g id="line2d_65"/>
     <g id="text_23">
      <!-- 30 -->
      <g style="fill: #262626" transform="translate(799.6715 416.558281) scale(0.11 -0.11)">
       <use xlink:href="#DejaVuSans-33"/>
       <use xlink:href="#DejaVuSans-30" transform="translate(63.623047 0)"/>
      </g>
     </g>
    </g>
    <g id="xtick_11">
     <g id="line2d_66">
      <path d="M 894.94075 404.7
L 894.94075 70.08
" clip-path="url(#pb5a0fb9c07)" style="fill: none; stroke: #cccccc; stroke-opacity: 0.3; stroke-width: 0.8; stroke-linecap: round"/>
     </g>
     <g id="line2d_67"/>
     <g id="text_24">
      <!-- 40 -->
      <g style="fill: #262626" transform="translate(887.942 416.558281) scale(0.11 -0.11)">
       <use xlink:href="#DejaVuSans-34"/>
       <use xlink:href="#DejaVuSans-30" transform="translate(63.623047 0)"/>
      </g>
     </g>
    </g>
    <g id="xtick_12">
     <g id="line2d_68">
      <path d="M 983.21125 404.7
L 983.21125 70.08
" clip-path="url(#pb5a0fb9c07)" style="fill: none; stroke: #cccccc; stroke-opacity: 0.3; stroke-width: 0.8; stroke-linecap: round"/>
     </g>
     <g id="line2d_69"/>
     <g id="text_25">
      <!-- 50 -->
      <g style="fill: #262626" transform="translate(976.2125 416.558281) scale(0.11 -0.11)">
       <use xlink:href="#DejaVuSans-35"/>
       <use xlink:href="#DejaVuSans-30" transform="translate(63.623047 0)"/>
      </g>
     </g>
    </g>
    <g id="text_26">
     <!-- Robust Accuracy (%) -->
     <g style="fill: #262626" transform="translate(700.285 431.964062) scale(0.12 -0.12)">
      <use xlink:href="#DejaVuSans-52"/>
      <use xlink:href="#DejaVuSans-6f" transform="translate(64.982422 0)"/>
      <use xlink:href="#DejaVuSans-62" transform="translate(126.164062 0)"/>
      <use xlink:href="#DejaVuSans-75" transform="translate(189.640625 0)"/>
      <use xlink:href="#DejaVuSans-73" transform="translate(253.019531 0)"/>
      <use xlink:href="#DejaVuSans-74" transform="translate(305.119141 0)"/>
      <use xlink:href="#DejaVuSans-20" transform="translate(344.328125 0)"/>
      <use xlink:href="#DejaVuSans-41" transform="translate(376.115234 0)"/>
      <use xlink:href="#DejaVuSans-63" transform="translate(442.773438 0)"/>
      <use xlink:href="#DejaVuSans-63" transform="translate(497.753906 0)"/>
      <use xlink:href="#DejaVuSans-75" transform="translate(552.734375 0)"/>
      <use xlink:href="#DejaVuSans-72" transform="translate(616.113281 0)"/>
      <use xlink:href="#DejaVuSans-61" transform="translate(657.226562 0)"/>
      <use xlink:href="#DejaVuSans-63" transform="translate(718.505859 0)"/>
      <use xlink:href="#DejaVuSans-79" transform="translate(773.486328 0)"/>
      <use xlink:href="#DejaVuSans-20" transform="translate(832.666016 0)"/>
      <use xlink:href="#DejaVuSans-28" transform="translate(864.453125 0)"/>
      <use xlink:href="#DejaVuSans-25" transform="translate(903.466797 0)"/>
      <use xlink:href="#DejaVuSans-29" transform="translate(998.486328 0)"/>
     </g>
    </g>
   </g>
   <g id="matplotlib.axis_4">
    <g id="ytick_7">
     <g id="line2d_70">
      <path d="M 541.85875 404.7
L 983.21125 404.7
" clip-path="url(#pb5a0fb9c07)" style="fill: none; stroke: #cccccc; stroke-opacity: 0.3; stroke-width: 0.8; stroke-linecap: round"/>
     </g>
     <g id="line2d_71"/>
     <g id="text_27">
      <!-- 0.3 -->
      <g style="fill: #262626" transform="translate(520.865313 408.879141) scale(0.11 -0.11)">
       <defs>
        <path id="DejaVuSans-2e" d="M 684 794
L 1344 794
L 1344 0
L 684 0
L 684 794
z
" transform="scale(0.015625)"/>
       </defs>
       <use xlink:href="#DejaVuSans-30"/>
       <use xlink:href="#DejaVuSans-2e" transform="translate(63.623047 0)"/>
       <use xlink:href="#DejaVuSans-33" transform="translate(95.410156 0)"/>
      </g>
     </g>
    </g>
    <g id="ytick_8">
     <g id="line2d_72">
      <path d="M 541.85875 356.897143
L 983.21125 356.897143
" clip-path="url(#pb5a0fb9c07)" style="fill: none; stroke: #cccccc; stroke-opacity: 0.3; stroke-width: 0.8; stroke-linecap: round"/>
     </g>
     <g id="line2d_73"/>
     <g id="text_28">
      <!-- 0.4 -->
      <g style="fill: #262626" transform="translate(520.865313 361.076283) scale(0.11 -0.11)">
       <use xlink:href="#DejaVuSans-30"/>
       <use xlink:href="#DejaVuSans-2e" transform="translate(63.623047 0)"/>
       <use xlink:href="#DejaVuSans-34" transform="translate(95.410156 0)"/>
      </g>
     </g>
    </g>
    <g id="ytick_9">
     <g id="line2d_74">
      <path d="M 541.85875 309.094286
L 983.21125 309.094286
" clip-path="url(#pb5a0fb9c07)" style="fill: none; stroke: #cccccc; stroke-opacity: 0.3; stroke-width: 0.8; stroke-linecap: round"/>
     </g>
     <g id="line2d_75"/>
     <g id="text_29">
      <!-- 0.5 -->
      <g style="fill: #262626" transform="translate(520.865313 313.273426) scale(0.11 -0.11)">
       <use xlink:href="#DejaVuSans-30"/>
       <use xlink:href="#DejaVuSans-2e" transform="translate(63.623047 0)"/>
       <use xlink:href="#DejaVuSans-35" transform="translate(95.410156 0)"/>
      </g>
     </g>
    </g>
    <g id="ytick_10">
     <g id="line2d_76">
      <path d="M 541.85875 261.291429
L 983.21125 261.291429
" clip-path="url(#pb5a0fb9c07)" style="fill: none; stroke: #cccccc; stroke-opacity: 0.3; stroke-width: 0.8; stroke-linecap: round"/>
     </g>
     <g id="line2d_77"/>
     <g id="text_30">
      <!-- 0.6 -->
      <g style="fill: #262626" transform="translate(520.865313 265.470569) scale(0.11 -0.11)">
       <use xlink:href="#DejaVuSans-30"/>
       <use xlink:href="#DejaVuSans-2e" transform="translate(63.623047 0)"/>
       <use xlink:href="#DejaVuSans-36" transform="translate(95.410156 0)"/>
      </g>
     </g>
    </g>
    <g id="ytick_11">
     <g id="line2d_78">
      <path d="M 541.85875 213.488571
L 983.21125 213.488571
" clip-path="url(#pb5a0fb9c07)" style="fill: none; stroke: #cccccc; stroke-opacity: 0.3; stroke-width: 0.8; stroke-linecap: round"/>
     </g>
     <g id="line2d_79"/>
     <g id="text_31">
      <!-- 0.7 -->
      <g style="fill: #262626" transform="translate(520.865313 217.667712) scale(0.11 -0.11)">
       <use xlink:href="#DejaVuSans-30"/>
       <use xlink:href="#DejaVuSans-2e" transform="translate(63.623047 0)"/>
       <use xlink:href="#DejaVuSans-37" transform="translate(95.410156 0)"/>
      </g>
     </g>
    </g>
    <g id="ytick_12">
     <g id="line2d_80">
      <path d="M 541.85875 165.685714
L 983.21125 165.685714
" clip-path="url(#pb5a0fb9c07)" style="fill: none; stroke: #cccccc; stroke-opacity: 0.3; stroke-width: 0.8; stroke-linecap: round"/>
     </g>
     <g id="line2d_81"/>
     <g id="text_32">
      <!-- 0.8 -->
      <g style="fill: #262626" transform="translate(520.865313 169.864855) scale(0.11 -0.11)">
       <use xlink:href="#DejaVuSans-30"/>
       <use xlink:href="#DejaVuSans-2e" transform="translate(63.623047 0)"/>
       <use xlink:href="#DejaVuSans-38" transform="translate(95.410156 0)"/>
      </g>
     </g>
    </g>
    <g id="ytick_13">
     <g id="line2d_82">
      <path d="M 541.85875 117.882857
L 983.21125 117.882857
" clip-path="url(#pb5a0fb9c07)" style="fill: none; stroke: #cccccc; stroke-opacity: 0.3; stroke-width: 0.8; stroke-linecap: round"/>
     </g>
     <g id="line2d_83"/>
     <g id="text_33">
      <!-- 0.9 -->
      <g style="fill: #262626" transform="translate(520.865313 122.061998) scale(0.11 -0.11)">
       <use xlink:href="#DejaVuSans-30"/>
       <use xlink:href="#DejaVuSans-2e" transform="translate(63.623047 0)"/>
       <use xlink:href="#DejaVuSans-39" transform="translate(95.410156 0)"/>
      </g>
     </g>
    </g>
    <g id="ytick_14">
     <g id="line2d_84">
      <path d="M 541.85875 70.08
L 983.21125 70.08
" clip-path="url(#pb5a0fb9c07)" style="fill: none; stroke: #cccccc; stroke-opacity: 0.3; stroke-width: 0.8; stroke-linecap: round"/>
     </g>
     <g id="line2d_85"/>
     <g id="text_34">
      <!-- 1.0 -->
      <g style="fill: #262626" transform="translate(520.865313 74.259141) scale(0.11 -0.11)">
       <use xlink:href="#DejaVuSans-31"/>
       <use xlink:href="#DejaVuSans-2e" transform="translate(63.623047 0)"/>
       <use xlink:href="#DejaVuSans-30" transform="translate(95.410156 0)"/>
      </g>
     </g>
    </g>
    <g id="text_35">
     <!-- Explanation Stability (SSIM) -->
     <g style="fill: #262626" transform="translate(514.369688 320.469375) rotate(-90) scale(0.12 -0.12)">
      <defs>
       <path id="DejaVuSans-78" d="M 3513 3500
L 2247 1797
L 3578 0
L 2900 0
L 1881 1375
L 863 0
L 184 0
L 1544 1831
L 300 3500
L 978 3500
L 1906 2253
L 2834 3500
L 3513 3500
z
" transform="scale(0.015625)"/>
       <path id="DejaVuSans-70" d="M 1159 525
L 1159 -1331
L 581 -1331
L 581 3500
L 1159 3500
L 1159 2969
Q 1341 3281 1617 3432
Q 1894 3584 2278 3584
Q 2916 3584 3314 3078
Q 3713 2572 3713 1747
Q 3713 922 3314 415
Q 2916 -91 2278 -91
Q 1894 -91 1617 61
Q 1341 213 1159 525
z
M 3116 1747
Q 3116 2381 2855 2742
Q 2594 3103 2138 3103
Q 1681 3103 1420 2742
Q 1159 2381 1159 1747
Q 1159 1113 1420 752
Q 1681 391 2138 391
Q 2594 391 2855 752
Q 3116 1113 3116 1747
z
" transform="scale(0.015625)"/>
       <path id="DejaVuSans-49" d="M 628 4666
L 1259 4666
L 1259 0
L 628 0
L 628 4666
z
" transform="scale(0.015625)"/>
       <path id="DejaVuSans-4d" d="M 628 4666
L 1569 4666
L 2759 1491
L 3956 4666
L 4897 4666
L 4897 0
L 4281 0
L 4281 4097
L 3078 897
L 2444 897
L 1241 4097
L 1241 0
L 628 0
L 628 4666
z
" transform="scale(0.015625)"/>
      </defs>
      <use xlink:href="#DejaVuSans-45"/>
      <use xlink:href="#DejaVuSans-78" transform="translate(63.183594 0)"/>
      <use xlink:href="#DejaVuSans-70" transform="translate(122.363281 0)"/>
      <use xlink:href="#DejaVuSans-6c" transform="translate(185.839844 0)"/>
      <use xlink:href="#DejaVuSans-61" transform="translate(213.623047 0)"/>
      <use xlink:href="#DejaVuSans-6e" transform="translate(274.902344 0)"/>
      <use xlink:href="#DejaVuSans-61" transform="translate(338.28125 0)"/>
      <use xlink:href="#DejaVuSans-74" transform="translate(399.560547 0)"/>
      <use xlink:href="#DejaVuSans-69" transform="translate(438.769531 0)"/>
      <use xlink:href="#DejaVuSans-6f" transform="translate(466.552734 0)"/>
      <use xlink:href="#DejaVuSans-6e" transform="translate(527.734375 0)"/>
      <use xlink:href="#DejaVuSans-20" transform="translate(591.113281 0)"/>
      <use xlink:href="#DejaVuSans-53" transform="translate(622.900391 0)"/>
      <use xlink:href="#DejaVuSans-74" transform="translate(686.376953 0)"/>
      <use xlink:href="#DejaVuSans-61" transform="translate(725.585938 0)"/>
      <use xlink:href="#DejaVuSans-62" transform="translate(786.865234 0)"/>
      <use xlink:href="#DejaVuSans-69" transform="translate(850.341797 0)"/>
      <use xlink:href="#DejaVuSans-6c" transform="translate(878.125 0)"/>
      <use xlink:href="#DejaVuSans-69" transform="translate(905.908203 0)"/>
      <use xlink:href="#DejaVuSans-74" transform="translate(933.691406 0)"/>
      <use xlink:href="#DejaVuSans-79" transform="translate(972.900391 0)"/>
      <use xlink:href="#DejaVuSans-20" transform="translate(1032.080078 0)"/>
      <use xlink:href="#DejaVuSans-28" transform="translate(1063.867188 0)"/>
      <use xlink:href="#DejaVuSans-53" transform="translate(1102.880859 0)"/>
      <use xlink:href="#DejaVuSans-53" transform="translate(1166.357422 0)"/>
      <use xlink:href="#DejaVuSans-49" transform="translate(1229.833984 0)"/>
      <use xlink:href="#DejaVuSans-4d" transform="translate(1259.326172 0)"/>
      <use xlink:href="#DejaVuSans-29" transform="translate(1345.605469 0)"/>
     </g>
    </g>
   </g>
   <g id="FillBetweenPolyCollection_1">
    <defs>
     <path id="m0b14ce25dd" d="M 762.535 -371.579688
L 762.535 -252.072545
L 983.21125 -252.072545
L 983.21125 -371.579688
L 983.21125 -371.579688
L 762.535 -371.579688
z
" style="stroke: #008000; stroke-opacity: 0.1"/>
    </defs>
    <g clip-path="url(#pb5a0fb9c07)">
     <use xlink:href="#m0b14ce25dd" x="0" y="441.659687" style="fill: #008000; fill-opacity: 0.1; stroke: #008000; stroke-opacity: 0.1"/>
    </g>
   </g>
   <g id="LineCollection_13">
    <path clip-path="url(#pb5a0fb9c07)" style="fill: none; stroke: #2ecc71; stroke-width: 2"/>
   </g>
   <g id="LineCollection_14">
    <path clip-path="url(#pb5a0fb9c07)" style="fill: none; stroke: #2ecc71; stroke-width: 2"/>
   </g>
   <g id="line2d_86">
    <g clip-path="url(#pb5a0fb9c07)">
     <use xlink:href="#m4adea24ecb" x="541.01798" y="500.444268" style="fill: #2ecc71; stroke: #2ecc71; stroke-width: 1.5"/>
    </g>
   </g>
   <g id="line2d_87">
    <g clip-path="url(#pb5a0fb9c07)">
     <use xlink:href="#m4adea24ecb" x="547.759117" y="500.444268" style="fill: #2ecc71; stroke: #2ecc71; stroke-width: 1.5"/>
    </g>
   </g>
   <g id="line2d_88">
    <g clip-path="url(#pb5a0fb9c07)">
     <use xlink:href="#m429fc4ae5c" x="544.388548" y="509.178182" style="fill: #2ecc71; stroke: #2ecc71; stroke-width: 1.5"/>
    </g>
   </g>
   <g id="line2d_89">
    <g clip-path="url(#pb5a0fb9c07)">
     <use xlink:href="#m429fc4ae5c" x="544.388548" y="491.710355" style="fill: #2ecc71; stroke: #2ecc71; stroke-width: 1.5"/>
    </g>
   </g>
   <g id="LineCollection_15">
    <path d="M 981.233087 300.680533
L 998.41 300.680533
" clip-path="url(#pb5a0fb9c07)" style="fill: none; stroke: #3498db; stroke-width: 2"/>
   </g>
   <g id="LineCollection_16">
    <path clip-path="url(#pb5a0fb9c07)" style="fill: none; stroke: #3498db; stroke-width: 2"/>
   </g>
   <g id="line2d_90">
    <g clip-path="url(#pb5a0fb9c07)">
     <use xlink:href="#mb902bd2fc4" x="981.233087" y="300.680533" style="fill: #3498db; stroke: #3498db; stroke-width: 1.5"/>
    </g>
   </g>
   <g id="line2d_91">
    <g clip-path="url(#pb5a0fb9c07)">
     <use xlink:href="#mb902bd2fc4" x="1078.986549" y="300.680533" style="fill: #3498db; stroke: #3498db; stroke-width: 1.5"/>
    </g>
   </g>
   <g id="line2d_92">
    <g clip-path="url(#pb5a0fb9c07)">
     <use xlink:href="#me44f02c8be" x="1030.109818" y="317.559189" style="fill: #3498db; stroke: #3498db; stroke-width: 1.5"/>
    </g>
   </g>
   <g id="line2d_93">
    <g clip-path="url(#pb5a0fb9c07)">
     <use xlink:href="#me44f02c8be" x="1030.109818" y="283.801878" style="fill: #3498db; stroke: #3498db; stroke-width: 1.5"/>
    </g>
   </g>
   <g id="LineCollection_17">
    <path d="M 548.211 313.832259
L 560.804483 313.832259
" clip-path="url(#pb5a0fb9c07)" style="fill: none; stroke: #9b59b6; stroke-width: 2"/>
   </g>
   <g id="LineCollection_18">
    <path d="M 554.507741 317.925417
L 554.507741 309.739101
" clip-path="url(#pb5a0fb9c07)" style="fill: none; stroke: #9b59b6; stroke-width: 2"/>
   </g>
   <g id="line2d_94">
    <g clip-path="url(#pb5a0fb9c07)">
     <use xlink:href="#ma00f28b90c" x="548.211" y="313.832259" style="fill: #9b59b6; stroke: #9b59b6; stroke-width: 1.5"/>
    </g>
   </g>
   <g id="line2d_95">
    <g clip-path="url(#pb5a0fb9c07)">
     <use xlink:href="#ma00f28b90c" x="560.804483" y="313.832259" style="fill: #9b59b6; stroke: #9b59b6; stroke-width: 1.5"/>
    </g>
   </g>
   <g id="line2d_96">
    <g clip-path="url(#pb5a0fb9c07)">
     <use xlink:href="#mc744f68969" x="554.507741" y="317.925417" style="fill: #9b59b6; stroke: #9b59b6; stroke-width: 1.5"/>
    </g>
   </g>
   <g id="line2d_97">
    <g clip-path="url(#pb5a0fb9c07)">
     <use xlink:href="#mc744f68969" x="554.507741" y="309.739101" style="fill: #9b59b6; stroke: #9b59b6; stroke-width: 1.5"/>
    </g>
   </g>
   <g id="line2d_98">
    <path d="M 541.85875 356.897143
L 983.21125 356.897143
" clip-path="url(#pb5a0fb9c07)" style="fill: none; stroke-dasharray: 5.55,2.4; stroke-dashoffset: 0; stroke: #ff0000; stroke-opacity: 0.5; stroke-width: 1.5"/>
   </g>
   <g id="line2d_99">
    <path d="M 762.535 404.7
L 762.535 70.08
" clip-path="url(#pb5a0fb9c07)" style="fill: none; stroke-dasharray: 1.5,2.475; stroke-dashoffset: 0; stroke: #ff0000; stroke-opacity: 0.5; stroke-width: 1.5"/>
   </g>
   <g id="line2d_100">
    <g clip-path="url(#pb5a0fb9c07)">
     <use xlink:href="#m84578c99f3" x="544.388548" y="500.444268" style="fill: #2ecc71; stroke: #000000; stroke-width: 1.5"/>
    </g>
   </g>
   <g id="line2d_101">
    <g clip-path="url(#pb5a0fb9c07)">
     <use xlink:href="#m7f2dfdd646" x="1030.109818" y="300.680533" style="fill: #3498db; stroke: #000000; stroke-width: 1.5; stroke-linejoin: miter"/>
    </g>
   </g>
   <g id="line2d_102">
    <g clip-path="url(#pb5a0fb9c07)">
     <use xlink:href="#m14e97f57ac" x="554.507741" y="313.832259" style="fill: #9b59b6; stroke: #000000; stroke-width: 1.5; stroke-linejoin: miter"/>
    </g>
   </g>
   <g id="patch_8">
    <path d="M 541.85875 404.7
L 541.85875 70.08
" style="fill: none; stroke: #cccccc; stroke-linejoin: miter; stroke-linecap: square"/>
   </g>
   <g id="patch_9">
    <path d="M 983.21125 404.7
L 983.21125 70.08
" style="fill: none; stroke: #cccccc; stroke-linejoin: miter; stroke-linecap: square"/>
   </g>
   <g id="patch_10">
    <path d="M 541.85875 404.7
L 983.21125 404.7
" style="fill: none; stroke: #cccccc; stroke-linejoin: miter; stroke-linecap: square"/>
   </g>
   <g id="patch_11">
    <path d="M 541.85875 70.08
L 983.21125 70.08
" style="fill: none; stroke: #cccccc; stroke-linejoin: miter; stroke-linecap: square"/>
   </g>
   <g id="text_36">
    <!-- (b) Robustness vs Explainability -->
    <g style="fill: #262626" transform="translate(635.662188 64.08) scale(0.14 -0.14)">
     <defs>
      <path id="DejaVuSans-Bold-45" d="M 588 4666
L 3834 4666
L 3834 3756
L 1791 3756
L 1791 2888
L 3713 2888
L 3713 1978
L 1791 1978
L 1791 909
L 3903 909
L 3903 0
L 588 0
L 588 4666
z
" transform="scale(0.015625)"/>
      <path id="DejaVuSans-Bold-78" d="M 1422 1791
L 159 3500
L 1344 3500
L 2059 2463
L 2784 3500
L 3969 3500
L 2706 1797
L 4031 0
L 2847 0
L 2059 1106
L 1281 0
L 97 0
L 1422 1791
z
" transform="scale(0.015625)"/>
      <path id="DejaVuSans-Bold-70" d="M 1656 506
L 1656 -1331
L 538 -1331
L 538 3500
L 1656 3500
L 1656 2988
Q 1888 3294 2169 3439
Q 2450 3584 2816 3584
Q 3463 3584 3878 3070
Q 4294 2556 4294 1747
Q 4294 938 3878 423
Q 3463 -91 2816 -91
Q 2450 -91 2169 54
Q 1888 200 1656 506
z
M 2400 2772
Q 2041 2772 1848 2508
Q 1656 2244 1656 1747
Q 1656 1250 1848 986
Q 2041 722 2400 722
Q 2759 722 2948 984
Q 3138 1247 3138 1747
Q 3138 2247 2948 2509
Q 2759 2772 2400 2772
z
" transform="scale(0.015625)"/>
      <path id="DejaVuSans-Bold-69" d="M 538 3500
L 1656 3500
L 1656 0
L 538 0
L 538 3500
z
M 538 4863
L 1656 4863
L 1656 3950
L 538 3950
L 538 4863
z
" transform="scale(0.015625)"/>
     </defs>
     <use xlink:href="#DejaVuSans-Bold-28"/>
     <use xlink:href="#DejaVuSans-Bold-62" transform="translate(45.703125 0)"/>
     <use xlink:href="#DejaVuSans-Bold-29" transform="translate(117.285156 0)"/>
     <use xlink:href="#DejaVuSans-Bold-20" transform="translate(162.988281 0)"/>
     <use xlink:href="#DejaVuSans-Bold-52" transform="translate(197.802734 0)"/>
     <use xlink:href="#DejaVuSans-Bold-6f" transform="translate(274.804688 0)"/>
     <use xlink:href="#DejaVuSans-Bold-62" transform="translate(343.505859 0)"/>
     <use xlink:href="#DejaVuSans-Bold-75" transform="translate(415.087891 0)"/>
     <use xlink:href="#DejaVuSans-Bold-73" transform="translate(486.279297 0)"/>
     <use xlink:href="#DejaVuSans-Bold-74" transform="translate(545.800781 0)"/>
     <use xlink:href="#DejaVuSans-Bold-6e" transform="translate(593.603516 0)"/>
     <use xlink:href="#DejaVuSans-Bold-65" transform="translate(664.794922 0)"/>
     <use xlink:href="#DejaVuSans-Bold-73" transform="translate(732.617188 0)"/>
     <use xlink:href="#DejaVuSans-Bold-73" transform="translate(792.138672 0)"/>
     <use xlink:href="#DejaVuSans-Bold-20" transform="translate(851.660156 0)"/>
     <use xlink:href="#DejaVuSans-Bold-76" transform="translate(886.474609 0)"/>
     <use xlink:href="#DejaVuSans-Bold-73" transform="translate(951.660156 0)"/>
     <use xlink:href="#DejaVuSans-Bold-20" transform="translate(1011.181641 0)"/>
     <use xlink:href="#DejaVuSans-Bold-45" transform="translate(1045.996094 0)"/>
     <use xlink:href="#DejaVuSans-Bold-78" transform="translate(1114.306641 0)"/>
     <use xlink:href="#DejaVuSans-Bold-70" transform="translate(1178.808594 0)"/>
     <use xlink:href="#DejaVuSans-Bold-6c" transform="translate(1250.390625 0)"/>
     <use xlink:href="#DejaVuSans-Bold-61" transform="translate(1284.667969 0)"/>
     <use xlink:href="#DejaVuSans-Bold-69" transform="translate(1352.148438 0)"/>
     <use xlink:href="#DejaVuSans-Bold-6e" transform="translate(1386.425781 0)"/>
     <use xlink:href="#DejaVuSans-Bold-61" transform="translate(1457.617188 0)"/>
     <use xlink:href="#DejaVuSans-Bold-62" transform="translate(1525.097656 0)"/>
     <use xlink:href="#DejaVuSans-Bold-69" transform="translate(1596.679688 0)"/>
     <use xlink:href="#DejaVuSans-Bold-6c" transform="translate(1630.957031 0)"/>
     <use xlink:href="#DejaVuSans-Bold-69" transform="translate(1665.234375 0)"/>
     <use xlink:href="#DejaVuSans-Bold-74" transform="translate(1699.511719 0)"/>
     <use xlink:href="#DejaVuSans-Bold-79" transform="translate(1747.314453 0)"/>
    </g>
   </g>
   <g id="legend_2">
    <g id="LineCollection_19">
     <path d="M 878.90375 356.370469
L 889.90375 356.370469
" style="fill: none; stroke: #2ecc71; stroke-width: 2"/>
    </g>
    <g id="LineCollection_20">
     <path d="M 884.40375 361.870469
L 884.40375 350.870469
" style="fill: none; stroke: #2ecc71; stroke-width: 2"/>
    </g>
    <g id="line2d_103">
     <g>
      <use xlink:href="#m4adea24ecb" x="878.90375" y="356.370469" style="fill: #2ecc71; stroke: #2ecc71; stroke-width: 1.5"/>
     </g>
    </g>
    <g id="line2d_104">
     <g>
      <use xlink:href="#m4adea24ecb" x="889.90375" y="356.370469" style="fill: #2ecc71; stroke: #2ecc71; stroke-width: 1.5"/>
     </g>
    </g>
    <g id="line2d_105">
     <g>
      <use xlink:href="#m429fc4ae5c" x="884.40375" y="361.870469" style="fill: #2ecc71; stroke: #2ecc71; stroke-width: 1.5"/>
     </g>
    </g>
    <g id="line2d_106">
     <g>
      <use xlink:href="#m429fc4ae5c" x="884.40375" y="350.870469" style="fill: #2ecc71; stroke: #2ecc71; stroke-width: 1.5"/>
     </g>
    </g>
    <g id="line2d_107"/>
    <g id="line2d_108">
     <g>
      <use xlink:href="#m84578c99f3" x="884.40375" y="356.370469" style="fill: #2ecc71; stroke: #000000; stroke-width: 1.5"/>
     </g>
    </g>
    <g id="text_37">
     <!-- Baseline -->
     <g style="fill: #262626" transform="translate(904.20375 360.220469) scale(0.11 -0.11)">
      <use xlink:href="#DejaVuSans-42"/>
      <use xlink:href="#DejaVuSans-61" transform="translate(68.603516 0)"/>
      <use xlink:href="#DejaVuSans-73" transform="translate(129.882812 0)"/>
      <use xlink:href="#DejaVuSans-65" transform="translate(181.982422 0)"/>
      <use xlink:href="#DejaVuSans-6c" transform="translate(243.505859 0)"/>
      <use xlink:href="#DejaVuSans-69" transform="translate(271.289062 0)"/>
      <use xlink:href="#DejaVuSans-6e" transform="translate(299.072266 0)"/>
      <use xlink:href="#DejaVuSans-65" transform="translate(362.451172 0)"/>
     </g>
    </g>
    <g id="LineCollection_21">
     <path d="M 878.90375 372.516406
L 889.90375 372.516406
" style="fill: none; stroke: #3498db; stroke-width: 2"/>
    </g>
    <g id="LineCollection_22">
     <path d="M 884.40375 378.016406
L 884.40375 367.016406
" style="fill: none; stroke: #3498db; stroke-width: 2"/>
    </g>
    <g id="line2d_109">
     <g>
      <use xlink:href="#mb902bd2fc4" x="878.90375" y="372.516406" style="fill: #3498db; stroke: #3498db; stroke-width: 1.5"/>
     </g>
    </g>
    <g id="line2d_110">
     <g>
      <use xlink:href="#mb902bd2fc4" x="889.90375" y="372.516406" style="fill: #3498db; stroke: #3498db; stroke-width: 1.5"/>
     </g>
    </g>
    <g id="line2d_111">
     <g>
      <use xlink:href="#me44f02c8be" x="884.40375" y="378.016406" style="fill: #3498db; stroke: #3498db; stroke-width: 1.5"/>
     </g>
    </g>
    <g id="line2d_112">
     <g>
      <use xlink:href="#me44f02c8be" x="884.40375" y="367.016406" style="fill: #3498db; stroke: #3498db; stroke-width: 1.5"/>
     </g>
    </g>
    <g id="line2d_113"/>
    <g id="line2d_114">
     <g>
      <use xlink:href="#m7f2dfdd646" x="884.40375" y="372.516406" style="fill: #3498db; stroke: #000000; stroke-width: 1.5; stroke-linejoin: miter"/>
     </g>
    </g>
    <g id="text_38">
     <!-- TRADES -->
     <g style="fill: #262626" transform="translate(904.20375 376.366406) scale(0.11 -0.11)">
      <use xlink:href="#DejaVuSans-54"/>
      <use xlink:href="#DejaVuSans-52" transform="translate(61.083984 0)"/>
      <use xlink:href="#DejaVuSans-41" transform="translate(126.566406 0)"/>
      <use xlink:href="#DejaVuSans-44" transform="translate(194.974609 0)"/>
      <use xlink:href="#DejaVuSans-45" transform="translate(271.976562 0)"/>
      <use xlink:href="#DejaVuSans-53" transform="translate(335.160156 0)"/>
     </g>
    </g>
    <g id="LineCollection_23">
     <path d="M 878.90375 388.662344
L 889.90375 388.662344
" style="fill: none; stroke: #9b59b6; stroke-width: 2"/>
    </g>
    <g id="LineCollection_24">
     <path d="M 884.40375 394.162344
L 884.40375 383.162344
" style="fill: none; stroke: #9b59b6; stroke-width: 2"/>
    </g>
    <g id="line2d_115">
     <g>
      <use xlink:href="#ma00f28b90c" x="878.90375" y="388.662344" style="fill: #9b59b6; stroke: #9b59b6; stroke-width: 1.5"/>
     </g>
    </g>
    <g id="line2d_116">
     <g>
      <use xlink:href="#ma00f28b90c" x="889.90375" y="388.662344" style="fill: #9b59b6; stroke: #9b59b6; stroke-width: 1.5"/>
     </g>
    </g>
    <g id="line2d_117">
     <g>
      <use xlink:href="#mc744f68969" x="884.40375" y="394.162344" style="fill: #9b59b6; stroke: #9b59b6; stroke-width: 1.5"/>
     </g>
    </g>
    <g id="line2d_118">
     <g>
      <use xlink:href="#mc744f68969" x="884.40375" y="383.162344" style="fill: #9b59b6; stroke: #9b59b6; stroke-width: 1.5"/>
     </g>
    </g>
    <g id="line2d_119"/>
    <g id="line2d_120">
     <g>
      <use xlink:href="#m14e97f57ac" x="884.40375" y="388.662344" style="fill: #9b59b6; stroke: #000000; stroke-width: 1.5; stroke-linejoin: miter"/>
     </g>
    </g>
    <g id="text_39">
     <!-- Tri-Objective -->
     <g style="fill: #262626" transform="translate(904.20375 392.512344) scale(0.11 -0.11)">
      <use xlink:href="#DejaVuSans-54"/>
      <use xlink:href="#DejaVuSans-72" transform="translate(46.333984 0)"/>
      <use xlink:href="#DejaVuSans-69" transform="translate(87.447266 0)"/>
      <use xlink:href="#DejaVuSans-2d" transform="translate(115.230469 0)"/>
      <use xlink:href="#DejaVuSans-4f" transform="translate(154.064453 0)"/>
      <use xlink:href="#DejaVuSans-62" transform="translate(232.775391 0)"/>
      <use xlink:href="#DejaVuSans-6a" transform="translate(296.251953 0)"/>
      <use xlink:href="#DejaVuSans-65" transform="translate(324.035156 0)"/>
      <use xlink:href="#DejaVuSans-63" transform="translate(385.558594 0)"/>
      <use xlink:href="#DejaVuSans-74" transform="translate(440.539062 0)"/>
      <use xlink:href="#DejaVuSans-69" transform="translate(479.748047 0)"/>
      <use xlink:href="#DejaVuSans-76" transform="translate(507.53125 0)"/>
      <use xlink:href="#DejaVuSans-65" transform="translate(566.710938 0)"/>
     </g>
    </g>
   </g>
  </g>
  <g id="text_40">
   <!-- Figure 10: Pareto Analysis of Multi-Objective Trade-offs -->
   <g style="fill: #262626" transform="translate(278.561406 17.837812) scale(0.14 -0.14)">
    <defs>
     <path id="DejaVuSans-Bold-46" d="M 588 4666
L 3834 4666
L 3834 3756
L 1791 3756
L 1791 2888
L 3713 2888
L 3713 1978
L 1791 1978
L 1791 0
L 588 0
L 588 4666
z
" transform="scale(0.015625)"/>
     <path id="DejaVuSans-Bold-67" d="M 2919 594
Q 2688 288 2409 144
Q 2131 0 1766 0
Q 1125 0 706 504
Q 288 1009 288 1791
Q 288 2575 706 3076
Q 1125 3578 1766 3578
Q 2131 3578 2409 3434
Q 2688 3291 2919 2981
L 2919 3500
L 4044 3500
L 4044 353
Q 4044 -491 3511 -936
Q 2978 -1381 1966 -1381
Q 1638 -1381 1331 -1331
Q 1025 -1281 716 -1178
L 716 -306
Q 1009 -475 1290 -558
Q 1572 -641 1856 -641
Q 2406 -641 2662 -400
Q 2919 -159 2919 353
L 2919 594
z
M 2181 2772
Q 1834 2772 1640 2515
Q 1447 2259 1447 1791
Q 1447 1309 1634 1061
Q 1822 813 2181 813
Q 2531 813 2725 1069
Q 2919 1325 2919 1791
Q 2919 2259 2725 2515
Q 2531 2772 2181 2772
z
" transform="scale(0.015625)"/>
     <path id="DejaVuSans-Bold-31" d="M 750 831
L 1813 831
L 1813 3847
L 722 3622
L 722 4441
L 1806 4666
L 2950 4666
L 2950 831
L 4013 831
L 4013 0
L 750 0
L 750 831
z
" transform="scale(0.015625)"/>
     <path id="DejaVuSans-Bold-30" d="M 2944 2338
Q 2944 3213 2780 3570
Q 2616 3928 2228 3928
Q 1841 3928 1675 3570
Q 1509 3213 1509 2338
Q 1509 1453 1675 1090
Q 1841 728 2228 728
Q 2613 728 2778 1090
Q 2944 1453 2944 2338
z
M 4147 2328
Q 4147 1169 3647 539
Q 3147 -91 2228 -91
Q 1306 -91 806 539
Q 306 1169 306 2328
Q 306 3491 806 4120
Q 1306 4750 2228 4750
Q 3147 4750 3647 4120
Q 4147 3491 4147 2328
z
" transform="scale(0.015625)"/>
     <path id="DejaVuSans-Bold-3a" d="M 716 3500
L 1844 3500
L 1844 2291
L 716 2291
L 716 3500
z
M 716 1209
L 1844 1209
L 1844 0
L 716 0
L 716 1209
z
" transform="scale(0.015625)"/>
     <path id="DejaVuSans-Bold-50" d="M 588 4666
L 2584 4666
Q 3475 4666 3951 4270
Q 4428 3875 4428 3144
Q 4428 2409 3951 2014
Q 3475 1619 2584 1619
L 1791 1619
L 1791 0
L 588 0
L 588 4666
z
M 1791 3794
L 1791 2491
L 2456 2491
Q 2806 2491 2997 2661
Q 3188 2831 3188 3144
Q 3188 3456 2997 3625
Q 2806 3794 2456 3794
L 1791 3794
z
" transform="scale(0.015625)"/>
     <path id="DejaVuSans-Bold-66" d="M 2841 4863
L 2841 4128
L 2222 4128
Q 1984 4128 1890 4042
Q 1797 3956 1797 3744
L 1797 3500
L 2753 3500
L 2753 2700
L 1797 2700
L 1797 0
L 678 0
L 678 2700
L 122 2700
L 122 3500
L 678 3500
L 678 3744
Q 678 4316 997 4589
Q 1316 4863 1984 4863
L 2841 4863
z
" transform="scale(0.015625)"/>
     <path id="DejaVuSans-Bold-4d" d="M 588 4666
L 2119 4666
L 3181 2169
L 4250 4666
L 5778 4666
L 5778 0
L 4641 0
L 4641 3413
L 3566 897
L 2803 897
L 1728 3413
L 1728 0
L 588 0
L 588 4666
z
" transform="scale(0.015625)"/>
     <path id="DejaVuSans-Bold-2d" d="M 347 2297
L 2309 2297
L 2309 1388
L 347 1388
L 347 2297
z
" transform="scale(0.015625)"/>
     <path id="DejaVuSans-Bold-4f" d="M 2719 3878
Q 2169 3878 1866 3472
Q 1563 3066 1563 2328
Q 1563 1594 1866 1187
Q 2169 781 2719 781
Q 3272 781 3575 1187
Q 3878 1594 3878 2328
Q 3878 3066 3575 3472
Q 3272 3878 2719 3878
z
M 2719 4750
Q 3844 4750 4481 4106
Q 5119 3463 5119 2328
Q 5119 1197 4481 553
Q 3844 -91 2719 -91
Q 1597 -91 958 553
Q 319 1197 319 2328
Q 319 3463 958 4106
Q 1597 4750 2719 4750
z
" transform="scale(0.015625)"/>
     <path id="DejaVuSans-Bold-6a" d="M 538 3500
L 1656 3500
L 1656 63
Q 1656 -641 1318 -1011
Q 981 -1381 341 -1381
L -213 -1381
L -213 -647
L -19 -647
Q 300 -647 419 -503
Q 538 -359 538 63
L 538 3500
z
M 538 4863
L 1656 4863
L 1656 3950
L 538 3950
L 538 4863
z
" transform="scale(0.015625)"/>
     <path id="DejaVuSans-Bold-54" d="M 31 4666
L 4331 4666
L 4331 3756
L 2784 3756
L 2784 0
L 1581 0
L 1581 3756
L 31 3756
L 31 4666
z
" transform="scale(0.015625)"/>
     <path id="DejaVuSans-Bold-64" d="M 2919 2988
L 2919 4863
L 4044 4863
L 4044 0
L 2919 0
L 2919 506
Q 2688 197 2409 53
Q 2131 -91 1766 -91
Q 1119 -91 703 423
Q 288 938 288 1747
Q 288 2556 703 3070
Q 1119 3584 1766 3584
Q 2128 3584 2408 3439
Q 2688 3294 2919 2988
z
M 2181 722
Q 2541 722 2730 984
Q 2919 1247 2919 1747
Q 2919 2247 2730 2509
Q 2541 2772 2181 2772
Q 1825 2772 1636 2509
Q 1447 2247 1447 1747
Q 1447 1247 1636 984
Q 1825 722 2181 722
z
" transform="scale(0.015625)"/>
    </defs>
    <use xlink:href="#DejaVuSans-Bold-46"/>
    <use xlink:href="#DejaVuSans-Bold-69" transform="translate(68.310547 0)"/>
    <use xlink:href="#DejaVuSans-Bold-67" transform="translate(102.587891 0)"/>
    <use xlink:href="#DejaVuSans-Bold-75" transform="translate(174.169922 0)"/>
    <use xlink:href="#DejaVuSans-Bold-72" transform="translate(245.361328 0)"/>
    <use xlink:href="#DejaVuSans-Bold-65" transform="translate(294.677734 0)"/>
    <use xlink:href="#DejaVuSans-Bold-20" transform="translate(362.5 0)"/>
    <use xlink:href="#DejaVuSans-Bold-31" transform="translate(397.314453 0)"/>
    <use xlink:href="#DejaVuSans-Bold-30" transform="translate(466.894531 0)"/>
    <use xlink:href="#DejaVuSans-Bold-3a" transform="translate(536.474609 0)"/>
    <use xlink:href="#DejaVuSans-Bold-20" transform="translate(576.464844 0)"/>
    <use xlink:href="#DejaVuSans-Bold-50" transform="translate(611.279297 0)"/>
    <use xlink:href="#DejaVuSans-Bold-61" transform="translate(681.945312 0)"/>
    <use xlink:href="#DejaVuSans-Bold-72" transform="translate(749.425781 0)"/>
    <use xlink:href="#DejaVuSans-Bold-65" transform="translate(798.742188 0)"/>
    <use xlink:href="#DejaVuSans-Bold-74" transform="translate(866.564453 0)"/>
    <use xlink:href="#DejaVuSans-Bold-6f" transform="translate(914.367188 0)"/>
    <use xlink:href="#DejaVuSans-Bold-20" transform="translate(983.068359 0)"/>
    <use xlink:href="#DejaVuSans-Bold-41" transform="translate(1017.882812 0)"/>
    <use xlink:href="#DejaVuSans-Bold-6e" transform="translate(1095.275391 0)"/>
    <use xlink:href="#DejaVuSans-Bold-61" transform="translate(1166.466797 0)"/>
    <use xlink:href="#DejaVuSans-Bold-6c" transform="translate(1233.947266 0)"/>
    <use xlink:href="#DejaVuSans-Bold-79" transform="translate(1268.224609 0)"/>
    <use xlink:href="#DejaVuSans-Bold-73" transform="translate(1333.410156 0)"/>
    <use xlink:href="#DejaVuSans-Bold-69" transform="translate(1392.931641 0)"/>
    <use xlink:href="#DejaVuSans-Bold-73" transform="translate(1427.208984 0)"/>
    <use xlink:href="#DejaVuSans-Bold-20" transform="translate(1486.730469 0)"/>
    <use xlink:href="#DejaVuSans-Bold-6f" transform="translate(1521.544922 0)"/>
    <use xlink:href="#DejaVuSans-Bold-66" transform="translate(1590.246094 0)"/>
    <use xlink:href="#DejaVuSans-Bold-20" transform="translate(1633.751953 0)"/>
    <use xlink:href="#DejaVuSans-Bold-4d" transform="translate(1668.566406 0)"/>
    <use xlink:href="#DejaVuSans-Bold-75" transform="translate(1768.078125 0)"/>
    <use xlink:href="#DejaVuSans-Bold-6c" transform="translate(1839.269531 0)"/>
    <use xlink:href="#DejaVuSans-Bold-74" transform="translate(1873.546875 0)"/>
    <use xlink:href="#DejaVuSans-Bold-69" transform="translate(1921.349609 0)"/>
    <use xlink:href="#DejaVuSans-Bold-2d" transform="translate(1955.626953 0)"/>
    <use xlink:href="#DejaVuSans-Bold-4f" transform="translate(1997.130859 0)"/>
    <use xlink:href="#DejaVuSans-Bold-62" transform="translate(2082.140625 0)"/>
    <use xlink:href="#DejaVuSans-Bold-6a" transform="translate(2153.722656 0)"/>
    <use xlink:href="#DejaVuSans-Bold-65" transform="translate(2188 0)"/>
    <use xlink:href="#DejaVuSans-Bold-63" transform="translate(2255.822266 0)"/>
    <use xlink:href="#DejaVuSans-Bold-74" transform="translate(2315.099609 0)"/>
    <use xlink:href="#DejaVuSans-Bold-69" transform="translate(2362.902344 0)"/>
    <use xlink:href="#DejaVuSans-Bold-76" transform="translate(2397.179688 0)"/>
    <use xlink:href="#DejaVuSans-Bold-65" transform="translate(2462.365234 0)"/>
    <use xlink:href="#DejaVuSans-Bold-20" transform="translate(2530.1875 0)"/>
    <use xlink:href="#DejaVuSans-Bold-54" transform="translate(2565.001953 0)"/>
    <use xlink:href="#DejaVuSans-Bold-72" transform="translate(2622.214844 0)"/>
    <use xlink:href="#DejaVuSans-Bold-61" transform="translate(2671.53125 0)"/>
    <use xlink:href="#DejaVuSans-Bold-64" transform="translate(2739.011719 0)"/>
    <use xlink:href="#DejaVuSans-Bold-65" transform="translate(2810.59375 0)"/>
    <use xlink:href="#DejaVuSans-Bold-2d" transform="translate(2878.416016 0)"/>
    <use xlink:href="#DejaVuSans-Bold-6f" transform="translate(2919.919922 0)"/>
    <use xlink:href="#DejaVuSans-Bold-66" transform="translate(2988.621094 0)"/>
    <use xlink:href="#DejaVuSans-Bold-66" transform="translate(3032.126953 0)"/>
    <use xlink:href="#DejaVuSans-Bold-73" transform="translate(3075.632812 0)"/>
   </g>
  </g>
 </g>
 <defs>
  <clipPath id="pb0533b884d">
   <rect x="40.31125" y="70.08" width="441.3525" height="334.62"/>
  </clipPath>
  <clipPath id="pb5a0fb9c07">
   <rect x="541.85875" y="70.08" width="441.3525" height="334.62"/>
  </clipPath>
 </defs>
</svg>
